G04 Layer: BottomSilkscreenLayer*
G04 EasyEDA v6.5.54, 2026-03-25 16:45:29*
G04 ca3c6d9d75d44d9f837d8ccaf28c5f28,dab029622f68425ca1211968fdfe3d34,10*
G04 Gerber Generator version 0.2*
G04 Scale: 100 percent, Rotated: No, Reflected: No *
G04 Dimensions in millimeters *
G04 leading zeros omitted , absolute positions ,4 integer and 5 decimal *
%FSLAX45Y45*%
%MOMM*%

%ADD10C,0.1500*%
%ADD11C,0.1524*%
%ADD12C,0.2540*%
%ADD13C,0.3000*%
%ADD14C,0.0162*%

%LPD*%
D10*
X1346200Y2950971D02*
G01*
X1316989Y2874518D01*
X1288034Y2950971D02*
G01*
X1316989Y2874518D01*
X1263904Y2950971D02*
G01*
X1263904Y2874518D01*
X1263904Y2950971D02*
G01*
X1238504Y2950971D01*
X1227581Y2947415D01*
X1220470Y2940050D01*
X1216660Y2932684D01*
X1213104Y2921762D01*
X1213104Y2903728D01*
X1216660Y2892805D01*
X1220470Y2885439D01*
X1227581Y2878073D01*
X1238504Y2874518D01*
X1263904Y2874518D01*
X1189228Y2950971D02*
G01*
X1189228Y2874518D01*
X1189228Y2950971D02*
G01*
X1163573Y2950971D01*
X1152652Y2947415D01*
X1145539Y2940050D01*
X1141729Y2932684D01*
X1138173Y2921762D01*
X1138173Y2903728D01*
X1141729Y2892805D01*
X1145539Y2885439D01*
X1152652Y2878073D01*
X1163573Y2874518D01*
X1189228Y2874518D01*
X1278889Y2653284D02*
G01*
X1282700Y2660650D01*
X1289812Y2668015D01*
X1297178Y2671571D01*
X1311655Y2671571D01*
X1319021Y2668015D01*
X1326134Y2660650D01*
X1329944Y2653284D01*
X1333500Y2642362D01*
X1333500Y2624328D01*
X1329944Y2613405D01*
X1326134Y2606039D01*
X1319021Y2598673D01*
X1311655Y2595118D01*
X1297178Y2595118D01*
X1289812Y2598673D01*
X1282700Y2606039D01*
X1278889Y2613405D01*
X1278889Y2624328D01*
X1297178Y2624328D02*
G01*
X1278889Y2624328D01*
X1255013Y2671571D02*
G01*
X1255013Y2595118D01*
X1255013Y2671571D02*
G01*
X1203960Y2595118D01*
X1203960Y2671571D02*
G01*
X1203960Y2595118D01*
X1180084Y2671571D02*
G01*
X1180084Y2595118D01*
X1180084Y2671571D02*
G01*
X1154684Y2671571D01*
X1143762Y2668015D01*
X1136395Y2660650D01*
X1132839Y2653284D01*
X1129029Y2642362D01*
X1129029Y2624328D01*
X1132839Y2613405D01*
X1136395Y2606039D01*
X1143762Y2598673D01*
X1154684Y2595118D01*
X1180084Y2595118D01*
X1803400Y2430271D02*
G01*
X1803400Y2353818D01*
X1803400Y2430271D02*
G01*
X1770634Y2430271D01*
X1759712Y2426715D01*
X1756155Y2422905D01*
X1752600Y2415794D01*
X1752600Y2404871D01*
X1756155Y2397505D01*
X1759712Y2393950D01*
X1770634Y2390139D01*
X1803400Y2390139D01*
X1728470Y2430271D02*
G01*
X1728470Y2353818D01*
X1728470Y2430271D02*
G01*
X1681226Y2430271D01*
X1728470Y2393950D02*
G01*
X1699513Y2393950D01*
X1635505Y2430271D02*
G01*
X1646428Y2426715D01*
X1653539Y2415794D01*
X1657095Y2397505D01*
X1657095Y2386584D01*
X1653539Y2368295D01*
X1646428Y2357373D01*
X1635505Y2353818D01*
X1628139Y2353818D01*
X1617218Y2357373D01*
X1609852Y2368295D01*
X1606295Y2386584D01*
X1606295Y2397505D01*
X1609852Y2415794D01*
X1617218Y2426715D01*
X1628139Y2430271D01*
X1635505Y2430271D01*
X1582420Y2386584D02*
G01*
X1516887Y2386584D01*
X1470913Y2430271D02*
G01*
X1478279Y2426715D01*
X1485645Y2419350D01*
X1489202Y2411984D01*
X1492757Y2401062D01*
X1492757Y2383028D01*
X1489202Y2372105D01*
X1485645Y2364739D01*
X1478279Y2357373D01*
X1470913Y2353818D01*
X1456436Y2353818D01*
X1449323Y2357373D01*
X1441957Y2364739D01*
X1438402Y2372105D01*
X1434592Y2383028D01*
X1434592Y2401062D01*
X1438402Y2411984D01*
X1441957Y2419350D01*
X1449323Y2426715D01*
X1456436Y2430271D01*
X1470913Y2430271D01*
X1359662Y2419350D02*
G01*
X1367028Y2426715D01*
X1377950Y2430271D01*
X1392428Y2430271D01*
X1403350Y2426715D01*
X1410715Y2419350D01*
X1410715Y2411984D01*
X1407160Y2404871D01*
X1403350Y2401062D01*
X1396237Y2397505D01*
X1374394Y2390139D01*
X1367028Y2386584D01*
X1363471Y2383028D01*
X1359662Y2375662D01*
X1359662Y2364739D01*
X1367028Y2357373D01*
X1377950Y2353818D01*
X1392428Y2353818D01*
X1403350Y2357373D01*
X1410715Y2364739D01*
X1281176Y2411984D02*
G01*
X1284731Y2419350D01*
X1292097Y2426715D01*
X1299463Y2430271D01*
X1313942Y2430271D01*
X1321307Y2426715D01*
X1328420Y2419350D01*
X1332229Y2411984D01*
X1335786Y2401062D01*
X1335786Y2383028D01*
X1332229Y2372105D01*
X1328420Y2364739D01*
X1321307Y2357373D01*
X1313942Y2353818D01*
X1299463Y2353818D01*
X1292097Y2357373D01*
X1284731Y2364739D01*
X1281176Y2372105D01*
X1257300Y2328418D02*
G01*
X1191768Y2328418D01*
X1167637Y2430271D02*
G01*
X1167637Y2353818D01*
X1143762Y2430271D02*
G01*
X1143762Y2353818D01*
X1143762Y2430271D02*
G01*
X1092962Y2353818D01*
X1092962Y2430271D02*
G01*
X1092962Y2353818D01*
X1422400Y2150826D02*
G01*
X1422400Y2074463D01*
X1422400Y2150826D02*
G01*
X1371490Y2074463D01*
X1371490Y2150826D02*
G01*
X1371490Y2074463D01*
X1347490Y2150826D02*
G01*
X1347490Y2074463D01*
X1347490Y2150826D02*
G01*
X1314764Y2150826D01*
X1303855Y2147191D01*
X1300218Y2143554D01*
X1296581Y2136282D01*
X1296581Y2129010D01*
X1300218Y2121735D01*
X1303855Y2118100D01*
X1314764Y2114463D01*
X1347490Y2114463D01*
X1322036Y2114463D02*
G01*
X1296581Y2074463D01*
X1221673Y2139916D02*
G01*
X1228945Y2147191D01*
X1239855Y2150826D01*
X1254399Y2150826D01*
X1265308Y2147191D01*
X1272583Y2139916D01*
X1272583Y2132644D01*
X1268945Y2125372D01*
X1265308Y2121735D01*
X1258036Y2118100D01*
X1236218Y2110826D01*
X1228945Y2107191D01*
X1225308Y2103554D01*
X1221673Y2096282D01*
X1221673Y2085373D01*
X1228945Y2078101D01*
X1239855Y2074463D01*
X1254399Y2074463D01*
X1265308Y2078101D01*
X1272583Y2085373D01*
X1172217Y2150826D02*
G01*
X1172217Y2074463D01*
X1197673Y2150826D02*
G01*
X1146764Y2150826D01*
X1308100Y1579371D02*
G01*
X1308100Y1502918D01*
X1333500Y1579371D02*
G01*
X1282700Y1579371D01*
X1203960Y1561084D02*
G01*
X1207770Y1568450D01*
X1214881Y1575815D01*
X1222247Y1579371D01*
X1236726Y1579371D01*
X1244092Y1575815D01*
X1251204Y1568450D01*
X1255013Y1561084D01*
X1258570Y1550162D01*
X1258570Y1532128D01*
X1255013Y1521205D01*
X1251204Y1513839D01*
X1244092Y1506473D01*
X1236726Y1502918D01*
X1222247Y1502918D01*
X1214881Y1506473D01*
X1207770Y1513839D01*
X1203960Y1521205D01*
X1180084Y1579371D02*
G01*
X1180084Y1502918D01*
X1129029Y1579371D02*
G01*
X1180084Y1528318D01*
X1161795Y1546605D02*
G01*
X1129029Y1502918D01*
X1320800Y1858771D02*
G01*
X1320800Y1782318D01*
X1346200Y1858771D02*
G01*
X1295400Y1858771D01*
X1271270Y1858771D02*
G01*
X1271270Y1782318D01*
X1271270Y1858771D02*
G01*
X1242313Y1782318D01*
X1213104Y1858771D02*
G01*
X1242313Y1782318D01*
X1213104Y1858771D02*
G01*
X1213104Y1782318D01*
X1138173Y1847850D02*
G01*
X1145539Y1855215D01*
X1156462Y1858771D01*
X1170939Y1858771D01*
X1181862Y1855215D01*
X1189228Y1847850D01*
X1189228Y1840484D01*
X1185418Y1833371D01*
X1181862Y1829562D01*
X1174495Y1826005D01*
X1152652Y1818639D01*
X1145539Y1815084D01*
X1141729Y1811528D01*
X1138173Y1804162D01*
X1138173Y1793239D01*
X1145539Y1785873D01*
X1156462Y1782318D01*
X1170939Y1782318D01*
X1181862Y1785873D01*
X1189228Y1793239D01*
X1269890Y1301716D02*
G01*
X1277162Y1308991D01*
X1288072Y1312626D01*
X1302618Y1312626D01*
X1313527Y1308991D01*
X1320800Y1301716D01*
X1320800Y1294444D01*
X1317162Y1287172D01*
X1313527Y1283535D01*
X1306253Y1279900D01*
X1284437Y1272626D01*
X1277162Y1268991D01*
X1273528Y1265354D01*
X1269890Y1258082D01*
X1269890Y1247173D01*
X1277162Y1239901D01*
X1288072Y1236263D01*
X1302618Y1236263D01*
X1313527Y1239901D01*
X1320800Y1247173D01*
X1191346Y1294444D02*
G01*
X1194981Y1301716D01*
X1202255Y1308991D01*
X1209527Y1312626D01*
X1224071Y1312626D01*
X1231346Y1308991D01*
X1238618Y1301716D01*
X1242255Y1294444D01*
X1245890Y1283535D01*
X1245890Y1265354D01*
X1242255Y1254445D01*
X1238618Y1247173D01*
X1231346Y1239901D01*
X1224071Y1236263D01*
X1209527Y1236263D01*
X1202255Y1239901D01*
X1194981Y1247173D01*
X1191346Y1254445D01*
X1167345Y1312626D02*
G01*
X1167345Y1236263D01*
X1167345Y1236263D02*
G01*
X1123708Y1236263D01*
X1282590Y996916D02*
G01*
X1289862Y1004191D01*
X1300772Y1007826D01*
X1315318Y1007826D01*
X1326227Y1004191D01*
X1333500Y996916D01*
X1333500Y989644D01*
X1329862Y982372D01*
X1326227Y978735D01*
X1318953Y975100D01*
X1297137Y967826D01*
X1289862Y964191D01*
X1286228Y960554D01*
X1282590Y953282D01*
X1282590Y942373D01*
X1289862Y935101D01*
X1300772Y931463D01*
X1315318Y931463D01*
X1326227Y935101D01*
X1333500Y942373D01*
X1258590Y1007826D02*
G01*
X1258590Y931463D01*
X1258590Y1007826D02*
G01*
X1233136Y1007826D01*
X1222227Y1004191D01*
X1214955Y996916D01*
X1211318Y989644D01*
X1207681Y978735D01*
X1207681Y960554D01*
X1211318Y949645D01*
X1214955Y942373D01*
X1222227Y935101D01*
X1233136Y931463D01*
X1258590Y931463D01*
X1154590Y1007826D02*
G01*
X1183683Y931463D01*
X1154590Y1007826D02*
G01*
X1125499Y931463D01*
X1172773Y956917D02*
G01*
X1136408Y956917D01*
X2510790Y982471D02*
G01*
X2540000Y906018D01*
X2510790Y982471D02*
G01*
X2481834Y906018D01*
X2529077Y931418D02*
G01*
X2492756Y931418D01*
X2286000Y982471D02*
G01*
X2286000Y906018D01*
X2286000Y982471D02*
G01*
X2253234Y982471D01*
X2242311Y978915D01*
X2238756Y975105D01*
X2235200Y967994D01*
X2235200Y960628D01*
X2238756Y953262D01*
X2242311Y949705D01*
X2253234Y946150D01*
X2286000Y946150D02*
G01*
X2253234Y946150D01*
X2242311Y942339D01*
X2238756Y938784D01*
X2235200Y931418D01*
X2235200Y920495D01*
X2238756Y913384D01*
X2242311Y909573D01*
X2253234Y906018D01*
X2286000Y906018D01*
X1977534Y964328D02*
G01*
X1981090Y971440D01*
X1988456Y978806D01*
X1995568Y982362D01*
X2010300Y982362D01*
X2017412Y978806D01*
X2024778Y971440D01*
X2028334Y964328D01*
X2031890Y953406D01*
X2031890Y935118D01*
X2028334Y924196D01*
X2024778Y917084D01*
X2017412Y909718D01*
X2010300Y906162D01*
X1995568Y906162D01*
X1988456Y909718D01*
X1981090Y917084D01*
X1977534Y924196D01*
X1765312Y982471D02*
G01*
X1765312Y906018D01*
X1765312Y982471D02*
G01*
X1739912Y982471D01*
X1728990Y978915D01*
X1721624Y971550D01*
X1718068Y964184D01*
X1714512Y953262D01*
X1714512Y935228D01*
X1718068Y924305D01*
X1721624Y916939D01*
X1728990Y909573D01*
X1739912Y906018D01*
X1765312Y906018D01*
X1511300Y982471D02*
G01*
X1511300Y906018D01*
X1511300Y982471D02*
G01*
X1464055Y982471D01*
X1511300Y946150D02*
G01*
X1482089Y946150D01*
X1511300Y906018D02*
G01*
X1464055Y906018D01*
X1498600Y1642871D02*
G01*
X1498600Y1566418D01*
X1498600Y1642871D02*
G01*
X1451355Y1642871D01*
X1498600Y1606550D02*
G01*
X1469389Y1606550D01*
X1710689Y1624584D02*
G01*
X1714500Y1631950D01*
X1721612Y1639315D01*
X1728978Y1642871D01*
X1743455Y1642871D01*
X1750821Y1639315D01*
X1757934Y1631950D01*
X1761744Y1624584D01*
X1765300Y1613662D01*
X1765300Y1595628D01*
X1761744Y1584705D01*
X1757934Y1577339D01*
X1750821Y1569973D01*
X1743455Y1566418D01*
X1728978Y1566418D01*
X1721612Y1569973D01*
X1714500Y1577339D01*
X1710689Y1584705D01*
X1710689Y1595628D01*
X1728978Y1595628D02*
G01*
X1710689Y1595628D01*
X2040943Y1624637D02*
G01*
X2044499Y1632003D01*
X2051865Y1639115D01*
X2059231Y1642925D01*
X2073709Y1642925D01*
X2081075Y1639115D01*
X2088187Y1632003D01*
X2091743Y1624637D01*
X2095553Y1613715D01*
X2095553Y1595681D01*
X2091743Y1584759D01*
X2088187Y1577393D01*
X2081075Y1570027D01*
X2073709Y1566471D01*
X2059231Y1566471D01*
X2051865Y1570027D01*
X2044499Y1577393D01*
X2040943Y1584759D01*
X2040943Y1595681D01*
X2059231Y1595681D02*
G01*
X2040943Y1595681D01*
X2017067Y1642925D02*
G01*
X2017067Y1566471D01*
X2017067Y1642925D02*
G01*
X1966013Y1566471D01*
X1966013Y1642925D02*
G01*
X1966013Y1566471D01*
X1942137Y1642925D02*
G01*
X1942137Y1566471D01*
X1942137Y1642925D02*
G01*
X1916483Y1642925D01*
X1905561Y1639115D01*
X1898449Y1632003D01*
X1894893Y1624637D01*
X1891083Y1613715D01*
X1891083Y1595681D01*
X1894893Y1584759D01*
X1898449Y1577393D01*
X1905561Y1570027D01*
X1916483Y1566471D01*
X1942137Y1566471D01*
X2298768Y1642940D02*
G01*
X2298768Y1566486D01*
X2298768Y1642940D02*
G01*
X2273368Y1642940D01*
X2262446Y1639130D01*
X2255080Y1632018D01*
X2251524Y1624652D01*
X2247714Y1613730D01*
X2247714Y1595442D01*
X2251524Y1584520D01*
X2255080Y1577408D01*
X2262446Y1570042D01*
X2273368Y1566486D01*
X2298768Y1566486D01*
X2223838Y1642940D02*
G01*
X2223838Y1566486D01*
X2223838Y1642940D02*
G01*
X2191072Y1642940D01*
X2180150Y1639130D01*
X2176594Y1635574D01*
X2172784Y1628208D01*
X2172784Y1617286D01*
X2176594Y1610174D01*
X2180150Y1606364D01*
X2191072Y1602808D01*
X2223838Y1602808D01*
X2616200Y1642871D02*
G01*
X2586990Y1566418D01*
X2558034Y1642871D02*
G01*
X2586990Y1566418D01*
X2533904Y1642871D02*
G01*
X2533904Y1566418D01*
X2533904Y1642871D02*
G01*
X2508504Y1642871D01*
X2497581Y1639315D01*
X2490470Y1631950D01*
X2486659Y1624584D01*
X2483104Y1613662D01*
X2483104Y1595628D01*
X2486659Y1584705D01*
X2490470Y1577339D01*
X2497581Y1569973D01*
X2508504Y1566418D01*
X2533904Y1566418D01*
X2459227Y1642871D02*
G01*
X2459227Y1566418D01*
X2459227Y1642871D02*
G01*
X2433574Y1642871D01*
X2422652Y1639315D01*
X2415540Y1631950D01*
X2411729Y1624584D01*
X2408174Y1613662D01*
X2408174Y1595628D01*
X2411729Y1584705D01*
X2415540Y1577339D01*
X2422652Y1569973D01*
X2433574Y1566418D01*
X2459227Y1566418D01*
D11*
X7632700Y-1246794D02*
G01*
X7726217Y-1246794D01*
X7209558Y-1293553D02*
G01*
X7209558Y-1200035D01*
X7162800Y-1246794D02*
G01*
X7256317Y-1246794D01*
X8384308Y3061738D02*
G01*
X8327158Y3061738D01*
X8358332Y3020174D01*
X8342744Y3020174D01*
X8332355Y3014979D01*
X8327158Y3009785D01*
X8321964Y2994197D01*
X8321964Y2983806D01*
X8327158Y2968221D01*
X8337550Y2957829D01*
X8353135Y2952635D01*
X8368723Y2952635D01*
X8384308Y2957829D01*
X8389505Y2963024D01*
X8394700Y2973415D01*
X8282477Y2978612D02*
G01*
X8287674Y2973415D01*
X8282477Y2968221D01*
X8277283Y2973415D01*
X8282477Y2978612D01*
X8232602Y3061738D02*
G01*
X8175452Y3061738D01*
X8206625Y3020174D01*
X8191037Y3020174D01*
X8180646Y3014979D01*
X8175452Y3009785D01*
X8170255Y2994197D01*
X8170255Y2983806D01*
X8175452Y2968221D01*
X8185843Y2957829D01*
X8201428Y2952635D01*
X8217014Y2952635D01*
X8232602Y2957829D01*
X8237796Y2963024D01*
X8242993Y2973415D01*
X8135965Y3061738D02*
G01*
X8094403Y2952635D01*
X8052838Y3061738D02*
G01*
X8094403Y2952635D01*
X8397008Y2528338D02*
G01*
X8339858Y2528338D01*
X8371032Y2486774D01*
X8355444Y2486774D01*
X8345055Y2481579D01*
X8339858Y2476385D01*
X8334664Y2460797D01*
X8334664Y2450406D01*
X8339858Y2434821D01*
X8350250Y2424429D01*
X8365835Y2419235D01*
X8381423Y2419235D01*
X8397008Y2424429D01*
X8402205Y2429624D01*
X8407400Y2440015D01*
X8295177Y2445212D02*
G01*
X8300374Y2440015D01*
X8295177Y2434821D01*
X8289983Y2440015D01*
X8295177Y2445212D01*
X8245302Y2528338D02*
G01*
X8188152Y2528338D01*
X8219325Y2486774D01*
X8203737Y2486774D01*
X8193346Y2481579D01*
X8188152Y2476385D01*
X8182955Y2460797D01*
X8182955Y2450406D01*
X8188152Y2434821D01*
X8198543Y2424429D01*
X8214128Y2419235D01*
X8229714Y2419235D01*
X8245302Y2424429D01*
X8250496Y2429624D01*
X8255693Y2440015D01*
X8148665Y2528338D02*
G01*
X8107103Y2419235D01*
X8065538Y2528338D02*
G01*
X8107103Y2419235D01*
X8304067Y1727662D02*
G01*
X8309264Y1738053D01*
X8319655Y1748444D01*
X8330044Y1753638D01*
X8350826Y1753638D01*
X8361217Y1748444D01*
X8371608Y1738053D01*
X8376805Y1727662D01*
X8382000Y1712074D01*
X8382000Y1686097D01*
X8376805Y1670512D01*
X8371608Y1660121D01*
X8361217Y1649729D01*
X8350826Y1644535D01*
X8330044Y1644535D01*
X8319655Y1649729D01*
X8309264Y1660121D01*
X8304067Y1670512D01*
X8304067Y1686097D01*
X8330044Y1686097D02*
G01*
X8304067Y1686097D01*
X8269777Y1753638D02*
G01*
X8269777Y1644535D01*
X8269777Y1753638D02*
G01*
X8197042Y1644535D01*
X8197042Y1753638D02*
G01*
X8197042Y1644535D01*
X8162752Y1753638D02*
G01*
X8162752Y1644535D01*
X8162752Y1753638D02*
G01*
X8126384Y1753638D01*
X8110796Y1748444D01*
X8100405Y1738053D01*
X8095211Y1727662D01*
X8090014Y1712074D01*
X8090014Y1686097D01*
X8095211Y1670512D01*
X8100405Y1660121D01*
X8110796Y1649729D01*
X8126384Y1644535D01*
X8162752Y1644535D01*
X8585200Y2782338D02*
G01*
X8585200Y2704406D01*
X8580005Y2688821D01*
X8569614Y2678429D01*
X8554026Y2673235D01*
X8543635Y2673235D01*
X8528050Y2678429D01*
X8517658Y2688821D01*
X8512464Y2704406D01*
X8512464Y2782338D01*
X8478174Y2761556D02*
G01*
X8467783Y2766753D01*
X8452195Y2782338D01*
X8452195Y2673235D01*
X8417905Y2636865D02*
G01*
X8324387Y2636865D01*
X8284903Y2756362D02*
G01*
X8284903Y2761556D01*
X8279706Y2771947D01*
X8274512Y2777144D01*
X8264121Y2782338D01*
X8243338Y2782338D01*
X8232947Y2777144D01*
X8227753Y2771947D01*
X8222556Y2761556D01*
X8222556Y2751165D01*
X8227753Y2740774D01*
X8238144Y2725188D01*
X8290097Y2673235D01*
X8217362Y2673235D01*
X8120725Y2782338D02*
G01*
X8172681Y2782338D01*
X8177875Y2735579D01*
X8172681Y2740774D01*
X8157095Y2745971D01*
X8141507Y2745971D01*
X8125922Y2740774D01*
X8115531Y2730385D01*
X8110334Y2714797D01*
X8110334Y2704406D01*
X8115531Y2688821D01*
X8125922Y2678429D01*
X8141507Y2673235D01*
X8157095Y2673235D01*
X8172681Y2678429D01*
X8177875Y2683624D01*
X8183072Y2694015D01*
X8521700Y2287038D02*
G01*
X8521700Y2209106D01*
X8516505Y2193521D01*
X8506114Y2183129D01*
X8490526Y2177935D01*
X8480135Y2177935D01*
X8464550Y2183129D01*
X8454158Y2193521D01*
X8448964Y2209106D01*
X8448964Y2287038D01*
X8414674Y2266256D02*
G01*
X8404283Y2271453D01*
X8388695Y2287038D01*
X8388695Y2177935D01*
X8354405Y2141565D02*
G01*
X8260887Y2141565D01*
X8226597Y2266256D02*
G01*
X8216206Y2271453D01*
X8200621Y2287038D01*
X8200621Y2177935D01*
X8155940Y2287038D02*
G01*
X8098790Y2287038D01*
X8129963Y2245474D01*
X8114375Y2245474D01*
X8103984Y2240279D01*
X8098790Y2235085D01*
X8093595Y2219497D01*
X8093595Y2209106D01*
X8098790Y2193521D01*
X8109181Y2183129D01*
X8124766Y2177935D01*
X8140354Y2177935D01*
X8155940Y2183129D01*
X8161134Y2188324D01*
X8166331Y2198715D01*
X8534400Y2033038D02*
G01*
X8534400Y1955106D01*
X8529205Y1939521D01*
X8518814Y1929129D01*
X8503226Y1923935D01*
X8492835Y1923935D01*
X8477250Y1929129D01*
X8466858Y1939521D01*
X8461664Y1955106D01*
X8461664Y2033038D01*
X8427374Y2012256D02*
G01*
X8416983Y2017453D01*
X8401395Y2033038D01*
X8401395Y1923935D01*
X8367105Y1887565D02*
G01*
X8273587Y1887565D01*
X8239297Y2012256D02*
G01*
X8228906Y2017453D01*
X8213321Y2033038D01*
X8213321Y1923935D01*
X8173834Y2007062D02*
G01*
X8173834Y2012256D01*
X8168640Y2022647D01*
X8163445Y2027844D01*
X8153054Y2033038D01*
X8132272Y2033038D01*
X8121881Y2027844D01*
X8116684Y2022647D01*
X8111490Y2012256D01*
X8111490Y2001865D01*
X8116684Y1991474D01*
X8127075Y1975888D01*
X8179031Y1923935D01*
X8106295Y1923935D01*
X6830809Y-329692D02*
G01*
X6836143Y-319278D01*
X6846557Y-308863D01*
X6856717Y-303784D01*
X6877545Y-303784D01*
X6887959Y-308863D01*
X6898373Y-319278D01*
X6903707Y-329692D01*
X6908787Y-345439D01*
X6908787Y-371347D01*
X6903707Y-386842D01*
X6898373Y-397255D01*
X6887959Y-407670D01*
X6877545Y-412750D01*
X6856717Y-412750D01*
X6846557Y-407670D01*
X6836143Y-397255D01*
X6830809Y-386842D01*
X6723875Y-303784D02*
G01*
X6775691Y-412750D01*
X6796519Y-303784D02*
G01*
X6723875Y-303784D01*
X1028700Y813815D02*
G01*
X1028700Y704850D01*
X956055Y813815D02*
G01*
X956055Y704850D01*
X1028700Y762000D02*
G01*
X956055Y762000D01*
X921765Y792987D02*
G01*
X911352Y798321D01*
X895604Y813815D01*
X895604Y704850D01*
X1041400Y3188715D02*
G01*
X1041400Y3079750D01*
X968755Y3188715D02*
G01*
X968755Y3079750D01*
X1041400Y3136900D02*
G01*
X968755Y3136900D01*
X929131Y3162807D02*
G01*
X929131Y3167887D01*
X924052Y3178302D01*
X918718Y3183636D01*
X908304Y3188715D01*
X887729Y3188715D01*
X877315Y3183636D01*
X871981Y3178302D01*
X866902Y3167887D01*
X866902Y3157473D01*
X871981Y3147060D01*
X882395Y3131565D01*
X934465Y3079750D01*
X861568Y3079750D01*
X2844800Y1398015D02*
G01*
X2844800Y1289050D01*
X2772156Y1398015D02*
G01*
X2772156Y1289050D01*
X2844800Y1346200D02*
G01*
X2772156Y1346200D01*
X2727452Y1398015D02*
G01*
X2670302Y1398015D01*
X2701290Y1356360D01*
X2685795Y1356360D01*
X2675381Y1351279D01*
X2670302Y1346200D01*
X2664968Y1330452D01*
X2664968Y1320037D01*
X2670302Y1304544D01*
X2680715Y1294129D01*
X2696209Y1289050D01*
X2711704Y1289050D01*
X2727452Y1294129D01*
X2732531Y1299210D01*
X2737865Y1309623D01*
X4379711Y2502407D02*
G01*
X4385045Y2512821D01*
X4395459Y2523236D01*
X4405619Y2528315D01*
X4426447Y2528315D01*
X4436861Y2523236D01*
X4447275Y2512821D01*
X4452609Y2502407D01*
X4457689Y2486660D01*
X4457689Y2460752D01*
X4452609Y2445257D01*
X4447275Y2434844D01*
X4436861Y2424429D01*
X4426447Y2419350D01*
X4405619Y2419350D01*
X4395459Y2424429D01*
X4385045Y2434844D01*
X4379711Y2445257D01*
X4283191Y2528315D02*
G01*
X4335007Y2528315D01*
X4340341Y2481579D01*
X4335007Y2486660D01*
X4319513Y2491994D01*
X4304019Y2491994D01*
X4288271Y2486660D01*
X4277857Y2476500D01*
X4272777Y2460752D01*
X4272777Y2450337D01*
X4277857Y2434844D01*
X4288271Y2424429D01*
X4304019Y2419350D01*
X4319513Y2419350D01*
X4335007Y2424429D01*
X4340341Y2429510D01*
X4345421Y2439923D01*
X6399784Y738797D02*
G01*
X6508750Y738797D01*
X6508750Y738797D02*
G01*
X6508750Y676567D01*
X6399784Y590207D02*
G01*
X6472427Y642277D01*
X6472427Y564299D01*
X6399784Y590207D02*
G01*
X6508750Y590207D01*
X7496556Y-2160778D02*
G01*
X7506970Y-2150363D01*
X7522463Y-2145284D01*
X7543291Y-2145284D01*
X7558786Y-2150363D01*
X7569200Y-2160778D01*
X7569200Y-2171192D01*
X7564120Y-2181605D01*
X7558786Y-2186939D01*
X7548372Y-2192020D01*
X7517129Y-2202434D01*
X7506970Y-2207513D01*
X7501636Y-2212847D01*
X7496556Y-2223262D01*
X7496556Y-2238755D01*
X7506970Y-2249170D01*
X7522463Y-2254250D01*
X7543291Y-2254250D01*
X7558786Y-2249170D01*
X7569200Y-2238755D01*
X7425690Y-2145284D02*
G01*
X7425690Y-2254250D01*
X7462265Y-2145284D02*
G01*
X7389368Y-2145284D01*
X7355077Y-2166112D02*
G01*
X7344663Y-2160778D01*
X7329170Y-2145284D01*
X7329170Y-2254250D01*
X7199884Y2396299D02*
G01*
X7277861Y2396299D01*
X7293356Y2391219D01*
X7303770Y2380805D01*
X7308850Y2365057D01*
X7308850Y2354643D01*
X7303770Y2339149D01*
X7293356Y2328735D01*
X7277861Y2323655D01*
X7199884Y2323655D01*
X7215377Y2226881D02*
G01*
X7204963Y2232215D01*
X7199884Y2247709D01*
X7199884Y2258123D01*
X7204963Y2273617D01*
X7220711Y2284031D01*
X7246620Y2289365D01*
X7272527Y2289365D01*
X7293356Y2284031D01*
X7303770Y2273617D01*
X7308850Y2258123D01*
X7308850Y2252789D01*
X7303770Y2237295D01*
X7293356Y2226881D01*
X7277861Y2221801D01*
X7272527Y2221801D01*
X7257034Y2226881D01*
X7246620Y2237295D01*
X7241540Y2252789D01*
X7241540Y2258123D01*
X7246620Y2273617D01*
X7257034Y2284031D01*
X7272527Y2289365D01*
X4178490Y-1246784D02*
G01*
X4178490Y-1324762D01*
X4173410Y-1340256D01*
X4162996Y-1350670D01*
X4147248Y-1355750D01*
X4136834Y-1355750D01*
X4121340Y-1350670D01*
X4110926Y-1340256D01*
X4105846Y-1324762D01*
X4105846Y-1246784D01*
X3998658Y-1246784D02*
G01*
X4050728Y-1355750D01*
X4071556Y-1246784D02*
G01*
X3998658Y-1246784D01*
X4471415Y-1130300D02*
G01*
X4362450Y-1057655D01*
X4471415Y-1057655D02*
G01*
X4362450Y-1130300D01*
X4450588Y-1023365D02*
G01*
X4455922Y-1012952D01*
X4471415Y-997204D01*
X4362450Y-997204D01*
G36*
X7640675Y-144576D02*
G01*
X7640675Y-1074572D01*
X7685684Y-1059586D01*
X7725714Y-1029614D01*
X7785709Y-994613D01*
X7845704Y-954582D01*
X7900720Y-899617D01*
X7925714Y-854608D01*
X7955686Y-789584D01*
X7970723Y-734618D01*
X7765694Y-734618D01*
X7765694Y-504596D01*
X7980680Y-504596D01*
X7965694Y-449580D01*
X7950708Y-414578D01*
X7925714Y-374599D01*
X7890713Y-314604D01*
X7860690Y-274624D01*
X7830718Y-254609D01*
X7795717Y-219608D01*
X7745679Y-189585D01*
X7685684Y-164592D01*
G37*
G36*
X4206240Y2367280D02*
G01*
X4208780Y1910080D01*
X4236720Y1910080D01*
X4236720Y2362200D01*
G37*
D12*
X8020697Y-94589D02*
G01*
X7105688Y-94589D01*
X8020697Y-1124610D02*
G01*
X7105688Y-1124610D01*
X6990676Y-209600D02*
G01*
X7105688Y-94589D01*
X6990676Y-1009599D02*
G01*
X7105688Y-1124610D01*
X8020697Y-1124610D02*
G01*
X8020697Y-707715D01*
X8020697Y-511484D02*
G01*
X8020697Y-94589D01*
X6990676Y-1009599D02*
G01*
X6990676Y-707715D01*
X6990676Y-511484D02*
G01*
X6990676Y-209600D01*
X1104900Y1158052D02*
G01*
X1104900Y1917700D01*
X850900Y1917700D01*
X850900Y901700D01*
X1104900Y901700D01*
X1104900Y1158052D01*
X1104900Y1158052D02*
G01*
X850900Y1158052D01*
X1104900Y2275652D02*
G01*
X1104900Y3035300D01*
X850900Y3035300D01*
X850900Y2019300D01*
X1104900Y2019300D01*
X1104900Y2275652D01*
X1104900Y2275652D02*
G01*
X850900Y2275652D01*
X2628900Y1016000D02*
G01*
X1358900Y1016000D01*
X2628900Y1270000D02*
G01*
X2374900Y1270706D01*
X2374900Y1016000D01*
X2628900Y1524000D02*
G01*
X1358900Y1524000D01*
X2628900Y1524000D02*
G01*
X2628900Y1016000D01*
X1358900Y1524000D02*
G01*
X1358900Y1016000D01*
X4761499Y2363599D02*
G01*
X4001500Y2363599D01*
X4761499Y1903600D02*
G01*
X4001500Y1903600D01*
X4761499Y2363599D02*
G01*
X4761499Y2281715D01*
X4761499Y1985484D02*
G01*
X4761499Y1903600D01*
X4001500Y2363599D02*
G01*
X4001500Y2281715D01*
X4001500Y1985484D02*
G01*
X4001500Y1903600D01*
X6545503Y1353898D02*
G01*
X6545501Y93901D01*
X7805496Y1353898D02*
G01*
X7805498Y93901D01*
X6545503Y1353898D02*
G01*
X6877385Y1353898D01*
X7473614Y1353898D02*
G01*
X7805496Y1353898D01*
X6545501Y93901D02*
G01*
X6877385Y93901D01*
X7473614Y93901D02*
G01*
X7805498Y93901D01*
X6942200Y-1403807D02*
G01*
X7942199Y-1403807D01*
X6941667Y-2018233D02*
G01*
X6902195Y-2035599D01*
X6902195Y-1935599D01*
X6941667Y-1955292D01*
X6942200Y-2085599D02*
G01*
X7942199Y-2085599D01*
X6942200Y-2085599D02*
G01*
X6942200Y-1325600D01*
X7942199Y-2085599D02*
G01*
X7942199Y-1325600D01*
X6942200Y-1325600D02*
G01*
X7942199Y-1325600D01*
X6942200Y-1865680D02*
G01*
X7942199Y-1865680D01*
X7430803Y2224074D02*
G01*
X7350793Y2224074D01*
X7350793Y2088438D01*
X7430803Y2088438D01*
X7430803Y2663134D02*
G01*
X7350793Y2663134D01*
X7350793Y2527498D01*
X7430803Y2527498D01*
X7430770Y2440495D02*
G01*
X7350759Y2440495D01*
X7350759Y2304859D01*
X7430770Y2304859D01*
X7430803Y3244898D02*
G01*
X8030799Y3244898D01*
X8030799Y1504899D01*
X7430803Y1504899D01*
X7430803Y3244898D02*
G01*
X7430803Y1499903D01*
X4527895Y-2089899D02*
G01*
X4527895Y-1389898D01*
X4527897Y-1389900D02*
G01*
X3777899Y-1389900D01*
X3777902Y-2089899D02*
G01*
X4527895Y-2089899D01*
X3777899Y-1389900D02*
G01*
X3777899Y-2089899D01*
X4318000Y-1257300D02*
G01*
X4318000Y-952500D01*
X3429000Y-952500D01*
X3429000Y-1257300D01*
X4318000Y-1257300D01*
G75*
G01*
X7975699Y-729600D02*
G02*
X7044279Y-724195I-465001J124997D01*
G75*
G01*
X7040702Y-509600D02*
G02*
X7978783Y-500581I469997J-94996D01*
G75*
G01*
X6858000Y292100D02*
G02*
X6860261Y1157354I317498J431800D01*
G75*
G01*
X7493000Y1155700D02*
G02*
X7490739Y290446I-317502J-431800D01*
G75*
G01*
X6835153Y1143617D02*
G03*
X6695453Y965817I-69850J-88900D01*
G75*
G01*
X6705600Y431800D02*
G03*
X6832600Y292100I63500J-69850D01*
G75*
G01*
X7512121Y306835D02*
G03*
X7650734Y476415I69032J85014D01*
G75*
G01*
X7670800Y952500D02*
G03*
X7520704Y1138982I-79184J89912D01*
G75*
G01
X4227881Y-1739900D02*
G03X4227881Y-1739900I-75006J0D01*
D13*
G75*
G01
X4586986Y-1473200D02*
G03X4586986Y-1473200I-15011J0D01*
M02*
