G04 Layer: TopLayer*
G04 EasyEDA v6.5.54, 2026-03-25 16:45:29*
G04 ca3c6d9d75d44d9f837d8ccaf28c5f28,dab029622f68425ca1211968fdfe3d34,10*
G04 Gerber Generator version 0.2*
G04 Scale: 100 percent, Rotated: No, Reflected: No *
G04 Dimensions in millimeters *
G04 leading zeros omitted , absolute positions ,4 integer and 5 decimal *
%FSLAX45Y45*%
%MOMM*%

%AMMACRO1*21,1,$1,$2,0,0,$3*%
%ADD10C,0.2540*%
%ADD11C,0.5000*%
%ADD12C,0.2000*%
%ADD13C,0.6000*%
%ADD14C,1.0000*%
%ADD15R,0.8000X0.9000*%
%ADD16R,0.9000X0.8000*%
%ADD17R,1.2000X1.9500*%
%ADD18R,1.9500X1.2000*%
%ADD19R,0.0135X1.2000*%
%ADD20R,1.2000X1.4000*%
%ADD21R,3.3000X1.7800*%
%ADD22O,0.599999X1.799996*%
%ADD23R,0.8999X1.0000*%
%ADD24R,1.0000X1.5500*%
%ADD25R,0.4064X0.3505*%
%ADD26MACRO1,0.35X0.4064X90.0000*%
%ADD27C,10.5000*%
%ADD28O,0.270002X1.499997*%
%ADD29O,1.499997X0.270002*%
%ADD30O,1.629994X0.399999*%
%ADD31O,0.599999X1.520012*%
%ADD32O,2.250008X0.629996*%
%ADD33MACRO1,1.7X1.7X90.0000*%
%ADD34C,1.7000*%
%ADD35MACRO1,1.6998X1.6998X0.0000*%
%ADD36C,2.0000*%
%ADD37MACRO1,1.7X1.7X-90.0000*%
%ADD38C,1.2700*%
%ADD39O,2.8956X1.778*%
%ADD40C,0.8000*%

%LPD*%
G36*
X2326132Y793394D02*
G01*
X2322220Y794156D01*
X2318969Y796340D01*
X2072335Y1042924D01*
X2068830Y1045819D01*
X2066137Y1049223D01*
X2065121Y1053439D01*
X2065934Y1057706D01*
X2068423Y1061212D01*
X2073554Y1065834D01*
X2082749Y1076655D01*
X2090521Y1088593D01*
X2096668Y1101394D01*
X2101138Y1114856D01*
X2103882Y1128826D01*
X2104796Y1143000D01*
X2103882Y1157173D01*
X2101138Y1171143D01*
X2096668Y1184605D01*
X2090521Y1197406D01*
X2082749Y1209344D01*
X2073554Y1220165D01*
X2063038Y1229715D01*
X2051405Y1237843D01*
X2038807Y1244396D01*
X2025446Y1249324D01*
X2019147Y1250746D01*
X2016506Y1251762D01*
X2014220Y1253439D01*
X1948027Y1319682D01*
X1945843Y1322984D01*
X1945030Y1326845D01*
X1945030Y1348130D01*
X1923745Y1348130D01*
X1919884Y1348943D01*
X1916582Y1351127D01*
X1908505Y1359204D01*
X1906270Y1362506D01*
X1905507Y1366418D01*
X1905507Y1435709D01*
X1906270Y1439570D01*
X1908505Y1442872D01*
X1911756Y1445056D01*
X1915668Y1445869D01*
X1945030Y1445869D01*
X1945030Y1496415D01*
X1942592Y1495298D01*
X1930450Y1487932D01*
X1921713Y1480972D01*
X1917801Y1479042D01*
X1913483Y1478940D01*
X1909521Y1480616D01*
X1906574Y1483817D01*
X1905254Y1487932D01*
X1904695Y1493418D01*
X1902510Y1500632D01*
X1898954Y1507337D01*
X1893824Y1513535D01*
X1799640Y1607769D01*
X1797456Y1611020D01*
X1796694Y1614932D01*
X1797456Y1618843D01*
X1799640Y1622094D01*
X1802942Y1624330D01*
X1806854Y1625092D01*
X1876907Y1625092D01*
X1880819Y1624330D01*
X1884121Y1622094D01*
X2039772Y1466443D01*
X2041956Y1463141D01*
X2042769Y1459280D01*
X2042769Y1445869D01*
X2056180Y1445869D01*
X2060041Y1445056D01*
X2063343Y1442872D01*
X2079294Y1426921D01*
X2081530Y1423619D01*
X2082292Y1419707D01*
X2082292Y1358290D01*
X2081530Y1354429D01*
X2079294Y1351127D01*
X2076043Y1348943D01*
X2072132Y1348130D01*
X2042769Y1348130D01*
X2042769Y1297686D01*
X2051405Y1302156D01*
X2063038Y1310284D01*
X2065324Y1312367D01*
X2068626Y1314399D01*
X2072436Y1315008D01*
X2076246Y1314145D01*
X2079447Y1311910D01*
X2081530Y1308658D01*
X2082292Y1304848D01*
X2082292Y1270508D01*
X2083104Y1262481D01*
X2085289Y1255268D01*
X2088845Y1248562D01*
X2093975Y1242364D01*
X2142439Y1193850D01*
X2144623Y1190599D01*
X2145385Y1186738D01*
X2144674Y1182878D01*
X2142642Y1177950D01*
X2139035Y1164183D01*
X2137257Y1150112D01*
X2137257Y1135888D01*
X2139035Y1121816D01*
X2142642Y1108049D01*
X2147976Y1094892D01*
X2154986Y1082497D01*
X2163470Y1071118D01*
X2173325Y1060907D01*
X2184450Y1052068D01*
X2196592Y1044702D01*
X2209596Y1038910D01*
X2223211Y1034897D01*
X2237232Y1032611D01*
X2251456Y1032154D01*
X2265578Y1033526D01*
X2279446Y1036675D01*
X2292807Y1041603D01*
X2305405Y1048156D01*
X2317038Y1056284D01*
X2319324Y1058367D01*
X2322626Y1060399D01*
X2326436Y1061008D01*
X2330246Y1060145D01*
X2333447Y1057910D01*
X2335530Y1054658D01*
X2336292Y1050848D01*
X2336292Y803554D01*
X2335530Y799642D01*
X2333294Y796340D01*
X2330043Y794156D01*
G37*

%LPD*%
G36*
X5230368Y-3810000D02*
G01*
X5226456Y-3809237D01*
X5223205Y-3807002D01*
X5220970Y-3803751D01*
X5220208Y-3799840D01*
X5220208Y-1035050D01*
X5220970Y-1031189D01*
X5223205Y-1027887D01*
X5226456Y-1025702D01*
X5230368Y-1024890D01*
X5238750Y-1024890D01*
X5245049Y-1024178D01*
X5250535Y-1022299D01*
X5255412Y-1019200D01*
X5259527Y-1015136D01*
X5262575Y-1010208D01*
X5264505Y-1004773D01*
X5265216Y-998423D01*
X5265216Y-919581D01*
X5264505Y-913231D01*
X5262575Y-907796D01*
X5259527Y-902868D01*
X5255412Y-898804D01*
X5253532Y-897585D01*
X5250586Y-894791D01*
X5248960Y-891032D01*
X5248960Y-886968D01*
X5250586Y-883208D01*
X5253532Y-880414D01*
X5255412Y-879195D01*
X5259527Y-875131D01*
X5262575Y-870203D01*
X5264505Y-864768D01*
X5265216Y-858418D01*
X5265216Y-779576D01*
X5264505Y-773277D01*
X5262575Y-767791D01*
X5259527Y-762914D01*
X5255412Y-758799D01*
X5250535Y-755700D01*
X5245049Y-753821D01*
X5238750Y-753110D01*
X5230368Y-753110D01*
X5226456Y-752348D01*
X5223205Y-750112D01*
X5220970Y-746810D01*
X5220208Y-742950D01*
X5220208Y-185572D01*
X5220970Y-181711D01*
X5223205Y-178409D01*
X5224373Y-177190D01*
X5229961Y-169214D01*
X5234076Y-160375D01*
X5235295Y-155956D01*
X5237327Y-152044D01*
X5240782Y-149402D01*
X5245100Y-148437D01*
X5249418Y-149402D01*
X5252872Y-152044D01*
X5254904Y-155956D01*
X5256123Y-160375D01*
X5260238Y-169214D01*
X5265826Y-177190D01*
X5269179Y-181406D01*
X5270093Y-184759D01*
X5270804Y-191516D01*
X5272989Y-198729D01*
X5276545Y-205435D01*
X5281676Y-211632D01*
X5399836Y-329793D01*
X5402021Y-333095D01*
X5402783Y-337007D01*
X5402783Y-388518D01*
X5403494Y-394868D01*
X5405424Y-400304D01*
X5408472Y-405231D01*
X5412587Y-409295D01*
X5414467Y-410514D01*
X5417413Y-413308D01*
X5419039Y-417068D01*
X5419039Y-421132D01*
X5417413Y-424891D01*
X5414467Y-427685D01*
X5412587Y-428904D01*
X5408472Y-432968D01*
X5405424Y-437896D01*
X5403494Y-443331D01*
X5402783Y-449681D01*
X5402783Y-528523D01*
X5403494Y-534873D01*
X5405424Y-540308D01*
X5408472Y-545236D01*
X5412587Y-549300D01*
X5417464Y-552399D01*
X5422950Y-554278D01*
X5429250Y-554990D01*
X5480812Y-554990D01*
X5484672Y-555802D01*
X5487974Y-557987D01*
X5494680Y-564692D01*
X5496915Y-568045D01*
X5497677Y-572008D01*
X5496814Y-575919D01*
X5494528Y-579221D01*
X5491073Y-581355D01*
X5487111Y-582015D01*
X5483758Y-581863D01*
X5473242Y-583133D01*
X5463032Y-586130D01*
X5453481Y-590651D01*
X5444744Y-596696D01*
X5437073Y-604012D01*
X5430723Y-612495D01*
X5425795Y-621893D01*
X5422442Y-631952D01*
X5420766Y-642366D01*
X5420817Y-654354D01*
X5420106Y-658317D01*
X5417870Y-661619D01*
X5357876Y-721664D01*
X5352745Y-727862D01*
X5349189Y-734568D01*
X5347004Y-741781D01*
X5346750Y-744270D01*
X5345836Y-747623D01*
X5343855Y-750417D01*
X5341061Y-752449D01*
X5337759Y-753364D01*
X5334050Y-753821D01*
X5328564Y-755700D01*
X5323687Y-758799D01*
X5319572Y-762863D01*
X5316524Y-767791D01*
X5314594Y-773226D01*
X5313883Y-779576D01*
X5313883Y-858418D01*
X5314594Y-864768D01*
X5316524Y-870203D01*
X5319572Y-875131D01*
X5323687Y-879195D01*
X5325567Y-880414D01*
X5328513Y-883208D01*
X5330139Y-886968D01*
X5330139Y-891032D01*
X5328513Y-894791D01*
X5325567Y-897585D01*
X5323687Y-898804D01*
X5319572Y-902868D01*
X5316524Y-907796D01*
X5314594Y-913231D01*
X5313883Y-919581D01*
X5313883Y-932637D01*
X5355945Y-932637D01*
X5355945Y-895045D01*
X5356707Y-891184D01*
X5358942Y-887882D01*
X5362244Y-885698D01*
X5366105Y-884885D01*
X5403494Y-884885D01*
X5407355Y-885698D01*
X5410657Y-887882D01*
X5412892Y-891184D01*
X5413654Y-895045D01*
X5413654Y-932637D01*
X5455716Y-932637D01*
X5455716Y-919581D01*
X5455005Y-913231D01*
X5453075Y-907796D01*
X5450027Y-902868D01*
X5445912Y-898804D01*
X5444032Y-897585D01*
X5441086Y-894791D01*
X5439460Y-891032D01*
X5439460Y-886968D01*
X5441086Y-883208D01*
X5444032Y-880414D01*
X5445912Y-879195D01*
X5450027Y-875131D01*
X5453075Y-870203D01*
X5455005Y-864768D01*
X5455716Y-858418D01*
X5455716Y-779576D01*
X5455005Y-773226D01*
X5453075Y-767791D01*
X5450027Y-762863D01*
X5445099Y-757986D01*
X5442915Y-754684D01*
X5442153Y-750824D01*
X5442915Y-746912D01*
X5445099Y-743610D01*
X5472582Y-716076D01*
X5475071Y-714298D01*
X5477967Y-713282D01*
X5483758Y-713536D01*
X5494324Y-713079D01*
X5504738Y-710996D01*
X5519369Y-705510D01*
X5523585Y-705916D01*
X5527243Y-708050D01*
X5529732Y-711454D01*
X5530596Y-715619D01*
X5530596Y-3422396D01*
X5531408Y-3430422D01*
X5533593Y-3437636D01*
X5537149Y-3444341D01*
X5542280Y-3450539D01*
X5884367Y-3792677D01*
X5886551Y-3795928D01*
X5887313Y-3799840D01*
X5886551Y-3803751D01*
X5884367Y-3807002D01*
X5881065Y-3809237D01*
X5877153Y-3810000D01*
X5420868Y-3810000D01*
X5416956Y-3809237D01*
X5413705Y-3807002D01*
X5411470Y-3803751D01*
X5410708Y-3799840D01*
X5410708Y-2699664D01*
X5411673Y-2695295D01*
X5414467Y-2691790D01*
X5417718Y-2689098D01*
X5424779Y-2681173D01*
X5430418Y-2672232D01*
X5434584Y-2662478D01*
X5437124Y-2652166D01*
X5437987Y-2641600D01*
X5437124Y-2631033D01*
X5434584Y-2620721D01*
X5430418Y-2610967D01*
X5424779Y-2602026D01*
X5417718Y-2594102D01*
X5409539Y-2587396D01*
X5400344Y-2582062D01*
X5390438Y-2578303D01*
X5380024Y-2576220D01*
X5369458Y-2575763D01*
X5358942Y-2577033D01*
X5348732Y-2580030D01*
X5339181Y-2584551D01*
X5330444Y-2590596D01*
X5322773Y-2597912D01*
X5316423Y-2606395D01*
X5311495Y-2615793D01*
X5308142Y-2625852D01*
X5306415Y-2636316D01*
X5306415Y-2646883D01*
X5308142Y-2657348D01*
X5311495Y-2667406D01*
X5316423Y-2676804D01*
X5322773Y-2685288D01*
X5330393Y-2692552D01*
X5332679Y-2695905D01*
X5333492Y-2699867D01*
X5333492Y-3799840D01*
X5332730Y-3803751D01*
X5330494Y-3807002D01*
X5327243Y-3809237D01*
X5323332Y-3810000D01*
G37*

%LPC*%
G36*
X5413654Y-1024890D02*
G01*
X5429250Y-1024890D01*
X5435549Y-1024178D01*
X5441035Y-1022299D01*
X5445912Y-1019200D01*
X5450027Y-1015085D01*
X5453075Y-1010208D01*
X5455005Y-1004722D01*
X5455716Y-998423D01*
X5455716Y-985367D01*
X5413654Y-985367D01*
G37*
G36*
X5340350Y-1024890D02*
G01*
X5355945Y-1024890D01*
X5355945Y-985367D01*
X5313883Y-985367D01*
X5313883Y-998423D01*
X5314594Y-1004722D01*
X5316524Y-1010208D01*
X5319572Y-1015085D01*
X5323687Y-1019200D01*
X5328564Y-1022299D01*
X5334050Y-1024178D01*
G37*

%LPD*%
G36*
X1179068Y-3810000D02*
G01*
X1175156Y-3809237D01*
X1171905Y-3807002D01*
X1169670Y-3803751D01*
X1168908Y-3799840D01*
X1168908Y-3707637D01*
X1168095Y-3699611D01*
X1165910Y-3692398D01*
X1162354Y-3685692D01*
X1157224Y-3679494D01*
X818083Y-3340303D01*
X815848Y-3337001D01*
X815086Y-3333089D01*
X815086Y2147417D01*
X815848Y2151329D01*
X818083Y2154631D01*
X849630Y2186228D01*
X852932Y2188413D01*
X856843Y2189175D01*
X860704Y2188413D01*
X864006Y2186228D01*
X866241Y2182926D01*
X867003Y2179015D01*
X867003Y2061870D01*
X867714Y2055571D01*
X869594Y2050084D01*
X872693Y2045207D01*
X876808Y2041093D01*
X881684Y2037994D01*
X887171Y2036114D01*
X893470Y2035403D01*
X1062329Y2035403D01*
X1068628Y2036114D01*
X1074115Y2037994D01*
X1078992Y2041093D01*
X1083106Y2045207D01*
X1086205Y2050084D01*
X1088085Y2055571D01*
X1088796Y2061870D01*
X1088796Y2097532D01*
X1089558Y2101443D01*
X1091793Y2104694D01*
X1095095Y2106930D01*
X1098956Y2107692D01*
X1843024Y2107692D01*
X1846935Y2106930D01*
X1850237Y2104694D01*
X2447086Y1507896D01*
X2449169Y1504848D01*
X2450033Y1501292D01*
X2449576Y1497685D01*
X2447899Y1494434D01*
X2445156Y1491996D01*
X2438450Y1487932D01*
X2427325Y1479092D01*
X2423464Y1475079D01*
X2420366Y1472895D01*
X2416657Y1472031D01*
X2412898Y1472539D01*
X2409596Y1474419D01*
X2401824Y1484071D01*
X2068271Y1817624D01*
X2062073Y1822754D01*
X2055418Y1826310D01*
X2048154Y1828495D01*
X2040128Y1829307D01*
X1088440Y1829307D01*
X1084630Y1830070D01*
X1081379Y1832152D01*
X1079144Y1835353D01*
X1076198Y1842007D01*
X1068832Y1854149D01*
X1059992Y1865274D01*
X1049782Y1875129D01*
X1038402Y1883613D01*
X1026007Y1890623D01*
X1012850Y1895957D01*
X999083Y1899564D01*
X985012Y1901342D01*
X970787Y1901342D01*
X956716Y1899564D01*
X942949Y1895957D01*
X929792Y1890623D01*
X917397Y1883613D01*
X906018Y1875129D01*
X895807Y1865274D01*
X886968Y1854149D01*
X879602Y1842007D01*
X873861Y1829003D01*
X869797Y1815388D01*
X867511Y1801368D01*
X867054Y1787143D01*
X868426Y1773021D01*
X871575Y1759153D01*
X876503Y1745792D01*
X883056Y1733194D01*
X891184Y1721561D01*
X900734Y1711045D01*
X911555Y1701850D01*
X923493Y1694078D01*
X936294Y1687931D01*
X949756Y1683461D01*
X963726Y1680718D01*
X977900Y1679803D01*
X992073Y1680718D01*
X1006043Y1683461D01*
X1019505Y1687931D01*
X1032306Y1694078D01*
X1044244Y1701850D01*
X1055065Y1711045D01*
X1064615Y1721561D01*
X1072743Y1733194D01*
X1079652Y1746605D01*
X1081938Y1749501D01*
X1085088Y1751431D01*
X1088694Y1752092D01*
X2020417Y1752092D01*
X2024329Y1751330D01*
X2027631Y1749094D01*
X2251760Y1524965D01*
X2253945Y1521714D01*
X2254758Y1517904D01*
X2254046Y1514043D01*
X2251913Y1510741D01*
X2248712Y1508506D01*
X2244902Y1507642D01*
X2237232Y1507388D01*
X2223211Y1505102D01*
X2209596Y1501038D01*
X2196592Y1495298D01*
X2184450Y1487932D01*
X2173325Y1479092D01*
X2163267Y1468577D01*
X2160016Y1465783D01*
X2155850Y1464564D01*
X2151583Y1465173D01*
X2147925Y1467510D01*
X1924761Y1690624D01*
X1918563Y1695754D01*
X1911857Y1699310D01*
X1904644Y1701495D01*
X1896618Y1702307D01*
X1346708Y1702307D01*
X1338681Y1701495D01*
X1331468Y1699310D01*
X1324762Y1695754D01*
X1318564Y1690624D01*
X1192276Y1564335D01*
X1187145Y1558137D01*
X1183589Y1551432D01*
X1181404Y1544218D01*
X1180592Y1536192D01*
X1180592Y1166164D01*
X1179779Y1162202D01*
X1177493Y1158900D01*
X1174140Y1156716D01*
X1170127Y1156004D01*
X1162913Y1156208D01*
X1159205Y1157020D01*
X1156004Y1159205D01*
X1083360Y1231798D01*
X1081227Y1234998D01*
X1080414Y1238758D01*
X1081024Y1242517D01*
X1084224Y1251153D01*
X1087374Y1265021D01*
X1088745Y1279144D01*
X1088288Y1293368D01*
X1086002Y1307388D01*
X1081989Y1321003D01*
X1076198Y1334008D01*
X1068832Y1346149D01*
X1059992Y1357274D01*
X1049782Y1367129D01*
X1038402Y1375613D01*
X1026007Y1382623D01*
X1012850Y1387957D01*
X999083Y1391564D01*
X985012Y1393342D01*
X970787Y1393342D01*
X956716Y1391564D01*
X942949Y1387957D01*
X929792Y1382623D01*
X917397Y1375613D01*
X906018Y1367129D01*
X895807Y1357274D01*
X886968Y1346149D01*
X879602Y1334008D01*
X873861Y1321003D01*
X869797Y1307388D01*
X867511Y1293368D01*
X867054Y1279144D01*
X868426Y1265021D01*
X871575Y1251153D01*
X876503Y1237792D01*
X883056Y1225194D01*
X891184Y1213561D01*
X900734Y1203045D01*
X911555Y1193850D01*
X923493Y1186078D01*
X936294Y1179931D01*
X949756Y1175461D01*
X963726Y1172718D01*
X977900Y1171803D01*
X992073Y1172718D01*
X1006043Y1175461D01*
X1018489Y1179576D01*
X1022197Y1180084D01*
X1025804Y1179220D01*
X1028903Y1177137D01*
X1049070Y1156970D01*
X1051255Y1153668D01*
X1052017Y1149756D01*
X1051255Y1145895D01*
X1049070Y1142593D01*
X1045768Y1140358D01*
X1041857Y1139596D01*
X893470Y1139596D01*
X887171Y1138885D01*
X881684Y1137005D01*
X876808Y1133906D01*
X872693Y1129792D01*
X869594Y1124915D01*
X867714Y1119428D01*
X867003Y1113129D01*
X867003Y944270D01*
X867714Y937971D01*
X869594Y932484D01*
X872693Y927608D01*
X876808Y923493D01*
X881684Y920394D01*
X887171Y918514D01*
X893470Y917803D01*
X991920Y917803D01*
X995781Y917041D01*
X999083Y914806D01*
X2204770Y-290830D01*
X2210968Y-295960D01*
X2217978Y-299720D01*
X2220925Y-302056D01*
X2222754Y-305308D01*
X2223312Y-309067D01*
X2222500Y-312724D01*
X2220366Y-315823D01*
X1687575Y-848664D01*
X1682445Y-854862D01*
X1678889Y-861568D01*
X1676704Y-868781D01*
X1675892Y-876808D01*
X1675892Y-1541932D01*
X1675079Y-1545894D01*
X1672793Y-1549247D01*
X1665173Y-1556512D01*
X1658823Y-1564995D01*
X1653895Y-1574393D01*
X1650542Y-1584452D01*
X1648815Y-1594916D01*
X1648815Y-1605483D01*
X1650542Y-1615948D01*
X1653895Y-1626006D01*
X1658823Y-1635404D01*
X1665173Y-1643888D01*
X1672843Y-1651203D01*
X1681581Y-1657248D01*
X1691132Y-1661769D01*
X1701342Y-1664766D01*
X1711858Y-1666036D01*
X1722424Y-1665579D01*
X1732838Y-1663496D01*
X1742744Y-1659737D01*
X1751939Y-1654403D01*
X1760118Y-1647698D01*
X1767179Y-1639773D01*
X1772818Y-1630832D01*
X1776984Y-1621078D01*
X1779524Y-1610766D01*
X1780387Y-1600200D01*
X1779524Y-1589633D01*
X1776984Y-1579321D01*
X1772818Y-1569567D01*
X1767179Y-1560626D01*
X1760118Y-1552702D01*
X1756867Y-1550009D01*
X1754073Y-1546504D01*
X1753107Y-1542135D01*
X1753107Y-896518D01*
X1753870Y-892606D01*
X1756105Y-889304D01*
X2289911Y-355498D01*
X2293213Y-353263D01*
X2297125Y-352501D01*
X2349652Y-352501D01*
X2353564Y-353263D01*
X2356866Y-355498D01*
X2359050Y-358749D01*
X2359812Y-362661D01*
X2359050Y-366572D01*
X2356866Y-369824D01*
X2182876Y-543864D01*
X2177745Y-550062D01*
X2174189Y-556768D01*
X2172004Y-563981D01*
X2171192Y-572008D01*
X2171192Y-830732D01*
X2170379Y-834694D01*
X2168093Y-838047D01*
X2160473Y-845312D01*
X2154123Y-853795D01*
X2149195Y-863193D01*
X2145842Y-873252D01*
X2144115Y-883716D01*
X2144115Y-894283D01*
X2145842Y-904748D01*
X2149195Y-914806D01*
X2154123Y-924204D01*
X2160473Y-932687D01*
X2168144Y-940003D01*
X2176881Y-946048D01*
X2186432Y-950569D01*
X2196642Y-953566D01*
X2207158Y-954836D01*
X2217724Y-954379D01*
X2228138Y-952296D01*
X2238044Y-948537D01*
X2247239Y-943203D01*
X2255418Y-936498D01*
X2262479Y-928573D01*
X2268118Y-919632D01*
X2272284Y-909878D01*
X2274824Y-899566D01*
X2275687Y-889000D01*
X2274824Y-878433D01*
X2272284Y-868121D01*
X2268118Y-858367D01*
X2262479Y-849426D01*
X2255418Y-841502D01*
X2252167Y-838809D01*
X2249373Y-835304D01*
X2248408Y-830935D01*
X2248408Y-591718D01*
X2249170Y-587806D01*
X2251405Y-584504D01*
X2430424Y-405485D01*
X2433726Y-403301D01*
X2437587Y-402539D01*
X2794762Y-402539D01*
X2803296Y-403301D01*
X2925318Y-403301D01*
X2933496Y-402488D01*
X2940862Y-400253D01*
X2947670Y-396646D01*
X2953664Y-391718D01*
X2958541Y-385775D01*
X2962198Y-378968D01*
X2964434Y-371602D01*
X2965196Y-363880D01*
X2964434Y-356209D01*
X2962198Y-348843D01*
X2959404Y-343662D01*
X2958338Y-340512D01*
X2958338Y-337210D01*
X2959404Y-334111D01*
X2962148Y-328930D01*
X2964383Y-321564D01*
X2965145Y-313893D01*
X2964383Y-306222D01*
X2962148Y-298805D01*
X2959404Y-293674D01*
X2958338Y-290576D01*
X2958338Y-287274D01*
X2959404Y-284124D01*
X2962198Y-278942D01*
X2964434Y-271576D01*
X2965196Y-263906D01*
X2964434Y-256235D01*
X2962198Y-248818D01*
X2959404Y-243687D01*
X2958338Y-240538D01*
X2958338Y-237236D01*
X2959404Y-234086D01*
X2962148Y-228955D01*
X2964383Y-221589D01*
X2965145Y-213867D01*
X2964383Y-206197D01*
X2962148Y-198831D01*
X2959404Y-193700D01*
X2958338Y-190550D01*
X2958338Y-187248D01*
X2959404Y-184099D01*
X2962198Y-178968D01*
X2964434Y-171602D01*
X2965196Y-163880D01*
X2964434Y-156210D01*
X2962198Y-148844D01*
X2959404Y-143662D01*
X2958338Y-140512D01*
X2958338Y-137210D01*
X2959404Y-134112D01*
X2962148Y-128930D01*
X2964383Y-121564D01*
X2965145Y-113893D01*
X2964383Y-106222D01*
X2962148Y-98806D01*
X2959404Y-93675D01*
X2958338Y-90576D01*
X2958338Y-87274D01*
X2959404Y-84124D01*
X2962198Y-78943D01*
X2964434Y-71577D01*
X2965196Y-63906D01*
X2964434Y-56235D01*
X2962198Y-48818D01*
X2959404Y-43688D01*
X2958338Y-40538D01*
X2958338Y-37236D01*
X2959404Y-34086D01*
X2962148Y-28956D01*
X2964383Y-21590D01*
X2965145Y-13868D01*
X2964383Y-6197D01*
X2962148Y1168D01*
X2959404Y6299D01*
X2958338Y9448D01*
X2958338Y12750D01*
X2959404Y15900D01*
X2962198Y21031D01*
X2964434Y28397D01*
X2965196Y36118D01*
X2964434Y43789D01*
X2962198Y51155D01*
X2959404Y56337D01*
X2958338Y59486D01*
X2958338Y62788D01*
X2959404Y65887D01*
X2962148Y71069D01*
X2964383Y78435D01*
X2965145Y86106D01*
X2964383Y93776D01*
X2962148Y101193D01*
X2959404Y106324D01*
X2958338Y109423D01*
X2958338Y112725D01*
X2959404Y115874D01*
X2962198Y121056D01*
X2964434Y128422D01*
X2965196Y136093D01*
X2964434Y143764D01*
X2962198Y151180D01*
X2959404Y156311D01*
X2958338Y159461D01*
X2958338Y162763D01*
X2959404Y165912D01*
X2962148Y171043D01*
X2963113Y174244D01*
X2965145Y177901D01*
X2968396Y180441D01*
X2972460Y181457D01*
X2976575Y180746D01*
X2980029Y178460D01*
X3223564Y-65024D01*
X3229762Y-70154D01*
X3236468Y-73710D01*
X3242564Y-75590D01*
X3246120Y-77470D01*
X3248609Y-80670D01*
X3249726Y-84531D01*
X3249218Y-88544D01*
X3247186Y-92049D01*
X3243935Y-94488D01*
X3235706Y-98399D01*
X3226968Y-104444D01*
X3219297Y-111760D01*
X3212947Y-120243D01*
X3208020Y-129641D01*
X3204667Y-139700D01*
X3202940Y-150164D01*
X3202940Y-160731D01*
X3204667Y-171196D01*
X3208020Y-181254D01*
X3212947Y-190652D01*
X3219297Y-199136D01*
X3226968Y-206451D01*
X3233470Y-210972D01*
X3235807Y-213207D01*
X3237331Y-216103D01*
X3237839Y-219303D01*
X3237839Y-274523D01*
X3237077Y-278434D01*
X3234842Y-281736D01*
X3209239Y-307340D01*
X3205784Y-311099D01*
X3202838Y-314960D01*
X3200196Y-319074D01*
X3197961Y-323392D01*
X3196082Y-327914D01*
X3194608Y-332587D01*
X3193542Y-337312D01*
X3192932Y-342188D01*
X3192678Y-347268D01*
X3192678Y-406349D01*
X3192018Y-410057D01*
X3189986Y-413258D01*
X3186988Y-415493D01*
X3183331Y-416509D01*
X3179572Y-416102D01*
X3172002Y-413766D01*
X3164332Y-413004D01*
X3156610Y-413766D01*
X3149244Y-416001D01*
X3144113Y-418795D01*
X3140964Y-419862D01*
X3137662Y-419862D01*
X3134512Y-418795D01*
X3129330Y-416001D01*
X3121964Y-413766D01*
X3114294Y-413004D01*
X3106623Y-413766D01*
X3099206Y-416001D01*
X3094075Y-418744D01*
X3090976Y-419811D01*
X3087624Y-419811D01*
X3084525Y-418744D01*
X3079394Y-416001D01*
X3071977Y-413766D01*
X3064306Y-413004D01*
X3056636Y-413766D01*
X3049270Y-416001D01*
X3044088Y-418795D01*
X3040938Y-419862D01*
X3037636Y-419862D01*
X3034487Y-418795D01*
X3029356Y-416001D01*
X3021990Y-413766D01*
X3014268Y-413004D01*
X3006598Y-413766D01*
X2999232Y-416001D01*
X2992424Y-419658D01*
X2986481Y-424535D01*
X2981553Y-430530D01*
X2977946Y-437337D01*
X2975711Y-444703D01*
X2974898Y-452882D01*
X2974898Y-574903D01*
X2975254Y-578612D01*
X2974797Y-582777D01*
X2972663Y-586435D01*
X2969260Y-588873D01*
X2965145Y-589788D01*
X2750312Y-589788D01*
X2742285Y-590550D01*
X2735072Y-592734D01*
X2728366Y-596290D01*
X2725369Y-598779D01*
X2722321Y-600506D01*
X2718917Y-601116D01*
X2635453Y-601116D01*
X2631592Y-600303D01*
X2628290Y-598119D01*
X2626106Y-594817D01*
X2625293Y-590956D01*
X2625293Y-580288D01*
X2624582Y-573938D01*
X2622702Y-568502D01*
X2619603Y-563575D01*
X2615488Y-559511D01*
X2610612Y-556412D01*
X2605176Y-554482D01*
X2598826Y-553770D01*
X2404973Y-553770D01*
X2398623Y-554482D01*
X2393188Y-556412D01*
X2388311Y-559511D01*
X2384196Y-563575D01*
X2381097Y-568502D01*
X2379218Y-573938D01*
X2378506Y-580288D01*
X2378506Y-699109D01*
X2379218Y-705459D01*
X2381097Y-710895D01*
X2384196Y-715822D01*
X2388311Y-719886D01*
X2393188Y-722985D01*
X2398623Y-724916D01*
X2404973Y-725627D01*
X2598826Y-725627D01*
X2605176Y-724916D01*
X2610612Y-722985D01*
X2615488Y-719886D01*
X2619603Y-715822D01*
X2622702Y-710895D01*
X2624582Y-705459D01*
X2625293Y-699109D01*
X2625293Y-688492D01*
X2626106Y-684580D01*
X2628290Y-681278D01*
X2631592Y-679094D01*
X2635453Y-678332D01*
X2737967Y-678332D01*
X2745994Y-677519D01*
X2753207Y-675335D01*
X2759913Y-671779D01*
X2762910Y-669290D01*
X2765958Y-667562D01*
X2769362Y-667004D01*
X2978861Y-667004D01*
X2982976Y-667867D01*
X2986379Y-670306D01*
X2988513Y-673963D01*
X2988970Y-678129D01*
X2988767Y-680212D01*
X2987751Y-683818D01*
X2985465Y-686765D01*
X2982315Y-688695D01*
X2978658Y-689406D01*
X2967888Y-689406D01*
X2961538Y-690118D01*
X2956102Y-691997D01*
X2951175Y-695096D01*
X2947111Y-699211D01*
X2944012Y-704088D01*
X2942082Y-709523D01*
X2941370Y-715873D01*
X2941370Y-909726D01*
X2942082Y-916076D01*
X2944012Y-921512D01*
X2947111Y-926388D01*
X2951175Y-930503D01*
X2956102Y-933602D01*
X2961538Y-935482D01*
X2967888Y-936193D01*
X3086709Y-936193D01*
X3093059Y-935482D01*
X3098495Y-933602D01*
X3103422Y-930503D01*
X3107486Y-926388D01*
X3110585Y-921512D01*
X3112516Y-916076D01*
X3113227Y-909726D01*
X3113227Y-715873D01*
X3112516Y-709523D01*
X3110585Y-704088D01*
X3107486Y-699211D01*
X3103473Y-695147D01*
X3101238Y-691845D01*
X3100476Y-687933D01*
X3101238Y-684072D01*
X3103473Y-680770D01*
X3141218Y-642975D01*
X3146348Y-636778D01*
X3149904Y-630123D01*
X3152394Y-621792D01*
X3153968Y-618693D01*
X3156458Y-616305D01*
X3159658Y-614883D01*
X3164332Y-614730D01*
X3172002Y-613968D01*
X3179368Y-611733D01*
X3184499Y-608990D01*
X3187649Y-607923D01*
X3190951Y-607923D01*
X3194100Y-608990D01*
X3199231Y-611733D01*
X3206597Y-613968D01*
X3214268Y-614730D01*
X3221990Y-613968D01*
X3229356Y-611733D01*
X3234486Y-608990D01*
X3237636Y-607923D01*
X3240938Y-607923D01*
X3244088Y-608990D01*
X3249269Y-611733D01*
X3256635Y-613968D01*
X3264306Y-614730D01*
X3271977Y-613968D01*
X3279394Y-611733D01*
X3284524Y-608990D01*
X3287623Y-607923D01*
X3290976Y-607923D01*
X3294075Y-608990D01*
X3299206Y-611733D01*
X3301187Y-612343D01*
X3301187Y-590296D01*
X3301644Y-587349D01*
X3302914Y-583082D01*
X3303727Y-574903D01*
X3303727Y-522985D01*
X3304540Y-513435D01*
X3304540Y-374396D01*
X3305301Y-370535D01*
X3308299Y-366420D01*
X3311550Y-364236D01*
X3315462Y-363474D01*
X3319373Y-364236D01*
X3322624Y-366420D01*
X3324860Y-369722D01*
X3325622Y-373634D01*
X3325622Y-445109D01*
X3324910Y-452882D01*
X3324910Y-574903D01*
X3325723Y-583082D01*
X3326942Y-587146D01*
X3327400Y-590092D01*
X3327400Y-612343D01*
X3329330Y-611733D01*
X3334512Y-608990D01*
X3337661Y-607923D01*
X3340963Y-607923D01*
X3344113Y-608990D01*
X3349244Y-611733D01*
X3356610Y-613968D01*
X3364331Y-614730D01*
X3372002Y-613968D01*
X3379368Y-611733D01*
X3384499Y-608990D01*
X3387648Y-607923D01*
X3390950Y-607923D01*
X3394100Y-608990D01*
X3399231Y-611733D01*
X3406597Y-613968D01*
X3414268Y-614730D01*
X3416198Y-614578D01*
X3420364Y-614984D01*
X3423970Y-617067D01*
X3426460Y-620420D01*
X3427374Y-624535D01*
X3428492Y-698754D01*
X3429355Y-706424D01*
X3431590Y-713689D01*
X3435248Y-720293D01*
X3438601Y-724560D01*
X3742436Y-1062177D01*
X3744620Y-1066088D01*
X3744925Y-1070559D01*
X3744315Y-1074216D01*
X3744315Y-1084783D01*
X3746042Y-1095248D01*
X3749395Y-1105306D01*
X3754323Y-1114704D01*
X3760673Y-1123188D01*
X3768344Y-1130503D01*
X3777081Y-1136548D01*
X3786632Y-1141069D01*
X3796842Y-1144066D01*
X3807358Y-1145336D01*
X3817924Y-1144879D01*
X3828338Y-1142796D01*
X3838244Y-1139037D01*
X3847388Y-1133703D01*
X3856380Y-1126337D01*
X3859733Y-1124508D01*
X3863492Y-1124051D01*
X3867150Y-1125016D01*
X3870248Y-1127252D01*
X3872280Y-1130452D01*
X3872992Y-1134211D01*
X3872992Y-3799840D01*
X3872229Y-3803751D01*
X3869994Y-3807002D01*
X3866743Y-3809237D01*
X3862832Y-3810000D01*
X3807968Y-3810000D01*
X3804056Y-3809237D01*
X3800805Y-3807002D01*
X3798570Y-3803751D01*
X3797808Y-3799840D01*
X3797808Y-3213608D01*
X3796995Y-3205581D01*
X3794810Y-3198368D01*
X3791254Y-3191662D01*
X3786124Y-3185464D01*
X3706164Y-3105454D01*
X3703980Y-3102254D01*
X3703167Y-3098444D01*
X3703878Y-3094583D01*
X3705961Y-3091281D01*
X3709162Y-3089046D01*
X3712921Y-3088132D01*
X3716324Y-3087979D01*
X3726738Y-3085896D01*
X3736644Y-3082137D01*
X3745839Y-3076803D01*
X3754018Y-3070098D01*
X3761079Y-3062173D01*
X3766718Y-3053232D01*
X3770884Y-3043478D01*
X3773424Y-3033166D01*
X3774287Y-3022600D01*
X3773424Y-3012033D01*
X3770884Y-3001721D01*
X3766718Y-2991967D01*
X3761079Y-2983026D01*
X3754018Y-2975102D01*
X3751884Y-2973324D01*
X3749090Y-2969818D01*
X3748125Y-2965450D01*
X3749090Y-2961081D01*
X3751884Y-2957576D01*
X3754018Y-2955798D01*
X3761079Y-2947873D01*
X3766718Y-2938932D01*
X3770884Y-2929178D01*
X3773424Y-2918866D01*
X3774287Y-2908300D01*
X3773424Y-2897733D01*
X3770884Y-2887421D01*
X3766718Y-2877667D01*
X3761079Y-2868726D01*
X3754018Y-2860802D01*
X3745839Y-2854096D01*
X3736644Y-2848762D01*
X3726738Y-2845003D01*
X3716324Y-2842920D01*
X3705758Y-2842463D01*
X3695242Y-2843733D01*
X3685032Y-2846730D01*
X3675481Y-2851251D01*
X3670960Y-2854350D01*
X3666947Y-2856026D01*
X3662629Y-2855823D01*
X3658768Y-2853893D01*
X3656076Y-2850489D01*
X3655009Y-2846273D01*
X3655822Y-2842006D01*
X3656584Y-2840278D01*
X3659124Y-2829966D01*
X3659987Y-2819400D01*
X3659124Y-2808833D01*
X3656584Y-2798521D01*
X3652418Y-2788767D01*
X3644696Y-2776778D01*
X3643884Y-2773680D01*
X3645408Y-2759659D01*
X3645408Y-2616708D01*
X3644595Y-2608681D01*
X3642410Y-2601468D01*
X3638854Y-2594762D01*
X3636314Y-2591714D01*
X3634486Y-2588310D01*
X3634079Y-2584450D01*
X3634587Y-2578100D01*
X3633724Y-2567533D01*
X3631184Y-2557221D01*
X3627018Y-2547467D01*
X3621379Y-2538526D01*
X3614318Y-2530602D01*
X3606139Y-2523896D01*
X3596944Y-2518562D01*
X3587038Y-2514803D01*
X3576624Y-2512720D01*
X3566058Y-2512263D01*
X3555542Y-2513533D01*
X3545332Y-2516530D01*
X3535781Y-2521051D01*
X3527044Y-2527096D01*
X3519373Y-2534412D01*
X3513023Y-2542895D01*
X3508095Y-2552293D01*
X3504742Y-2562352D01*
X3503015Y-2572816D01*
X3503015Y-2583383D01*
X3504742Y-2593848D01*
X3508095Y-2603906D01*
X3513023Y-2613304D01*
X3519373Y-2621788D01*
X3527044Y-2629103D01*
X3535781Y-2635148D01*
X3545332Y-2639669D01*
X3555542Y-2642666D01*
X3559251Y-2643073D01*
X3562756Y-2644190D01*
X3565651Y-2646426D01*
X3567531Y-2649575D01*
X3568192Y-2653182D01*
X3568192Y-2752598D01*
X3567480Y-2756306D01*
X3565448Y-2759506D01*
X3552444Y-2768396D01*
X3544773Y-2775712D01*
X3538423Y-2784195D01*
X3533495Y-2793593D01*
X3530142Y-2803652D01*
X3528415Y-2814116D01*
X3528415Y-2824683D01*
X3530142Y-2835148D01*
X3533495Y-2845206D01*
X3535172Y-2848457D01*
X3536340Y-2852470D01*
X3535781Y-2856534D01*
X3533648Y-2860090D01*
X3530244Y-2862478D01*
X3526180Y-2863342D01*
X3438804Y-2863342D01*
X3434892Y-2862580D01*
X3431590Y-2860344D01*
X3429406Y-2857093D01*
X3428644Y-2853182D01*
X3429406Y-2849270D01*
X3431590Y-2846019D01*
X3455924Y-2821635D01*
X3461054Y-2815437D01*
X3464610Y-2808732D01*
X3466795Y-2801518D01*
X3467608Y-2793492D01*
X3467608Y-1903882D01*
X3468420Y-1899970D01*
X3470656Y-1896668D01*
X3475837Y-1891588D01*
X3478885Y-1886712D01*
X3480815Y-1881276D01*
X3481527Y-1874926D01*
X3481527Y-1681073D01*
X3480815Y-1674723D01*
X3478885Y-1669288D01*
X3475786Y-1664411D01*
X3471722Y-1660296D01*
X3466795Y-1657197D01*
X3461359Y-1655318D01*
X3455009Y-1654606D01*
X3336188Y-1654606D01*
X3329838Y-1655318D01*
X3324402Y-1657197D01*
X3319475Y-1660296D01*
X3315411Y-1664411D01*
X3312312Y-1669288D01*
X3310382Y-1674723D01*
X3309670Y-1681073D01*
X3309670Y-1874926D01*
X3310382Y-1881276D01*
X3312312Y-1886712D01*
X3315411Y-1891588D01*
X3319475Y-1895703D01*
X3324402Y-1898802D01*
X3329838Y-1900682D01*
X3336188Y-1901393D01*
X3380232Y-1901393D01*
X3384143Y-1902206D01*
X3387394Y-1904390D01*
X3389629Y-1907692D01*
X3390392Y-1911553D01*
X3390392Y-2123389D01*
X3389579Y-2127453D01*
X3387191Y-2130806D01*
X3383635Y-2132990D01*
X3379571Y-2133549D01*
X3375609Y-2132431D01*
X3372358Y-2129840D01*
X3367024Y-2123338D01*
X3360775Y-2117090D01*
X3358591Y-2113788D01*
X3357829Y-2109927D01*
X3357829Y-1985873D01*
X3357118Y-1979523D01*
X3355187Y-1974088D01*
X3352088Y-1969211D01*
X3348024Y-1965096D01*
X3343097Y-1961997D01*
X3337661Y-1960118D01*
X3331311Y-1959406D01*
X3212490Y-1959406D01*
X3206140Y-1960118D01*
X3200704Y-1961997D01*
X3195777Y-1965096D01*
X3191713Y-1969211D01*
X3188614Y-1974088D01*
X3186684Y-1979523D01*
X3185972Y-1985873D01*
X3185972Y-2179726D01*
X3186684Y-2186076D01*
X3188614Y-2191512D01*
X3191713Y-2196388D01*
X3195777Y-2200503D01*
X3200704Y-2203602D01*
X3206140Y-2205482D01*
X3212490Y-2206193D01*
X3291332Y-2206193D01*
X3295243Y-2207006D01*
X3298494Y-2209190D01*
X3300729Y-2212492D01*
X3301492Y-2216353D01*
X3301492Y-2418232D01*
X3300679Y-2422194D01*
X3298393Y-2425547D01*
X3290773Y-2432812D01*
X3284423Y-2441295D01*
X3279495Y-2450693D01*
X3276142Y-2460752D01*
X3274415Y-2471216D01*
X3274415Y-2481783D01*
X3276142Y-2492248D01*
X3279495Y-2502306D01*
X3284423Y-2511704D01*
X3290773Y-2520188D01*
X3297123Y-2526233D01*
X3299460Y-2529636D01*
X3300222Y-2533650D01*
X3299714Y-2536139D01*
X3302355Y-2534564D01*
X3306267Y-2534005D01*
X3310128Y-2534970D01*
X3316732Y-2538069D01*
X3326942Y-2541066D01*
X3337458Y-2542336D01*
X3348024Y-2541879D01*
X3358438Y-2539796D01*
X3368344Y-2536037D01*
X3375151Y-2532075D01*
X3379165Y-2530754D01*
X3383381Y-2531211D01*
X3387039Y-2533345D01*
X3389528Y-2536748D01*
X3390392Y-2540863D01*
X3390392Y-2634437D01*
X3389629Y-2638247D01*
X3387496Y-2641498D01*
X3384296Y-2643733D01*
X3380486Y-2644546D01*
X3376625Y-2643936D01*
X3371138Y-2641803D01*
X3360724Y-2639720D01*
X3350158Y-2639263D01*
X3339642Y-2640533D01*
X3329432Y-2643530D01*
X3325876Y-2645206D01*
X3322320Y-2646121D01*
X3318662Y-2645765D01*
X3315360Y-2644089D01*
X3312871Y-2641346D01*
X3311550Y-2637891D01*
X3311093Y-2635402D01*
X3308045Y-2627528D01*
X3304336Y-2621534D01*
X3303015Y-2618079D01*
X3303015Y-2614320D01*
X3304336Y-2610866D01*
X3308045Y-2604871D01*
X3309620Y-2600807D01*
X3247288Y-2600807D01*
X3244951Y-2601722D01*
X3242411Y-2602026D01*
X3168548Y-2602026D01*
X3166008Y-2601722D01*
X3163671Y-2600807D01*
X3110941Y-2600807D01*
X3107080Y-2600045D01*
X3103778Y-2597810D01*
X3091383Y-2585466D01*
X3089198Y-2582164D01*
X3088640Y-2579522D01*
X3086100Y-2579065D01*
X3082747Y-2576830D01*
X3037535Y-2531567D01*
X3035300Y-2528265D01*
X3034538Y-2524404D01*
X3034538Y-2514955D01*
X3034944Y-2512110D01*
X3036976Y-2508199D01*
X3041142Y-2498445D01*
X3043631Y-2488133D01*
X3044494Y-2477566D01*
X3043631Y-2467000D01*
X3041142Y-2456688D01*
X3036976Y-2446934D01*
X3031286Y-2437993D01*
X3024276Y-2430068D01*
X3016046Y-2423363D01*
X3006852Y-2418029D01*
X2996946Y-2414270D01*
X2986582Y-2412187D01*
X2975965Y-2411730D01*
X2965450Y-2413000D01*
X2955290Y-2415997D01*
X2945688Y-2420518D01*
X2936951Y-2426563D01*
X2929331Y-2433878D01*
X2927096Y-2436876D01*
X2923946Y-2439619D01*
X2919933Y-2440889D01*
X2915767Y-2440381D01*
X2912110Y-2438247D01*
X2909671Y-2434844D01*
X2908808Y-2430729D01*
X2908808Y-2208072D01*
X2909722Y-2203805D01*
X2912313Y-2200351D01*
X2916123Y-2198319D01*
X2920441Y-2198014D01*
X2924505Y-2199538D01*
X2930753Y-2203602D01*
X2936138Y-2205482D01*
X2942488Y-2206193D01*
X2965551Y-2206193D01*
X2965551Y-2137918D01*
X2918968Y-2137918D01*
X2915056Y-2137105D01*
X2911805Y-2134920D01*
X2909570Y-2131618D01*
X2908808Y-2127758D01*
X2908808Y-2037842D01*
X2909570Y-2033981D01*
X2911805Y-2030679D01*
X2915056Y-2028494D01*
X2918968Y-2027682D01*
X2965551Y-2027682D01*
X2965551Y-1959406D01*
X2942488Y-1959406D01*
X2936138Y-1960118D01*
X2930753Y-1961997D01*
X2924505Y-1966061D01*
X2920441Y-1967585D01*
X2916123Y-1967280D01*
X2912313Y-1965248D01*
X2909722Y-1961794D01*
X2908808Y-1957527D01*
X2908808Y-1588008D01*
X2907995Y-1579981D01*
X2905810Y-1572768D01*
X2902254Y-1566062D01*
X2897124Y-1559864D01*
X2786176Y-1448866D01*
X2783941Y-1445564D01*
X2783179Y-1441653D01*
X2783941Y-1437792D01*
X2786176Y-1434490D01*
X2789428Y-1432306D01*
X2793339Y-1431493D01*
X2816453Y-1431493D01*
X2816453Y-1363218D01*
X2766872Y-1363218D01*
X2766872Y-1405077D01*
X2766110Y-1408938D01*
X2763926Y-1412240D01*
X2760624Y-1414475D01*
X2756712Y-1415237D01*
X2752852Y-1414475D01*
X2749550Y-1412240D01*
X2671673Y-1334363D01*
X2669489Y-1331061D01*
X2668727Y-1327200D01*
X2668727Y-1211173D01*
X2668016Y-1204823D01*
X2666085Y-1199388D01*
X2662986Y-1194511D01*
X2658922Y-1190396D01*
X2653995Y-1187297D01*
X2648559Y-1185418D01*
X2642209Y-1184706D01*
X2523388Y-1184706D01*
X2517038Y-1185418D01*
X2511602Y-1187297D01*
X2506675Y-1190396D01*
X2502611Y-1194511D01*
X2499512Y-1199388D01*
X2497582Y-1204823D01*
X2496870Y-1211173D01*
X2496870Y-1405026D01*
X2497582Y-1411376D01*
X2499512Y-1416812D01*
X2502611Y-1421688D01*
X2506675Y-1425803D01*
X2511602Y-1428902D01*
X2517038Y-1430782D01*
X2523388Y-1431493D01*
X2642209Y-1431493D01*
X2648559Y-1430782D01*
X2653944Y-1429664D01*
X2657602Y-1430477D01*
X2660751Y-1432610D01*
X2776423Y-1548333D01*
X2778658Y-1551635D01*
X2779420Y-1555546D01*
X2778658Y-1559407D01*
X2776423Y-1562709D01*
X2773172Y-1564894D01*
X2769260Y-1565706D01*
X2701188Y-1565706D01*
X2694838Y-1566418D01*
X2689402Y-1568297D01*
X2684475Y-1571396D01*
X2680411Y-1575511D01*
X2677312Y-1580388D01*
X2675382Y-1585823D01*
X2674670Y-1592173D01*
X2674670Y-1786026D01*
X2675382Y-1792376D01*
X2677312Y-1797812D01*
X2680411Y-1802688D01*
X2684475Y-1806803D01*
X2689402Y-1809902D01*
X2694889Y-1811832D01*
X2698394Y-1813915D01*
X2700782Y-1817217D01*
X2701696Y-1821180D01*
X2700985Y-1825193D01*
X2698750Y-1828596D01*
X2609596Y-1917750D01*
X2604465Y-1923999D01*
X2600909Y-1930654D01*
X2598724Y-1937867D01*
X2597912Y-1945893D01*
X2597912Y-2528366D01*
X2597150Y-2532278D01*
X2594914Y-2535580D01*
X2591663Y-2537764D01*
X2587752Y-2538526D01*
X2575509Y-2538526D01*
X2566568Y-2539390D01*
X2558440Y-2541676D01*
X2550871Y-2545435D01*
X2544114Y-2550566D01*
X2538425Y-2556814D01*
X2533954Y-2564028D01*
X2530906Y-2571902D01*
X2529332Y-2580182D01*
X2529382Y-2589784D01*
X2528570Y-2593797D01*
X2526284Y-2597150D01*
X2522829Y-2599334D01*
X2518816Y-2599994D01*
X2514904Y-2599029D01*
X2511602Y-2596540D01*
X2509418Y-2594102D01*
X2501239Y-2587396D01*
X2492044Y-2582062D01*
X2482138Y-2578303D01*
X2471724Y-2576220D01*
X2461158Y-2575763D01*
X2450642Y-2577033D01*
X2440432Y-2580030D01*
X2430881Y-2584551D01*
X2429459Y-2585516D01*
X2425395Y-2587193D01*
X2420975Y-2586990D01*
X2417114Y-2584958D01*
X2414473Y-2581452D01*
X2413508Y-2577185D01*
X2413508Y-2382316D01*
X2414219Y-2378608D01*
X2416200Y-2375408D01*
X2419197Y-2373172D01*
X2422804Y-2372207D01*
X2426563Y-2372563D01*
X2437942Y-2375966D01*
X2448458Y-2377236D01*
X2459024Y-2376779D01*
X2469438Y-2374696D01*
X2479344Y-2370937D01*
X2488539Y-2365603D01*
X2496718Y-2358898D01*
X2503779Y-2350973D01*
X2509418Y-2342032D01*
X2513584Y-2332278D01*
X2516124Y-2321966D01*
X2516987Y-2311400D01*
X2516124Y-2300833D01*
X2513584Y-2290521D01*
X2509418Y-2280767D01*
X2503779Y-2271826D01*
X2496718Y-2263902D01*
X2493467Y-2261209D01*
X2490673Y-2257704D01*
X2489708Y-2253335D01*
X2489708Y-1486408D01*
X2488895Y-1478381D01*
X2486710Y-1471168D01*
X2483154Y-1464462D01*
X2478024Y-1458264D01*
X2405176Y-1385366D01*
X2402789Y-1381658D01*
X2402230Y-1377340D01*
X2402687Y-1371600D01*
X2401824Y-1361033D01*
X2399284Y-1350721D01*
X2395118Y-1340967D01*
X2389479Y-1332026D01*
X2382418Y-1324102D01*
X2374239Y-1317396D01*
X2365044Y-1312062D01*
X2355138Y-1308303D01*
X2344724Y-1306220D01*
X2334158Y-1305763D01*
X2323642Y-1307033D01*
X2313432Y-1310030D01*
X2303881Y-1314551D01*
X2295144Y-1320596D01*
X2287473Y-1327912D01*
X2281123Y-1336395D01*
X2276195Y-1345793D01*
X2272842Y-1355852D01*
X2271115Y-1366316D01*
X2271115Y-1376883D01*
X2272842Y-1387348D01*
X2276195Y-1397406D01*
X2281123Y-1406804D01*
X2287473Y-1415288D01*
X2295144Y-1422603D01*
X2303881Y-1428648D01*
X2313432Y-1433169D01*
X2323642Y-1436166D01*
X2334158Y-1437436D01*
X2343048Y-1437081D01*
X2347163Y-1437741D01*
X2350617Y-1440027D01*
X2409494Y-1498904D01*
X2411730Y-1502206D01*
X2412492Y-1506118D01*
X2412492Y-1703070D01*
X2411730Y-1706930D01*
X2409494Y-1710232D01*
X2406243Y-1712468D01*
X2402332Y-1713230D01*
X2398420Y-1712468D01*
X2395169Y-1710232D01*
X2382875Y-1697989D01*
X2380691Y-1694688D01*
X2379929Y-1690776D01*
X2379929Y-1566773D01*
X2379218Y-1560423D01*
X2377287Y-1554988D01*
X2374188Y-1550111D01*
X2370124Y-1545996D01*
X2365197Y-1542897D01*
X2359761Y-1541018D01*
X2353411Y-1540306D01*
X2234590Y-1540306D01*
X2228240Y-1541018D01*
X2222804Y-1542897D01*
X2217877Y-1545996D01*
X2213813Y-1550111D01*
X2210714Y-1554988D01*
X2208784Y-1560423D01*
X2208072Y-1566773D01*
X2208072Y-1760626D01*
X2208784Y-1766976D01*
X2210714Y-1772412D01*
X2213813Y-1777288D01*
X2217877Y-1781403D01*
X2222804Y-1784502D01*
X2228240Y-1786382D01*
X2235809Y-1787093D01*
X2239721Y-1787906D01*
X2243074Y-1790141D01*
X2245258Y-1793493D01*
X2245969Y-1797405D01*
X2245156Y-1801317D01*
X2242870Y-1804619D01*
X2236673Y-1810512D01*
X2230323Y-1818995D01*
X2225395Y-1828393D01*
X2222449Y-1837131D01*
X2220010Y-1841144D01*
X2158492Y-1902663D01*
X2156460Y-1904238D01*
X2154123Y-1905254D01*
X2148332Y-1906930D01*
X2138781Y-1911451D01*
X2130044Y-1917496D01*
X2122373Y-1924812D01*
X2116023Y-1933295D01*
X2111095Y-1942693D01*
X2107742Y-1952752D01*
X2106015Y-1963216D01*
X2106015Y-1973783D01*
X2107742Y-1984248D01*
X2111095Y-1994306D01*
X2116023Y-2003704D01*
X2122373Y-2012188D01*
X2130044Y-2019503D01*
X2138781Y-2025548D01*
X2148332Y-2030069D01*
X2158542Y-2033066D01*
X2169058Y-2034336D01*
X2179624Y-2033879D01*
X2190038Y-2031796D01*
X2199944Y-2028037D01*
X2209139Y-2022703D01*
X2217318Y-2015998D01*
X2224379Y-2008073D01*
X2230018Y-1999132D01*
X2234184Y-1989378D01*
X2235911Y-1983892D01*
X2237587Y-1981657D01*
X2299004Y-1920290D01*
X2301341Y-1918512D01*
X2314244Y-1913737D01*
X2321052Y-1909775D01*
X2325065Y-1908454D01*
X2329281Y-1908911D01*
X2332939Y-1911045D01*
X2335428Y-1914448D01*
X2336292Y-1918563D01*
X2336292Y-2679192D01*
X2337104Y-2687218D01*
X2339289Y-2694432D01*
X2342845Y-2701137D01*
X2347976Y-2707335D01*
X2381300Y-2740609D01*
X2424074Y-2778048D01*
X2426563Y-2781350D01*
X2427528Y-2785364D01*
X2426817Y-2789428D01*
X2424531Y-2792882D01*
X2389682Y-2827731D01*
X2386380Y-2829966D01*
X2382469Y-2830728D01*
X2378557Y-2829915D01*
X2375255Y-2827680D01*
X2373071Y-2824378D01*
X2372360Y-2820466D01*
X2373172Y-2816555D01*
X2373884Y-2814878D01*
X2376424Y-2804566D01*
X2377287Y-2794000D01*
X2376424Y-2783433D01*
X2373884Y-2773121D01*
X2369718Y-2763367D01*
X2364079Y-2754426D01*
X2357018Y-2746502D01*
X2348839Y-2739796D01*
X2339644Y-2734462D01*
X2329738Y-2730703D01*
X2319324Y-2728620D01*
X2308758Y-2728163D01*
X2298242Y-2729433D01*
X2288032Y-2732430D01*
X2278481Y-2736951D01*
X2269744Y-2742996D01*
X2262073Y-2750312D01*
X2255723Y-2758795D01*
X2250795Y-2768193D01*
X2248357Y-2775559D01*
X2245868Y-2779522D01*
X1410817Y-3614572D01*
X1407363Y-3616858D01*
X1403248Y-3617518D01*
X1394358Y-3617163D01*
X1383842Y-3618433D01*
X1373632Y-3621430D01*
X1364081Y-3625951D01*
X1355344Y-3631996D01*
X1347673Y-3639312D01*
X1341323Y-3647795D01*
X1336395Y-3657193D01*
X1333042Y-3667251D01*
X1331315Y-3677716D01*
X1331315Y-3688283D01*
X1333042Y-3698748D01*
X1336395Y-3708806D01*
X1341323Y-3718204D01*
X1347673Y-3726687D01*
X1355344Y-3734003D01*
X1364081Y-3740048D01*
X1373632Y-3744569D01*
X1383842Y-3747566D01*
X1394358Y-3748836D01*
X1404924Y-3748379D01*
X1415338Y-3746296D01*
X1425244Y-3742537D01*
X1434439Y-3737203D01*
X1442618Y-3730498D01*
X1449679Y-3722573D01*
X1455318Y-3713632D01*
X1459484Y-3703878D01*
X1462024Y-3693566D01*
X1462887Y-3683000D01*
X1462430Y-3677259D01*
X1462989Y-3672941D01*
X1465376Y-3669233D01*
X2276856Y-2857754D01*
X2279802Y-2855671D01*
X2283307Y-2854807D01*
X2286914Y-2855214D01*
X2298242Y-2858566D01*
X2308758Y-2859836D01*
X2319324Y-2859379D01*
X2329738Y-2857296D01*
X2334463Y-2855468D01*
X2338324Y-2854807D01*
X2342184Y-2855671D01*
X2345385Y-2857906D01*
X2347518Y-2861208D01*
X2348230Y-2865069D01*
X2347468Y-2868879D01*
X2345283Y-2872130D01*
X1410411Y-3807002D01*
X1407109Y-3809237D01*
X1403197Y-3810000D01*
G37*

%LPC*%
G36*
X1114958Y-3266236D02*
G01*
X1125524Y-3265779D01*
X1135938Y-3263696D01*
X1145844Y-3259937D01*
X1155039Y-3254603D01*
X1163218Y-3247898D01*
X1170279Y-3239973D01*
X1175918Y-3231032D01*
X1180084Y-3221278D01*
X1182624Y-3210966D01*
X1183487Y-3200400D01*
X1182624Y-3189833D01*
X1180084Y-3179521D01*
X1175918Y-3169767D01*
X1170279Y-3160826D01*
X1163218Y-3152902D01*
X1159967Y-3150209D01*
X1157173Y-3146704D01*
X1156208Y-3142335D01*
X1156208Y-1328318D01*
X1156970Y-1324406D01*
X1159205Y-1321104D01*
X1535633Y-944676D01*
X1538071Y-942898D01*
X1540967Y-941882D01*
X1546758Y-942136D01*
X1557324Y-941679D01*
X1567738Y-939596D01*
X1577644Y-935837D01*
X1586839Y-930503D01*
X1595018Y-923798D01*
X1602079Y-915873D01*
X1607718Y-906932D01*
X1611884Y-897178D01*
X1614424Y-886866D01*
X1615287Y-876300D01*
X1614424Y-865733D01*
X1611884Y-855421D01*
X1607718Y-845667D01*
X1602079Y-836726D01*
X1595018Y-828802D01*
X1586839Y-822096D01*
X1577644Y-816762D01*
X1567738Y-813003D01*
X1557324Y-810920D01*
X1546758Y-810463D01*
X1536242Y-811733D01*
X1526032Y-814730D01*
X1516481Y-819251D01*
X1507744Y-825296D01*
X1500073Y-832612D01*
X1493723Y-841095D01*
X1488795Y-850493D01*
X1485442Y-860552D01*
X1483766Y-870966D01*
X1483817Y-882954D01*
X1483106Y-886917D01*
X1480870Y-890219D01*
X1090676Y-1280464D01*
X1085545Y-1286662D01*
X1081989Y-1293368D01*
X1079804Y-1300581D01*
X1078992Y-1308608D01*
X1078992Y-3142132D01*
X1078179Y-3146094D01*
X1075893Y-3149447D01*
X1068273Y-3156712D01*
X1061923Y-3165195D01*
X1056995Y-3174593D01*
X1053642Y-3184652D01*
X1051915Y-3195116D01*
X1051915Y-3205683D01*
X1053642Y-3216148D01*
X1056995Y-3226206D01*
X1061923Y-3235604D01*
X1068273Y-3244088D01*
X1075944Y-3251403D01*
X1084681Y-3257448D01*
X1094232Y-3261969D01*
X1104442Y-3264966D01*
G37*
G36*
X2143658Y-2707436D02*
G01*
X2154224Y-2706979D01*
X2164638Y-2704896D01*
X2174544Y-2701137D01*
X2183739Y-2695803D01*
X2191918Y-2689098D01*
X2198979Y-2681173D01*
X2204618Y-2672232D01*
X2208784Y-2662478D01*
X2211324Y-2652166D01*
X2212187Y-2641600D01*
X2211324Y-2631033D01*
X2208784Y-2620721D01*
X2204618Y-2610967D01*
X2198979Y-2602026D01*
X2191918Y-2594102D01*
X2188667Y-2591409D01*
X2185873Y-2587904D01*
X2184908Y-2583535D01*
X2184908Y-2517089D01*
X2185670Y-2513177D01*
X2187905Y-2509875D01*
X2191156Y-2507691D01*
X2195068Y-2506929D01*
X2243226Y-2506929D01*
X2249576Y-2506218D01*
X2255012Y-2504287D01*
X2259888Y-2501188D01*
X2264003Y-2497124D01*
X2267102Y-2492197D01*
X2268982Y-2486761D01*
X2269693Y-2480411D01*
X2269693Y-2361590D01*
X2268982Y-2355240D01*
X2267102Y-2349804D01*
X2264003Y-2344877D01*
X2259888Y-2340813D01*
X2255012Y-2337714D01*
X2249576Y-2335784D01*
X2243226Y-2335072D01*
X2049373Y-2335072D01*
X2043023Y-2335784D01*
X2037588Y-2337714D01*
X2032711Y-2340813D01*
X2028596Y-2344877D01*
X2025497Y-2349804D01*
X2023618Y-2355240D01*
X2022906Y-2361590D01*
X2022906Y-2480411D01*
X2023618Y-2486761D01*
X2025497Y-2492197D01*
X2028596Y-2497124D01*
X2032711Y-2501188D01*
X2037588Y-2504287D01*
X2043023Y-2506218D01*
X2049373Y-2506929D01*
X2097532Y-2506929D01*
X2101443Y-2507691D01*
X2104694Y-2509875D01*
X2106930Y-2513177D01*
X2107692Y-2517089D01*
X2107692Y-2583332D01*
X2106879Y-2587294D01*
X2104593Y-2590647D01*
X2096973Y-2597912D01*
X2090623Y-2606395D01*
X2085695Y-2615793D01*
X2082342Y-2625852D01*
X2080615Y-2636316D01*
X2080615Y-2646883D01*
X2082342Y-2657348D01*
X2085695Y-2667406D01*
X2090623Y-2676804D01*
X2096973Y-2685288D01*
X2104644Y-2692603D01*
X2113381Y-2698648D01*
X2122932Y-2703169D01*
X2133142Y-2706166D01*
G37*
G36*
X3101390Y-2568092D02*
G01*
X3158388Y-2568092D01*
X3158388Y-2538526D01*
X3144469Y-2538526D01*
X3135528Y-2539390D01*
X3127400Y-2541676D01*
X3119831Y-2545435D01*
X3113074Y-2550566D01*
X3107385Y-2556814D01*
X3102965Y-2563977D01*
G37*
G36*
X3252571Y-2568092D02*
G01*
X3309620Y-2568092D01*
X3308045Y-2564028D01*
X3303574Y-2556814D01*
X3298291Y-2550972D01*
X3296208Y-2547569D01*
X3295650Y-2543657D01*
X3296158Y-2541524D01*
X3293567Y-2543149D01*
X3289503Y-2543708D01*
X3285540Y-2542692D01*
X3283559Y-2541676D01*
X3275431Y-2539390D01*
X3266490Y-2538526D01*
X3252571Y-2538526D01*
G37*
G36*
X2049373Y-2236927D02*
G01*
X2091182Y-2236927D01*
X2091182Y-2187346D01*
X2022906Y-2187346D01*
X2022906Y-2210409D01*
X2023618Y-2216759D01*
X2025497Y-2222195D01*
X2028596Y-2227122D01*
X2032711Y-2231186D01*
X2037588Y-2234285D01*
X2043023Y-2236216D01*
G37*
G36*
X2201418Y-2236927D02*
G01*
X2243226Y-2236927D01*
X2249576Y-2236216D01*
X2255012Y-2234285D01*
X2259888Y-2231186D01*
X2264003Y-2227122D01*
X2267102Y-2222195D01*
X2268982Y-2216759D01*
X2269693Y-2210409D01*
X2269693Y-2187346D01*
X2201418Y-2187346D01*
G37*
G36*
X3038246Y-2206193D02*
G01*
X3061309Y-2206193D01*
X3067659Y-2205482D01*
X3073095Y-2203602D01*
X3078022Y-2200503D01*
X3082086Y-2196388D01*
X3085185Y-2191512D01*
X3087116Y-2186076D01*
X3087827Y-2179726D01*
X3087827Y-2137918D01*
X3038246Y-2137918D01*
G37*
G36*
X2022906Y-2114651D02*
G01*
X2091182Y-2114651D01*
X2091182Y-2065070D01*
X2049373Y-2065070D01*
X2043023Y-2065782D01*
X2037588Y-2067712D01*
X2032711Y-2070811D01*
X2028596Y-2074875D01*
X2025497Y-2079802D01*
X2023618Y-2085238D01*
X2022906Y-2091588D01*
G37*
G36*
X2201418Y-2114651D02*
G01*
X2269693Y-2114651D01*
X2269693Y-2091588D01*
X2268982Y-2085238D01*
X2267102Y-2079802D01*
X2264003Y-2074875D01*
X2259888Y-2070811D01*
X2255012Y-2067712D01*
X2249576Y-2065782D01*
X2243226Y-2065070D01*
X2201418Y-2065070D01*
G37*
G36*
X3038246Y-2027682D02*
G01*
X3087827Y-2027682D01*
X3087827Y-1985873D01*
X3087116Y-1979523D01*
X3085185Y-1974088D01*
X3082086Y-1969211D01*
X3078022Y-1965096D01*
X3073095Y-1961997D01*
X3067659Y-1960118D01*
X3061309Y-1959406D01*
X3038246Y-1959406D01*
G37*
G36*
X3606190Y-1901393D02*
G01*
X3629253Y-1901393D01*
X3629253Y-1833118D01*
X3579672Y-1833118D01*
X3579672Y-1874926D01*
X3580384Y-1881276D01*
X3582314Y-1886712D01*
X3585413Y-1891588D01*
X3589477Y-1895703D01*
X3594404Y-1898802D01*
X3599840Y-1900682D01*
G37*
G36*
X3701948Y-1901393D02*
G01*
X3725011Y-1901393D01*
X3731361Y-1900682D01*
X3736797Y-1898802D01*
X3741724Y-1895703D01*
X3745788Y-1891588D01*
X3748887Y-1886712D01*
X3750818Y-1881276D01*
X3751529Y-1874926D01*
X3751529Y-1833118D01*
X3701948Y-1833118D01*
G37*
G36*
X2971190Y-1812493D02*
G01*
X2994253Y-1812493D01*
X2994253Y-1744218D01*
X2944672Y-1744218D01*
X2944672Y-1786026D01*
X2945384Y-1792376D01*
X2947314Y-1797812D01*
X2950413Y-1802688D01*
X2954477Y-1806803D01*
X2959404Y-1809902D01*
X2964840Y-1811782D01*
G37*
G36*
X3066948Y-1812493D02*
G01*
X3090011Y-1812493D01*
X3096361Y-1811782D01*
X3101797Y-1809902D01*
X3106724Y-1806803D01*
X3110788Y-1802688D01*
X3113887Y-1797812D01*
X3115818Y-1792376D01*
X3116529Y-1786026D01*
X3116529Y-1744218D01*
X3066948Y-1744218D01*
G37*
G36*
X1964588Y-1787093D02*
G01*
X1987651Y-1787093D01*
X1987651Y-1718818D01*
X1938070Y-1718818D01*
X1938070Y-1760626D01*
X1938782Y-1766976D01*
X1940712Y-1772412D01*
X1943811Y-1777288D01*
X1947875Y-1781403D01*
X1952802Y-1784502D01*
X1958238Y-1786382D01*
G37*
G36*
X2060346Y-1787093D02*
G01*
X2083409Y-1787093D01*
X2089759Y-1786382D01*
X2095195Y-1784502D01*
X2100122Y-1781403D01*
X2104186Y-1777288D01*
X2107285Y-1772412D01*
X2109216Y-1766976D01*
X2109927Y-1760626D01*
X2109927Y-1718818D01*
X2060346Y-1718818D01*
G37*
G36*
X3579672Y-1722882D02*
G01*
X3629253Y-1722882D01*
X3629253Y-1654606D01*
X3606190Y-1654606D01*
X3599840Y-1655318D01*
X3594404Y-1657197D01*
X3589477Y-1660296D01*
X3585413Y-1664411D01*
X3582314Y-1669288D01*
X3580384Y-1674723D01*
X3579672Y-1681073D01*
G37*
G36*
X3701948Y-1722882D02*
G01*
X3751529Y-1722882D01*
X3751529Y-1681073D01*
X3750818Y-1674723D01*
X3748887Y-1669288D01*
X3745788Y-1664411D01*
X3741724Y-1660296D01*
X3736797Y-1657197D01*
X3731361Y-1655318D01*
X3725011Y-1654606D01*
X3701948Y-1654606D01*
G37*
G36*
X2944672Y-1633982D02*
G01*
X2994253Y-1633982D01*
X2994253Y-1565706D01*
X2971190Y-1565706D01*
X2964840Y-1566418D01*
X2959404Y-1568297D01*
X2954477Y-1571396D01*
X2950413Y-1575511D01*
X2947314Y-1580388D01*
X2945384Y-1585823D01*
X2944672Y-1592173D01*
G37*
G36*
X3066948Y-1633982D02*
G01*
X3116529Y-1633982D01*
X3116529Y-1592173D01*
X3115818Y-1585823D01*
X3113887Y-1580388D01*
X3110788Y-1575511D01*
X3106724Y-1571396D01*
X3101797Y-1568297D01*
X3096361Y-1566418D01*
X3090011Y-1565706D01*
X3066948Y-1565706D01*
G37*
G36*
X2060346Y-1608582D02*
G01*
X2109927Y-1608582D01*
X2109927Y-1566773D01*
X2109216Y-1560423D01*
X2107285Y-1554988D01*
X2104186Y-1550111D01*
X2100122Y-1545996D01*
X2095195Y-1542897D01*
X2089759Y-1541018D01*
X2083409Y-1540306D01*
X2060346Y-1540306D01*
G37*
G36*
X1938070Y-1608582D02*
G01*
X1987651Y-1608582D01*
X1987651Y-1540306D01*
X1964588Y-1540306D01*
X1958238Y-1541018D01*
X1952802Y-1542897D01*
X1947875Y-1545996D01*
X1943811Y-1550111D01*
X1940712Y-1554988D01*
X1938782Y-1560423D01*
X1938070Y-1566773D01*
G37*
G36*
X3332276Y-1556816D02*
G01*
X3345383Y-1556816D01*
X3345383Y-1514754D01*
X3305810Y-1514754D01*
X3305810Y-1530350D01*
X3306521Y-1536649D01*
X3308400Y-1542135D01*
X3311499Y-1547012D01*
X3315614Y-1551127D01*
X3320491Y-1554175D01*
X3325977Y-1556105D01*
G37*
G36*
X3398062Y-1556816D02*
G01*
X3411118Y-1556816D01*
X3417468Y-1556105D01*
X3422904Y-1554175D01*
X3427831Y-1551127D01*
X3431895Y-1547012D01*
X3433114Y-1545132D01*
X3435908Y-1542186D01*
X3439668Y-1540560D01*
X3443732Y-1540560D01*
X3447491Y-1542186D01*
X3450285Y-1545132D01*
X3451504Y-1547012D01*
X3455568Y-1551127D01*
X3460496Y-1554175D01*
X3465931Y-1556105D01*
X3472281Y-1556816D01*
X3551123Y-1556816D01*
X3557422Y-1556105D01*
X3562908Y-1554175D01*
X3567785Y-1551127D01*
X3571900Y-1547012D01*
X3574999Y-1542135D01*
X3576878Y-1536649D01*
X3577234Y-1533448D01*
X3578199Y-1530146D01*
X3580231Y-1527352D01*
X3583025Y-1525371D01*
X3586327Y-1524457D01*
X3593947Y-1523695D01*
X3600399Y-1521764D01*
X3604564Y-1521409D01*
X3613048Y-1522425D01*
X3623665Y-1522018D01*
X3634028Y-1519885D01*
X3643934Y-1516126D01*
X3653129Y-1510842D01*
X3661359Y-1504137D01*
X3668369Y-1496212D01*
X3674059Y-1487220D01*
X3678224Y-1477467D01*
X3680714Y-1467205D01*
X3681577Y-1456639D01*
X3680714Y-1446022D01*
X3678224Y-1435760D01*
X3674059Y-1426006D01*
X3668369Y-1417015D01*
X3661359Y-1409090D01*
X3653129Y-1402384D01*
X3643934Y-1397101D01*
X3634028Y-1393342D01*
X3623665Y-1391208D01*
X3613048Y-1390802D01*
X3602532Y-1392072D01*
X3592372Y-1395018D01*
X3582771Y-1399540D01*
X3574034Y-1405585D01*
X3566312Y-1413002D01*
X3562553Y-1415288D01*
X3558133Y-1415796D01*
X3551123Y-1414983D01*
X3472281Y-1414983D01*
X3465931Y-1415694D01*
X3460496Y-1417624D01*
X3455568Y-1420672D01*
X3451504Y-1424787D01*
X3450285Y-1426667D01*
X3447491Y-1429613D01*
X3443732Y-1431239D01*
X3439668Y-1431239D01*
X3435908Y-1429613D01*
X3433114Y-1426667D01*
X3431895Y-1424787D01*
X3427831Y-1420672D01*
X3422904Y-1417624D01*
X3417468Y-1415694D01*
X3411118Y-1414983D01*
X3398062Y-1414983D01*
X3398062Y-1457045D01*
X3435604Y-1457045D01*
X3439515Y-1457807D01*
X3442817Y-1460042D01*
X3445001Y-1463344D01*
X3445764Y-1467205D01*
X3445764Y-1504594D01*
X3445001Y-1508455D01*
X3442817Y-1511757D01*
X3439515Y-1513992D01*
X3435604Y-1514754D01*
X3398062Y-1514754D01*
G37*
G36*
X3229254Y-1494790D02*
G01*
X3244850Y-1494790D01*
X3251149Y-1494078D01*
X3256635Y-1492199D01*
X3261512Y-1489100D01*
X3265627Y-1484985D01*
X3268675Y-1480108D01*
X3270605Y-1474622D01*
X3271316Y-1468323D01*
X3271316Y-1455216D01*
X3229254Y-1455216D01*
G37*
G36*
X3155950Y-1494790D02*
G01*
X3171545Y-1494790D01*
X3171545Y-1455216D01*
X3129483Y-1455216D01*
X3129483Y-1468323D01*
X3130194Y-1474622D01*
X3132124Y-1480108D01*
X3135172Y-1484985D01*
X3139287Y-1489100D01*
X3144164Y-1492199D01*
X3149650Y-1494078D01*
G37*
G36*
X3305810Y-1457045D02*
G01*
X3345383Y-1457045D01*
X3345383Y-1414983D01*
X3332276Y-1414983D01*
X3325977Y-1415694D01*
X3320491Y-1417624D01*
X3315614Y-1420672D01*
X3311499Y-1424787D01*
X3308400Y-1429664D01*
X3306521Y-1435150D01*
X3305810Y-1441450D01*
G37*
G36*
X2889148Y-1431493D02*
G01*
X2912211Y-1431493D01*
X2918561Y-1430782D01*
X2923997Y-1428902D01*
X2928924Y-1425803D01*
X2932988Y-1421688D01*
X2936087Y-1416812D01*
X2938018Y-1411376D01*
X2938729Y-1405026D01*
X2938729Y-1363218D01*
X2889148Y-1363218D01*
G37*
G36*
X3129483Y-1402537D02*
G01*
X3171545Y-1402537D01*
X3171545Y-1364996D01*
X3172307Y-1361084D01*
X3174542Y-1357782D01*
X3177844Y-1355598D01*
X3181705Y-1354836D01*
X3219094Y-1354836D01*
X3222955Y-1355598D01*
X3226257Y-1357782D01*
X3228492Y-1361084D01*
X3229254Y-1364996D01*
X3229254Y-1402537D01*
X3271316Y-1402537D01*
X3271316Y-1389481D01*
X3270605Y-1383131D01*
X3268675Y-1377696D01*
X3265627Y-1372768D01*
X3261512Y-1368704D01*
X3259632Y-1367485D01*
X3256686Y-1364691D01*
X3255060Y-1360932D01*
X3255060Y-1356868D01*
X3256686Y-1353108D01*
X3259632Y-1350314D01*
X3261512Y-1349095D01*
X3265627Y-1345031D01*
X3268675Y-1340104D01*
X3270605Y-1334668D01*
X3270859Y-1332484D01*
X3271875Y-1329029D01*
X3273958Y-1326184D01*
X3276955Y-1324254D01*
X3280410Y-1323441D01*
X3322574Y-1321308D01*
X3466592Y-1321308D01*
X3474618Y-1320495D01*
X3487115Y-1316532D01*
X3491331Y-1317142D01*
X3492703Y-1317650D01*
X3505200Y-1320393D01*
X3517900Y-1321257D01*
X3530600Y-1320393D01*
X3543096Y-1317650D01*
X3555034Y-1313180D01*
X3566210Y-1307084D01*
X3576421Y-1299464D01*
X3585464Y-1290421D01*
X3593084Y-1280210D01*
X3599179Y-1269034D01*
X3603650Y-1257096D01*
X3606393Y-1244600D01*
X3607257Y-1231900D01*
X3606393Y-1219200D01*
X3603650Y-1206703D01*
X3599179Y-1194765D01*
X3593084Y-1183589D01*
X3585464Y-1173378D01*
X3576421Y-1164336D01*
X3566210Y-1156716D01*
X3555034Y-1150620D01*
X3543096Y-1146149D01*
X3530600Y-1143406D01*
X3517900Y-1142542D01*
X3505200Y-1143406D01*
X3492703Y-1146149D01*
X3480765Y-1150620D01*
X3469589Y-1156716D01*
X3459378Y-1164336D01*
X3450336Y-1173378D01*
X3442715Y-1183589D01*
X3436620Y-1194765D01*
X3432149Y-1206703D01*
X3429406Y-1219200D01*
X3428034Y-1237335D01*
X3425901Y-1240840D01*
X3422548Y-1243228D01*
X3418484Y-1244092D01*
X3319068Y-1244142D01*
X3279394Y-1246174D01*
X3275126Y-1245463D01*
X3271520Y-1243076D01*
X3269284Y-1239418D01*
X3268675Y-1237691D01*
X3265627Y-1232814D01*
X3261512Y-1228699D01*
X3256635Y-1225600D01*
X3251149Y-1223721D01*
X3244850Y-1223010D01*
X3155950Y-1223010D01*
X3149650Y-1223721D01*
X3144164Y-1225600D01*
X3139287Y-1228699D01*
X3135172Y-1232814D01*
X3132124Y-1237691D01*
X3130143Y-1243380D01*
X3127959Y-1246936D01*
X3124606Y-1249324D01*
X3120542Y-1250188D01*
X3099714Y-1250188D01*
X3095802Y-1249426D01*
X3092500Y-1247190D01*
X2727909Y-882650D01*
X2721711Y-877519D01*
X2715006Y-873963D01*
X2707792Y-871778D01*
X2699766Y-870966D01*
X2635453Y-870966D01*
X2631592Y-870203D01*
X2628290Y-867968D01*
X2626106Y-864717D01*
X2625293Y-860806D01*
X2625293Y-850290D01*
X2624582Y-843940D01*
X2622702Y-838504D01*
X2619603Y-833577D01*
X2615488Y-829513D01*
X2610612Y-826414D01*
X2605176Y-824484D01*
X2598826Y-823772D01*
X2404973Y-823772D01*
X2398623Y-824484D01*
X2393188Y-826414D01*
X2388311Y-829513D01*
X2384196Y-833577D01*
X2381097Y-838504D01*
X2379218Y-843940D01*
X2378506Y-850290D01*
X2378506Y-969111D01*
X2379218Y-975461D01*
X2381097Y-980897D01*
X2384196Y-985824D01*
X2388311Y-989888D01*
X2393188Y-992987D01*
X2398623Y-994918D01*
X2404973Y-995629D01*
X2598826Y-995629D01*
X2605176Y-994918D01*
X2610612Y-992987D01*
X2615488Y-989888D01*
X2619603Y-985824D01*
X2622702Y-980897D01*
X2624582Y-975461D01*
X2625293Y-969111D01*
X2625293Y-958342D01*
X2626106Y-954430D01*
X2628290Y-951179D01*
X2631592Y-948944D01*
X2635453Y-948182D01*
X2680055Y-948182D01*
X2683967Y-948944D01*
X2687269Y-951179D01*
X2903423Y-1167333D01*
X2905658Y-1170635D01*
X2906420Y-1174546D01*
X2905658Y-1178407D01*
X2903423Y-1181709D01*
X2900172Y-1183894D01*
X2896260Y-1184706D01*
X2889148Y-1184706D01*
X2889148Y-1252982D01*
X2938729Y-1252982D01*
X2938729Y-1227124D01*
X2939491Y-1223264D01*
X2941675Y-1219962D01*
X2944977Y-1217726D01*
X2948889Y-1216964D01*
X2952750Y-1217726D01*
X2956052Y-1219962D01*
X3051860Y-1315720D01*
X3058058Y-1320850D01*
X3064764Y-1324406D01*
X3071977Y-1326591D01*
X3080004Y-1327404D01*
X3120440Y-1327404D01*
X3124504Y-1328267D01*
X3127908Y-1330655D01*
X3130042Y-1334211D01*
X3132124Y-1340104D01*
X3135172Y-1345031D01*
X3139287Y-1349095D01*
X3141167Y-1350314D01*
X3144113Y-1353108D01*
X3145739Y-1356868D01*
X3145739Y-1360932D01*
X3144113Y-1364691D01*
X3141167Y-1367485D01*
X3139287Y-1368704D01*
X3135172Y-1372768D01*
X3132124Y-1377696D01*
X3130194Y-1383131D01*
X3129483Y-1389481D01*
G37*
G36*
X2766872Y-1252982D02*
G01*
X2816453Y-1252982D01*
X2816453Y-1184706D01*
X2793390Y-1184706D01*
X2787040Y-1185418D01*
X2781604Y-1187297D01*
X2776677Y-1190396D01*
X2772613Y-1194511D01*
X2769514Y-1199388D01*
X2767584Y-1204823D01*
X2766872Y-1211173D01*
G37*
G36*
X3517900Y-1067257D02*
G01*
X3530600Y-1066393D01*
X3543096Y-1063650D01*
X3555034Y-1059180D01*
X3566210Y-1053084D01*
X3576421Y-1045464D01*
X3585464Y-1036421D01*
X3593084Y-1026210D01*
X3599179Y-1015034D01*
X3603650Y-1003096D01*
X3606393Y-990600D01*
X3607257Y-977900D01*
X3606393Y-965200D01*
X3603650Y-952703D01*
X3599179Y-940765D01*
X3593084Y-929589D01*
X3585464Y-919378D01*
X3576421Y-910336D01*
X3566210Y-902716D01*
X3555034Y-896619D01*
X3543096Y-892149D01*
X3530600Y-889406D01*
X3517900Y-888542D01*
X3505200Y-889406D01*
X3492703Y-892149D01*
X3480765Y-896619D01*
X3469589Y-902716D01*
X3459378Y-910336D01*
X3450336Y-919378D01*
X3442715Y-929589D01*
X3440277Y-934008D01*
X3438042Y-936802D01*
X3434943Y-938631D01*
X3431387Y-939292D01*
X3387801Y-939292D01*
X3383584Y-938377D01*
X3380130Y-935837D01*
X3378047Y-932078D01*
X3377742Y-927760D01*
X3379215Y-923747D01*
X3380587Y-921512D01*
X3382518Y-916076D01*
X3383229Y-909726D01*
X3383229Y-715873D01*
X3382518Y-709523D01*
X3380587Y-704088D01*
X3377488Y-699211D01*
X3373424Y-695096D01*
X3368497Y-691997D01*
X3363061Y-690118D01*
X3356711Y-689406D01*
X3237890Y-689406D01*
X3231540Y-690118D01*
X3226104Y-691997D01*
X3221177Y-695096D01*
X3217113Y-699211D01*
X3214014Y-704088D01*
X3212084Y-709523D01*
X3211372Y-715873D01*
X3211372Y-909726D01*
X3212084Y-916076D01*
X3214014Y-921512D01*
X3217113Y-926388D01*
X3221177Y-930503D01*
X3226104Y-933602D01*
X3231540Y-935482D01*
X3237890Y-936193D01*
X3248660Y-936193D01*
X3252317Y-936904D01*
X3255467Y-938834D01*
X3257753Y-941781D01*
X3258769Y-945387D01*
X3259480Y-952550D01*
X3261664Y-959764D01*
X3265220Y-966469D01*
X3270351Y-972667D01*
X3302508Y-1004824D01*
X3308756Y-1009954D01*
X3315411Y-1013510D01*
X3322624Y-1015695D01*
X3330651Y-1016508D01*
X3431387Y-1016508D01*
X3434943Y-1017168D01*
X3438042Y-1018997D01*
X3440277Y-1021791D01*
X3442715Y-1026210D01*
X3450336Y-1036421D01*
X3459378Y-1045464D01*
X3469589Y-1053084D01*
X3480765Y-1059180D01*
X3492703Y-1063650D01*
X3505200Y-1066393D01*
G37*
G36*
X977900Y1425803D02*
G01*
X992073Y1426718D01*
X1006043Y1429461D01*
X1019505Y1433931D01*
X1032306Y1440078D01*
X1044244Y1447850D01*
X1055065Y1457045D01*
X1064615Y1467561D01*
X1072743Y1479194D01*
X1079296Y1491792D01*
X1084224Y1505153D01*
X1087374Y1519021D01*
X1088745Y1533144D01*
X1088288Y1547368D01*
X1086002Y1561388D01*
X1081989Y1575003D01*
X1076198Y1588008D01*
X1068832Y1600149D01*
X1059992Y1611274D01*
X1049782Y1621129D01*
X1038402Y1629613D01*
X1026007Y1636623D01*
X1012850Y1641957D01*
X999083Y1645564D01*
X985012Y1647342D01*
X970787Y1647342D01*
X956716Y1645564D01*
X942949Y1641957D01*
X929792Y1636623D01*
X917397Y1629613D01*
X906018Y1621129D01*
X895807Y1611274D01*
X886968Y1600149D01*
X879602Y1588008D01*
X873861Y1575003D01*
X869797Y1561388D01*
X867511Y1547368D01*
X867054Y1533144D01*
X868426Y1519021D01*
X871575Y1505153D01*
X876503Y1491792D01*
X883056Y1479194D01*
X891184Y1467561D01*
X900734Y1457045D01*
X911555Y1447850D01*
X923493Y1440078D01*
X936294Y1433931D01*
X949756Y1429461D01*
X963726Y1426718D01*
G37*

%LPD*%
G36*
X6015126Y-3810000D02*
G01*
X6011214Y-3809237D01*
X6007912Y-3807002D01*
X5610809Y-3409899D01*
X5608574Y-3406597D01*
X5607812Y-3402685D01*
X5607812Y-2173630D01*
X5608523Y-2169972D01*
X5610453Y-2166772D01*
X5613450Y-2164537D01*
X5617057Y-2163521D01*
X5620816Y-2163876D01*
X5630875Y-2166823D01*
X5641390Y-2168093D01*
X5652008Y-2167636D01*
X5662371Y-2165553D01*
X5672277Y-2161794D01*
X5681472Y-2156460D01*
X5689701Y-2149754D01*
X5696712Y-2141829D01*
X5702401Y-2132888D01*
X5706567Y-2123135D01*
X5709056Y-2112822D01*
X5709920Y-2102256D01*
X5709056Y-2091689D01*
X5706567Y-2081377D01*
X5702401Y-2071624D01*
X5696712Y-2062683D01*
X5689701Y-2054758D01*
X5686399Y-2052066D01*
X5683656Y-2048560D01*
X5682691Y-2044192D01*
X5682691Y-314604D01*
X5683504Y-310591D01*
X5685840Y-307238D01*
X5689346Y-305054D01*
X5693410Y-304444D01*
X5697372Y-305511D01*
X5700572Y-308051D01*
X5702554Y-311658D01*
X5703265Y-313944D01*
X5706821Y-320649D01*
X5711952Y-326847D01*
X5734507Y-349453D01*
X5736640Y-352602D01*
X5737504Y-356260D01*
X5736945Y-360019D01*
X5735015Y-363270D01*
X5732068Y-365607D01*
X5728462Y-366725D01*
X5724347Y-367182D01*
X5718911Y-369112D01*
X5713984Y-372211D01*
X5709920Y-376275D01*
X5706821Y-381203D01*
X5704890Y-386638D01*
X5704179Y-392988D01*
X5704179Y-1054811D01*
X5704890Y-1061161D01*
X5706821Y-1066596D01*
X5709920Y-1071524D01*
X5713984Y-1075588D01*
X5718911Y-1078687D01*
X5724347Y-1080617D01*
X5730646Y-1081328D01*
X5751626Y-1081328D01*
X5754928Y-1081836D01*
X5757875Y-1083462D01*
X5760110Y-1085900D01*
X5816498Y-1171752D01*
X5821527Y-1178560D01*
X5823458Y-1180846D01*
X5829401Y-1186789D01*
X5831636Y-1188720D01*
X5838342Y-1193698D01*
X5840882Y-1195273D01*
X5848299Y-1199235D01*
X5850991Y-1200404D01*
X5858916Y-1203198D01*
X5861761Y-1203960D01*
X5869990Y-1205534D01*
X5872937Y-1205890D01*
X5881420Y-1206195D01*
X6060948Y-1203655D01*
X6073749Y-1202385D01*
X6084671Y-1199489D01*
X6095085Y-1194968D01*
X6104737Y-1189024D01*
X6113627Y-1181404D01*
X6205118Y-1090625D01*
X6210554Y-1084072D01*
X6212230Y-1081735D01*
X6216650Y-1074470D01*
X6217920Y-1071930D01*
X6222085Y-1061415D01*
X6224117Y-1053134D01*
X6224625Y-1050340D01*
X6225438Y-1041857D01*
X6225489Y-945387D01*
X6226251Y-941476D01*
X6228486Y-938174D01*
X6466484Y-700176D01*
X6469786Y-697992D01*
X6473647Y-697230D01*
X6641439Y-697230D01*
X6647738Y-696518D01*
X6653225Y-694588D01*
X6658102Y-691489D01*
X6661150Y-688492D01*
X6664452Y-686257D01*
X6668312Y-685495D01*
X6794144Y-685495D01*
X6805828Y-684631D01*
X6816852Y-682091D01*
X6827418Y-677976D01*
X6837222Y-672287D01*
X6846112Y-665226D01*
X6853834Y-656894D01*
X6860235Y-647547D01*
X6865112Y-637336D01*
X6868464Y-626465D01*
X6870192Y-615289D01*
X6870192Y-603910D01*
X6868464Y-592734D01*
X6865112Y-581863D01*
X6860235Y-571652D01*
X6853834Y-562305D01*
X6846112Y-553974D01*
X6837222Y-546912D01*
X6827418Y-541223D01*
X6816852Y-537108D01*
X6805828Y-534568D01*
X6794144Y-533704D01*
X6678066Y-533704D01*
X6674154Y-532942D01*
X6670903Y-530707D01*
X6668668Y-527405D01*
X6667906Y-523544D01*
X6667906Y-493877D01*
X6667195Y-487578D01*
X6665264Y-482092D01*
X6662216Y-477215D01*
X6658102Y-473100D01*
X6653225Y-470001D01*
X6647738Y-468122D01*
X6641439Y-467410D01*
X6473647Y-467410D01*
X6469735Y-466648D01*
X6466433Y-464413D01*
X6366713Y-364693D01*
X6364478Y-361391D01*
X6363716Y-357479D01*
X6363716Y-161391D01*
X6364427Y-157734D01*
X6366408Y-154533D01*
X6369405Y-152298D01*
X6372961Y-151282D01*
X6376720Y-151638D01*
X6386830Y-154584D01*
X6397345Y-155854D01*
X6407962Y-155448D01*
X6418326Y-153314D01*
X6428232Y-149555D01*
X6437426Y-144272D01*
X6445656Y-137566D01*
X6452666Y-129641D01*
X6458356Y-120650D01*
X6462522Y-110896D01*
X6465011Y-100634D01*
X6465874Y-90068D01*
X6465011Y-79451D01*
X6462522Y-69189D01*
X6458356Y-59436D01*
X6452666Y-50444D01*
X6445656Y-42519D01*
X6437426Y-35814D01*
X6428232Y-30530D01*
X6418326Y-26771D01*
X6407962Y-24638D01*
X6397345Y-24231D01*
X6391554Y-24485D01*
X6388658Y-23469D01*
X6386220Y-21640D01*
X6361836Y2743D01*
X6359652Y5994D01*
X6358890Y9906D01*
X6359652Y13766D01*
X6361836Y17068D01*
X6478524Y133756D01*
X6483654Y140004D01*
X6487210Y146659D01*
X6489395Y153924D01*
X6490208Y161950D01*
X6490208Y1135735D01*
X6491173Y1140104D01*
X6493967Y1143609D01*
X6497218Y1146302D01*
X6504279Y1154226D01*
X6509918Y1163167D01*
X6514084Y1172921D01*
X6516624Y1183233D01*
X6517487Y1193800D01*
X6516624Y1204366D01*
X6514084Y1214678D01*
X6509918Y1224432D01*
X6504279Y1233373D01*
X6497218Y1241298D01*
X6489039Y1248003D01*
X6479844Y1253337D01*
X6469938Y1257096D01*
X6459524Y1259179D01*
X6448958Y1259636D01*
X6438442Y1258366D01*
X6428232Y1255369D01*
X6418681Y1250848D01*
X6409944Y1244803D01*
X6402273Y1237488D01*
X6395923Y1229004D01*
X6390995Y1219606D01*
X6387642Y1209548D01*
X6385915Y1199083D01*
X6385915Y1193241D01*
X6385052Y1189075D01*
X6382461Y1185621D01*
X6378702Y1183538D01*
X6374434Y1183182D01*
X6370370Y1184656D01*
X6365697Y1187602D01*
X6360261Y1189482D01*
X6353911Y1190193D01*
X6349339Y1190193D01*
X6345428Y1191006D01*
X6342176Y1193190D01*
X6339941Y1196492D01*
X6339179Y1200353D01*
X6339941Y1204264D01*
X6342176Y1207566D01*
X6667804Y1533194D01*
X6671106Y1535430D01*
X6675018Y1536192D01*
X7650581Y1536192D01*
X7654493Y1535430D01*
X7657795Y1533194D01*
X8149894Y1041095D01*
X8152130Y1037793D01*
X8152892Y1033881D01*
X8152892Y-2684881D01*
X8152130Y-2688793D01*
X8149894Y-2692095D01*
X7976717Y-2865272D01*
X7973263Y-2867558D01*
X7969148Y-2868218D01*
X7960258Y-2867863D01*
X7949742Y-2869133D01*
X7939531Y-2872130D01*
X7929981Y-2876651D01*
X7921244Y-2882696D01*
X7913573Y-2890012D01*
X7907223Y-2898495D01*
X7902295Y-2907893D01*
X7898942Y-2917952D01*
X7897215Y-2928416D01*
X7897215Y-2938983D01*
X7898942Y-2949448D01*
X7902295Y-2959506D01*
X7907223Y-2968904D01*
X7913573Y-2977388D01*
X7921244Y-2984703D01*
X7929981Y-2990748D01*
X7939531Y-2995269D01*
X7949742Y-2998266D01*
X7960258Y-2999536D01*
X7970824Y-2999079D01*
X7981238Y-2996996D01*
X7991144Y-2993237D01*
X8000339Y-2987903D01*
X8008518Y-2981198D01*
X8015579Y-2973273D01*
X8021218Y-2964332D01*
X8025384Y-2954578D01*
X8027924Y-2944266D01*
X8028787Y-2933700D01*
X8028330Y-2927959D01*
X8028889Y-2923641D01*
X8031276Y-2919933D01*
X8218424Y-2732735D01*
X8223554Y-2726537D01*
X8227110Y-2719832D01*
X8229295Y-2712618D01*
X8230108Y-2704592D01*
X8230108Y1053592D01*
X8229295Y1061618D01*
X8227110Y1068832D01*
X8223554Y1075537D01*
X8218424Y1081735D01*
X7698435Y1601724D01*
X7692237Y1606854D01*
X7685531Y1610410D01*
X7678318Y1612595D01*
X7670292Y1613408D01*
X6655308Y1613408D01*
X6647281Y1612595D01*
X6640068Y1610410D01*
X6633362Y1606854D01*
X6627164Y1601724D01*
X6267551Y1242161D01*
X6262420Y1235913D01*
X6258864Y1229258D01*
X6256680Y1222044D01*
X6255918Y1214018D01*
X6255918Y1200353D01*
X6255105Y1196492D01*
X6252921Y1193190D01*
X6249619Y1191006D01*
X6245758Y1190193D01*
X6235090Y1190193D01*
X6228740Y1189482D01*
X6223304Y1187602D01*
X6218377Y1184503D01*
X6214313Y1180388D01*
X6211214Y1175512D01*
X6209284Y1170076D01*
X6208572Y1163726D01*
X6208572Y969873D01*
X6209284Y963523D01*
X6211214Y958087D01*
X6214313Y953211D01*
X6218377Y949096D01*
X6223304Y945997D01*
X6228740Y944118D01*
X6235090Y943406D01*
X6353911Y943406D01*
X6360261Y944118D01*
X6365697Y945997D01*
X6370624Y949096D01*
X6374688Y953211D01*
X6377787Y958087D01*
X6379718Y963523D01*
X6380429Y969873D01*
X6380429Y1148791D01*
X6381292Y1152906D01*
X6383731Y1156309D01*
X6387338Y1158443D01*
X6391503Y1158900D01*
X6395516Y1157681D01*
X6398666Y1154887D01*
X6402273Y1150112D01*
X6409893Y1142847D01*
X6412179Y1139494D01*
X6412992Y1135532D01*
X6412992Y181610D01*
X6412230Y177749D01*
X6409994Y174447D01*
X6287058Y51511D01*
X6283756Y49276D01*
X6279896Y48514D01*
X6016904Y48514D01*
X6012992Y49276D01*
X6009690Y51511D01*
X6007506Y54762D01*
X6006744Y58674D01*
X6007506Y62585D01*
X6009690Y65836D01*
X6165088Y221234D01*
X6167983Y223266D01*
X6171387Y224180D01*
X6184900Y222910D01*
X6194602Y223774D01*
X6204000Y226314D01*
X6212840Y230428D01*
X6220815Y236016D01*
X6227673Y242874D01*
X6233261Y250850D01*
X6237376Y259689D01*
X6239916Y269087D01*
X6240830Y279247D01*
X6240830Y370332D01*
X6239916Y380492D01*
X6237376Y389890D01*
X6233261Y398729D01*
X6227673Y406704D01*
X6220815Y413613D01*
X6212840Y419201D01*
X6204000Y423316D01*
X6194602Y425805D01*
X6184900Y426669D01*
X6178397Y426110D01*
X6174333Y426567D01*
X6170777Y428650D01*
X6168288Y431952D01*
X6167374Y435914D01*
X6168085Y439978D01*
X6170320Y443382D01*
X6229350Y502462D01*
X6234480Y508660D01*
X6238036Y515366D01*
X6240221Y522579D01*
X6240983Y529945D01*
X6241999Y533501D01*
X6244234Y536448D01*
X6247434Y538429D01*
X6251092Y539089D01*
X6261912Y539089D01*
X6268262Y539800D01*
X6273698Y541731D01*
X6278626Y544779D01*
X6282690Y548894D01*
X6285788Y553770D01*
X6287719Y559257D01*
X6288430Y565556D01*
X6288430Y586232D01*
X6289090Y589889D01*
X6291072Y593090D01*
X6294069Y595325D01*
X6297676Y596341D01*
X6304940Y597001D01*
X6308699Y596646D01*
X6311442Y595833D01*
X6321958Y594563D01*
X6332524Y595020D01*
X6342938Y597103D01*
X6352844Y600862D01*
X6362039Y606196D01*
X6370218Y612902D01*
X6377279Y620826D01*
X6382918Y629767D01*
X6387084Y639521D01*
X6389624Y649833D01*
X6390487Y660400D01*
X6389624Y670966D01*
X6387084Y681278D01*
X6382918Y691032D01*
X6377279Y699973D01*
X6370218Y707898D01*
X6362039Y714603D01*
X6352844Y719937D01*
X6342938Y723696D01*
X6332524Y725779D01*
X6321958Y726236D01*
X6311442Y724966D01*
X6301232Y721969D01*
X6294526Y718820D01*
X6290513Y717854D01*
X6286449Y718566D01*
X6282994Y720801D01*
X6278626Y725220D01*
X6273698Y728268D01*
X6268262Y730199D01*
X6261912Y730910D01*
X6168186Y730910D01*
X6164275Y731672D01*
X6160973Y733907D01*
X6158788Y737158D01*
X6158026Y741070D01*
X6158026Y1179169D01*
X6157214Y1187196D01*
X6155029Y1194409D01*
X6151473Y1201115D01*
X6146342Y1207312D01*
X5917031Y1436624D01*
X5910783Y1441754D01*
X5904128Y1445310D01*
X5896914Y1447495D01*
X5888888Y1448308D01*
X5784443Y1448308D01*
X5780786Y1448968D01*
X5777687Y1450898D01*
X5775401Y1453794D01*
X5774334Y1457350D01*
X5773978Y1460449D01*
X5772099Y1465935D01*
X5769000Y1470812D01*
X5764885Y1474927D01*
X5760008Y1477975D01*
X5754522Y1479905D01*
X5748223Y1480616D01*
X5669381Y1480616D01*
X5663031Y1479905D01*
X5657596Y1477975D01*
X5652668Y1474927D01*
X5648604Y1470812D01*
X5647385Y1468932D01*
X5644591Y1465986D01*
X5640832Y1464360D01*
X5636768Y1464360D01*
X5633008Y1465986D01*
X5630214Y1468932D01*
X5628995Y1470812D01*
X5624931Y1474927D01*
X5620004Y1477975D01*
X5614568Y1479905D01*
X5608218Y1480616D01*
X5595162Y1480616D01*
X5595162Y1438554D01*
X5632704Y1438554D01*
X5636615Y1437792D01*
X5639917Y1435557D01*
X5642102Y1432255D01*
X5642864Y1428394D01*
X5642864Y1391005D01*
X5642102Y1387144D01*
X5639917Y1383842D01*
X5636615Y1381607D01*
X5632704Y1380845D01*
X5595162Y1380845D01*
X5595162Y1338783D01*
X5608218Y1338783D01*
X5614568Y1339494D01*
X5620004Y1341424D01*
X5624931Y1344472D01*
X5628995Y1348587D01*
X5630214Y1350467D01*
X5633008Y1353413D01*
X5636768Y1355039D01*
X5640832Y1355039D01*
X5644591Y1353413D01*
X5647385Y1350467D01*
X5648604Y1348587D01*
X5652668Y1344472D01*
X5657596Y1341424D01*
X5663031Y1339494D01*
X5669381Y1338783D01*
X5748223Y1338783D01*
X5754522Y1339494D01*
X5760008Y1341424D01*
X5764885Y1344472D01*
X5769000Y1348587D01*
X5772099Y1353464D01*
X5773978Y1358950D01*
X5774334Y1362049D01*
X5775401Y1365605D01*
X5777687Y1368501D01*
X5780786Y1370431D01*
X5784443Y1371092D01*
X5869178Y1371092D01*
X5873038Y1370330D01*
X5876340Y1368094D01*
X6057849Y1186586D01*
X6060084Y1183284D01*
X6060846Y1179423D01*
X6060846Y1121918D01*
X6070650Y1121918D01*
X6074511Y1121105D01*
X6077813Y1118920D01*
X6079998Y1115618D01*
X6080810Y1111758D01*
X6080810Y1021842D01*
X6079998Y1017981D01*
X6077813Y1014679D01*
X6074511Y1012494D01*
X6070650Y1011682D01*
X6060846Y1011682D01*
X6060846Y943406D01*
X6070650Y943406D01*
X6074511Y942594D01*
X6077813Y940409D01*
X6079998Y937107D01*
X6080810Y933246D01*
X6080810Y760120D01*
X6079998Y756208D01*
X6077813Y752906D01*
X6017310Y692404D01*
X6012180Y686206D01*
X6008624Y679500D01*
X6006439Y672287D01*
X6005677Y664260D01*
X6005677Y638810D01*
X6004814Y634847D01*
X6002528Y631494D01*
X5994958Y624179D01*
X5988608Y615746D01*
X5983681Y606348D01*
X5980277Y596290D01*
X5978601Y585825D01*
X5978601Y575208D01*
X5980277Y564743D01*
X5983681Y554685D01*
X5988608Y545287D01*
X5994958Y536854D01*
X6002578Y529488D01*
X6011316Y523443D01*
X6020917Y518922D01*
X6031077Y515975D01*
X6041593Y514705D01*
X6052210Y515112D01*
X6062573Y517245D01*
X6072479Y521004D01*
X6081674Y526288D01*
X6089904Y532993D01*
X6096914Y540918D01*
X6102654Y550113D01*
X6105245Y553669D01*
X6109055Y555853D01*
X6113424Y556209D01*
X6117539Y554685D01*
X6120638Y551535D01*
X6122314Y548894D01*
X6126378Y544779D01*
X6131306Y541731D01*
X6136894Y539750D01*
X6140399Y537667D01*
X6142786Y534365D01*
X6143701Y530402D01*
X6142939Y526389D01*
X6140704Y522985D01*
X6043777Y426059D01*
X6041644Y424434D01*
X6038799Y423316D01*
X6029960Y419201D01*
X6021984Y413613D01*
X6015126Y406704D01*
X6009538Y398729D01*
X6005423Y389890D01*
X6004204Y385470D01*
X6002172Y381558D01*
X5998718Y378917D01*
X5994400Y377952D01*
X5990082Y378917D01*
X5986627Y381558D01*
X5984595Y385470D01*
X5983376Y389890D01*
X5979261Y398729D01*
X5973673Y406704D01*
X5966815Y413613D01*
X5958840Y419201D01*
X5950000Y423316D01*
X5940602Y425805D01*
X5930900Y426669D01*
X5921197Y425805D01*
X5911799Y423316D01*
X5902960Y419201D01*
X5894984Y413613D01*
X5888126Y406704D01*
X5882538Y398729D01*
X5878423Y389890D01*
X5877204Y385470D01*
X5875172Y381558D01*
X5871718Y378917D01*
X5867400Y377952D01*
X5863082Y378917D01*
X5859627Y381558D01*
X5857595Y385470D01*
X5856376Y389890D01*
X5852261Y398729D01*
X5846673Y406704D01*
X5839815Y413613D01*
X5831840Y419201D01*
X5825236Y422249D01*
X5825236Y369163D01*
X5864809Y369163D01*
X5868720Y368401D01*
X5872022Y366166D01*
X5874207Y362864D01*
X5874969Y359003D01*
X5874969Y291033D01*
X5874207Y287172D01*
X5871565Y283413D01*
X5868314Y281228D01*
X5864402Y280466D01*
X5825236Y280466D01*
X5825236Y241300D01*
X5824474Y237388D01*
X5822289Y234086D01*
X5799886Y211734D01*
X5797346Y210007D01*
X5795772Y207568D01*
X5617108Y28956D01*
X5611977Y22707D01*
X5608421Y16052D01*
X5606237Y8839D01*
X5605475Y812D01*
X5605475Y-541578D01*
X5604662Y-545490D01*
X5602478Y-548792D01*
X5599176Y-550976D01*
X5595315Y-551738D01*
X5591403Y-550976D01*
X5588101Y-548792D01*
X5547614Y-508355D01*
X5545378Y-505053D01*
X5544616Y-501192D01*
X5544616Y-449681D01*
X5543905Y-443331D01*
X5541975Y-437896D01*
X5538927Y-432968D01*
X5534812Y-428904D01*
X5532932Y-427685D01*
X5529986Y-424891D01*
X5528360Y-421132D01*
X5528360Y-417068D01*
X5529986Y-413308D01*
X5532932Y-410514D01*
X5534812Y-409295D01*
X5538927Y-405231D01*
X5541975Y-400304D01*
X5543905Y-394868D01*
X5544616Y-388518D01*
X5544616Y-309676D01*
X5543905Y-303377D01*
X5541975Y-297891D01*
X5538927Y-293014D01*
X5534812Y-288899D01*
X5529935Y-285800D01*
X5524449Y-283921D01*
X5518150Y-283210D01*
X5466588Y-283210D01*
X5462727Y-282448D01*
X5459425Y-280212D01*
X5359298Y-180086D01*
X5357012Y-176631D01*
X5356301Y-172618D01*
X5357266Y-168605D01*
X5361076Y-160375D01*
X5362295Y-155956D01*
X5364327Y-152044D01*
X5367782Y-149402D01*
X5372100Y-148437D01*
X5376418Y-149402D01*
X5379872Y-152044D01*
X5381904Y-155956D01*
X5383123Y-160375D01*
X5387238Y-169214D01*
X5392826Y-177190D01*
X5399684Y-184099D01*
X5407660Y-189687D01*
X5414264Y-192735D01*
X5414264Y-132638D01*
X5374690Y-132638D01*
X5370779Y-131876D01*
X5367477Y-129641D01*
X5365292Y-126339D01*
X5364530Y-122478D01*
X5364530Y-40081D01*
X5365292Y-36220D01*
X5367477Y-32918D01*
X5370779Y-30683D01*
X5374690Y-29921D01*
X5414264Y-29921D01*
X5414264Y30175D01*
X5407660Y27127D01*
X5399684Y21539D01*
X5392826Y14630D01*
X5387238Y6654D01*
X5383123Y-2184D01*
X5381904Y-6604D01*
X5379872Y-10515D01*
X5376418Y-13157D01*
X5372100Y-14122D01*
X5367782Y-13157D01*
X5364327Y-10515D01*
X5362295Y-6604D01*
X5361076Y-2184D01*
X5356961Y6654D01*
X5351373Y14630D01*
X5344515Y21539D01*
X5336540Y27127D01*
X5327700Y31242D01*
X5318302Y33731D01*
X5308600Y34594D01*
X5298897Y33731D01*
X5289499Y31242D01*
X5280660Y27127D01*
X5272684Y21539D01*
X5265826Y14630D01*
X5260238Y6654D01*
X5256123Y-2184D01*
X5254904Y-6604D01*
X5252872Y-10515D01*
X5249418Y-13157D01*
X5245100Y-14122D01*
X5240782Y-13157D01*
X5237327Y-10515D01*
X5235295Y-6604D01*
X5234076Y-2184D01*
X5229961Y6654D01*
X5224373Y14630D01*
X5217515Y21539D01*
X5209540Y27127D01*
X5200700Y31242D01*
X5191302Y33731D01*
X5181600Y34594D01*
X5171897Y33731D01*
X5162499Y31242D01*
X5153660Y27127D01*
X5145684Y21539D01*
X5138826Y14630D01*
X5133238Y6654D01*
X5129123Y-2184D01*
X5127904Y-6604D01*
X5125872Y-10515D01*
X5122418Y-13157D01*
X5118100Y-14122D01*
X5113782Y-13157D01*
X5110327Y-10515D01*
X5108295Y-6604D01*
X5107076Y-2184D01*
X5102961Y6654D01*
X5097373Y14630D01*
X5090515Y21539D01*
X5082540Y27127D01*
X5073700Y31242D01*
X5064302Y33731D01*
X5054600Y34594D01*
X5044897Y33731D01*
X5035499Y31242D01*
X5026660Y27127D01*
X5018684Y21539D01*
X5011826Y14630D01*
X5006238Y6654D01*
X5002123Y-2184D01*
X5000904Y-6604D01*
X4998872Y-10515D01*
X4995418Y-13157D01*
X4991100Y-14122D01*
X4986782Y-13157D01*
X4983327Y-10515D01*
X4981295Y-6604D01*
X4980076Y-2184D01*
X4975961Y6654D01*
X4970373Y14630D01*
X4963515Y21539D01*
X4955540Y27127D01*
X4946700Y31242D01*
X4937302Y33731D01*
X4927600Y34594D01*
X4917897Y33731D01*
X4908499Y31242D01*
X4899660Y27127D01*
X4891684Y21539D01*
X4884826Y14630D01*
X4879238Y6654D01*
X4875123Y-2184D01*
X4873904Y-6604D01*
X4871872Y-10515D01*
X4868418Y-13157D01*
X4864100Y-14122D01*
X4859782Y-13157D01*
X4856327Y-10515D01*
X4854295Y-6604D01*
X4853076Y-2184D01*
X4848961Y6654D01*
X4843373Y14630D01*
X4836515Y21539D01*
X4828540Y27127D01*
X4819700Y31242D01*
X4810302Y33731D01*
X4800600Y34594D01*
X4790897Y33731D01*
X4781499Y31242D01*
X4772660Y27127D01*
X4764684Y21539D01*
X4757826Y14630D01*
X4752238Y6654D01*
X4748123Y-2184D01*
X4746904Y-6604D01*
X4744872Y-10515D01*
X4741418Y-13157D01*
X4737100Y-14122D01*
X4732782Y-13157D01*
X4729327Y-10515D01*
X4727295Y-6604D01*
X4726076Y-2184D01*
X4721961Y6654D01*
X4716373Y14630D01*
X4709515Y21539D01*
X4701540Y27127D01*
X4692700Y31242D01*
X4683302Y33731D01*
X4673600Y34594D01*
X4663897Y33731D01*
X4654499Y31242D01*
X4645660Y27127D01*
X4637684Y21539D01*
X4630826Y14630D01*
X4625238Y6654D01*
X4621123Y-2184D01*
X4619904Y-6604D01*
X4617872Y-10515D01*
X4614418Y-13157D01*
X4610100Y-14122D01*
X4605782Y-13157D01*
X4602327Y-10515D01*
X4600295Y-6604D01*
X4599076Y-2184D01*
X4594961Y6654D01*
X4589373Y14630D01*
X4582515Y21539D01*
X4574540Y27127D01*
X4565700Y31242D01*
X4556302Y33731D01*
X4546600Y34594D01*
X4540046Y34036D01*
X4535932Y34493D01*
X4532325Y36626D01*
X4529886Y39979D01*
X4528972Y44043D01*
X4529785Y48107D01*
X4532884Y55321D01*
X4535424Y65633D01*
X4536287Y76200D01*
X4535424Y86766D01*
X4532884Y97078D01*
X4528718Y106832D01*
X4523079Y115773D01*
X4516018Y123698D01*
X4512767Y126390D01*
X4509973Y129895D01*
X4509008Y134264D01*
X4509008Y279908D01*
X4509973Y284226D01*
X4512716Y287731D01*
X4516678Y289763D01*
X4521149Y289864D01*
X4525213Y288086D01*
X4528108Y284683D01*
X4586884Y175564D01*
X4592726Y167284D01*
X4599584Y160426D01*
X4607560Y154838D01*
X4616399Y150723D01*
X4625797Y148183D01*
X4635957Y147269D01*
X5172049Y147370D01*
X5178755Y148183D01*
X5181701Y148793D01*
X5188153Y150723D01*
X5190947Y151841D01*
X5196992Y154838D01*
X5199532Y156413D01*
X5204917Y160477D01*
X5207203Y162458D01*
X5211826Y167386D01*
X5213654Y169722D01*
X5217363Y175361D01*
X5300827Y341579D01*
X5303164Y344627D01*
X5306415Y346608D01*
X5310225Y347218D01*
X5313934Y346405D01*
X5317083Y344220D01*
X5364022Y297332D01*
X5366207Y294030D01*
X5366969Y290118D01*
X5366969Y176987D01*
X5366715Y174548D01*
X5365851Y172262D01*
X5362295Y165506D01*
X5358942Y155448D01*
X5357215Y144983D01*
X5357215Y134416D01*
X5358942Y123952D01*
X5362295Y113893D01*
X5367223Y104495D01*
X5373573Y96012D01*
X5381244Y88696D01*
X5389981Y82651D01*
X5399532Y78130D01*
X5409742Y75133D01*
X5420258Y73863D01*
X5430824Y74320D01*
X5441238Y76403D01*
X5451144Y80162D01*
X5460339Y85496D01*
X5468518Y92202D01*
X5475579Y100126D01*
X5481218Y109067D01*
X5485384Y118821D01*
X5487924Y129133D01*
X5488787Y139700D01*
X5487924Y150266D01*
X5485384Y160578D01*
X5481218Y170332D01*
X5479186Y174244D01*
X5478830Y177088D01*
X5478830Y317296D01*
X5478576Y322376D01*
X5477967Y327202D01*
X5476900Y331978D01*
X5475427Y336600D01*
X5473547Y341122D01*
X5471312Y345440D01*
X5468670Y349554D01*
X5465724Y353415D01*
X5462270Y357174D01*
X5438749Y380746D01*
X5436565Y383895D01*
X5435752Y387604D01*
X5436362Y391414D01*
X5438343Y394665D01*
X5441340Y397002D01*
X5454700Y400558D01*
X5463540Y404672D01*
X5471515Y410260D01*
X5478373Y417169D01*
X5483961Y425145D01*
X5488076Y433984D01*
X5490616Y443382D01*
X5491530Y453542D01*
X5491530Y572617D01*
X5490616Y582777D01*
X5488076Y592175D01*
X5483961Y601014D01*
X5478373Y608990D01*
X5471515Y615899D01*
X5463540Y621487D01*
X5454700Y625602D01*
X5445302Y628091D01*
X5435600Y628954D01*
X5425897Y628091D01*
X5416499Y625602D01*
X5407660Y621487D01*
X5399684Y615899D01*
X5392826Y608990D01*
X5387238Y601014D01*
X5383885Y593852D01*
X5381599Y590702D01*
X5378246Y588619D01*
X5374436Y588010D01*
X5370626Y588822D01*
X5367375Y591058D01*
X5365242Y594309D01*
X5364530Y598170D01*
X5364530Y652221D01*
X5365292Y656132D01*
X5367477Y659434D01*
X5485079Y777036D01*
X5488381Y779221D01*
X5492242Y779983D01*
X5519318Y779983D01*
X5525668Y780694D01*
X5531104Y782624D01*
X5536031Y785672D01*
X5540095Y789787D01*
X5541314Y791667D01*
X5544108Y794613D01*
X5547868Y796239D01*
X5551932Y796239D01*
X5555691Y794613D01*
X5558485Y791667D01*
X5559704Y789787D01*
X5563768Y785672D01*
X5568696Y782624D01*
X5574131Y780694D01*
X5580481Y779983D01*
X5593537Y779983D01*
X5593537Y822045D01*
X5555996Y822045D01*
X5552084Y822807D01*
X5548782Y825042D01*
X5546598Y828344D01*
X5545836Y832205D01*
X5545836Y869594D01*
X5546598Y873455D01*
X5548782Y876757D01*
X5552084Y878992D01*
X5555996Y879754D01*
X5593537Y879754D01*
X5593537Y921816D01*
X5580481Y921816D01*
X5574131Y921105D01*
X5568696Y919175D01*
X5563768Y916127D01*
X5559704Y912012D01*
X5558485Y910132D01*
X5555691Y907186D01*
X5551932Y905560D01*
X5547868Y905560D01*
X5544108Y907186D01*
X5541314Y910132D01*
X5540095Y912012D01*
X5536031Y916127D01*
X5531104Y919175D01*
X5525668Y921105D01*
X5519318Y921816D01*
X5495188Y921816D01*
X5491276Y922578D01*
X5487974Y924763D01*
X5485790Y928065D01*
X5485028Y931976D01*
X5485028Y1047953D01*
X5485790Y1051864D01*
X5487974Y1055166D01*
X5490514Y1058367D01*
X5493308Y1061313D01*
X5497068Y1062939D01*
X5501132Y1062939D01*
X5504891Y1061313D01*
X5507685Y1058367D01*
X5508904Y1056487D01*
X5512968Y1052372D01*
X5517896Y1049324D01*
X5523331Y1047394D01*
X5529681Y1046683D01*
X5574690Y1046683D01*
X5578602Y1045921D01*
X5581904Y1043736D01*
X5671870Y953719D01*
X5674106Y950417D01*
X5674817Y946454D01*
X5674868Y929284D01*
X5673445Y925880D01*
X5670905Y923137D01*
X5667552Y921562D01*
X5663793Y921308D01*
X5659323Y921816D01*
X5646216Y921816D01*
X5646216Y879754D01*
X5685891Y879754D01*
X5687263Y883615D01*
X5690057Y886612D01*
X5693816Y888288D01*
X5697931Y888288D01*
X5701741Y886714D01*
X5707481Y882751D01*
X5717032Y878230D01*
X5727242Y875233D01*
X5737758Y873963D01*
X5748324Y874420D01*
X5758738Y876503D01*
X5768644Y880262D01*
X5777839Y885596D01*
X5786018Y892302D01*
X5793079Y900226D01*
X5798718Y909167D01*
X5802884Y918921D01*
X5805424Y929233D01*
X5806287Y939800D01*
X5805424Y950366D01*
X5802884Y960678D01*
X5798718Y970432D01*
X5793079Y979373D01*
X5786018Y987298D01*
X5777839Y994003D01*
X5768644Y999337D01*
X5758738Y1003096D01*
X5748324Y1005179D01*
X5737758Y1005636D01*
X5731967Y1005382D01*
X5729071Y1006398D01*
X5726633Y1008176D01*
X5637987Y1096822D01*
X5635802Y1100124D01*
X5634990Y1103985D01*
X5634990Y1162050D01*
X5634278Y1168349D01*
X5632399Y1173835D01*
X5629300Y1178712D01*
X5625236Y1182827D01*
X5620308Y1185875D01*
X5614873Y1187805D01*
X5608523Y1188516D01*
X5529681Y1188516D01*
X5523331Y1187805D01*
X5517896Y1185875D01*
X5512968Y1182827D01*
X5508904Y1178712D01*
X5507685Y1176832D01*
X5504891Y1173886D01*
X5501132Y1172260D01*
X5497068Y1172260D01*
X5493308Y1173886D01*
X5490514Y1176832D01*
X5489295Y1178712D01*
X5485231Y1182827D01*
X5480304Y1185875D01*
X5474868Y1187805D01*
X5468518Y1188516D01*
X5441442Y1188516D01*
X5437581Y1189278D01*
X5434279Y1191463D01*
X5379872Y1245870D01*
X5376113Y1249324D01*
X5372252Y1252270D01*
X5368137Y1254912D01*
X5363819Y1257147D01*
X5359298Y1259027D01*
X5354675Y1260500D01*
X5349900Y1261567D01*
X5345074Y1262176D01*
X5339130Y1262430D01*
X5335371Y1263294D01*
X5332171Y1265529D01*
X5330088Y1268831D01*
X5329377Y1272641D01*
X5330139Y1276400D01*
X5332272Y1279652D01*
X5335422Y1281887D01*
X5338114Y1283055D01*
X5346039Y1288237D01*
X5352999Y1294638D01*
X5358841Y1302105D01*
X5363362Y1310436D01*
X5363667Y1311402D01*
X5292394Y1311402D01*
X5292394Y1274064D01*
X5291632Y1270203D01*
X5289448Y1266901D01*
X5286146Y1264666D01*
X5282234Y1263904D01*
X5177383Y1263904D01*
X5173472Y1264666D01*
X5170170Y1266901D01*
X5167985Y1270203D01*
X5167223Y1274064D01*
X5167223Y1311402D01*
X5095951Y1311402D01*
X5096256Y1310436D01*
X5100777Y1302105D01*
X5106568Y1294638D01*
X5113578Y1288237D01*
X5121503Y1283055D01*
X5130038Y1279296D01*
X5133238Y1277061D01*
X5135321Y1273810D01*
X5136083Y1270000D01*
X5135321Y1266190D01*
X5133238Y1262938D01*
X5130038Y1260703D01*
X5121503Y1256944D01*
X5113578Y1251762D01*
X5106568Y1245362D01*
X5100777Y1237894D01*
X5096256Y1229563D01*
X5093157Y1220571D01*
X5091633Y1211224D01*
X5091633Y1201775D01*
X5093157Y1192428D01*
X5096256Y1183436D01*
X5100777Y1175105D01*
X5106568Y1167638D01*
X5113578Y1161237D01*
X5121503Y1156055D01*
X5130038Y1152296D01*
X5133238Y1150061D01*
X5135321Y1146810D01*
X5136083Y1143000D01*
X5135321Y1139190D01*
X5133238Y1135938D01*
X5130038Y1133703D01*
X5121503Y1129944D01*
X5113578Y1124762D01*
X5109210Y1120800D01*
X5106060Y1118819D01*
X5102352Y1118108D01*
X5093208Y1118108D01*
X5085181Y1117295D01*
X5077968Y1115110D01*
X5071262Y1111554D01*
X5065064Y1106424D01*
X5043017Y1084427D01*
X5039563Y1082141D01*
X5035448Y1081481D01*
X5026558Y1081836D01*
X5016042Y1080566D01*
X5005832Y1077569D01*
X4996281Y1073048D01*
X4987544Y1067003D01*
X4979873Y1059688D01*
X4973523Y1051204D01*
X4968595Y1041806D01*
X4965242Y1031748D01*
X4963515Y1021283D01*
X4963515Y1010716D01*
X4965242Y1000252D01*
X4968595Y990193D01*
X4973523Y980795D01*
X4979873Y972312D01*
X4987544Y964996D01*
X4996281Y958951D01*
X5005832Y954430D01*
X5016042Y951433D01*
X5026558Y950163D01*
X5037124Y950620D01*
X5047538Y952703D01*
X5057444Y956462D01*
X5066588Y961796D01*
X5075529Y969111D01*
X5079136Y970991D01*
X5083200Y971346D01*
X5087061Y970026D01*
X5090109Y967333D01*
X5091887Y963625D01*
X5091988Y959561D01*
X5091633Y957224D01*
X5091633Y947775D01*
X5093157Y938428D01*
X5096256Y929436D01*
X5100777Y921105D01*
X5106568Y913637D01*
X5113578Y907237D01*
X5121503Y902055D01*
X5130190Y898245D01*
X5139334Y895908D01*
X5149240Y895096D01*
X5158232Y895096D01*
X5162092Y894334D01*
X5165394Y892098D01*
X5190794Y866698D01*
X5193030Y863396D01*
X5193792Y858367D01*
X5192979Y854405D01*
X5190693Y851052D01*
X5183073Y843787D01*
X5176723Y835304D01*
X5171795Y825906D01*
X5168442Y815848D01*
X5166715Y805383D01*
X5166715Y801928D01*
X5165852Y797814D01*
X5163362Y794359D01*
X5159705Y792276D01*
X5155539Y791819D01*
X5151475Y793140D01*
X5146344Y796137D01*
X5136438Y799896D01*
X5126024Y801979D01*
X5115458Y802436D01*
X5104942Y801166D01*
X5094732Y798169D01*
X5085181Y793648D01*
X5080000Y790092D01*
X5076698Y788619D01*
X5073040Y788365D01*
X5069535Y789482D01*
X5066639Y791718D01*
X5062118Y796798D01*
X5053939Y803503D01*
X5044744Y808837D01*
X5034838Y812596D01*
X5024424Y814679D01*
X5013858Y815136D01*
X5003342Y813866D01*
X4993132Y810869D01*
X4983581Y806348D01*
X4974844Y800303D01*
X4967173Y792988D01*
X4960823Y784504D01*
X4955895Y775106D01*
X4952542Y765048D01*
X4950815Y754583D01*
X4950815Y744016D01*
X4952542Y733552D01*
X4955895Y723493D01*
X4960823Y714095D01*
X4967173Y705612D01*
X4974793Y698347D01*
X4977079Y694994D01*
X4977892Y691032D01*
X4977892Y625348D01*
X4976926Y621030D01*
X4974285Y617524D01*
X4970373Y615492D01*
X4965954Y615340D01*
X4961890Y617016D01*
X4955540Y621487D01*
X4948936Y624535D01*
X4948936Y564438D01*
X4967732Y564438D01*
X4971643Y563676D01*
X4974894Y561441D01*
X4977130Y558139D01*
X4977892Y554278D01*
X4977892Y551688D01*
X4978704Y543661D01*
X4980889Y536448D01*
X4984445Y529742D01*
X4989576Y523544D01*
X4995722Y517347D01*
X4997907Y514045D01*
X4998669Y510184D01*
X4998669Y471881D01*
X4997907Y468020D01*
X4995722Y464718D01*
X4992420Y462483D01*
X4988509Y461721D01*
X4948936Y461721D01*
X4948936Y413359D01*
X4948174Y409498D01*
X4945989Y406196D01*
X4942687Y404012D01*
X4938776Y403199D01*
X4934915Y404012D01*
X4931613Y406196D01*
X4909210Y428548D01*
X4907026Y431850D01*
X4906264Y435762D01*
X4906264Y461721D01*
X4880254Y461721D01*
X4876393Y462483D01*
X4873091Y464718D01*
X4859477Y478332D01*
X4857292Y481634D01*
X4856530Y485495D01*
X4856530Y554278D01*
X4857292Y558139D01*
X4859477Y561441D01*
X4862779Y563676D01*
X4866690Y564438D01*
X4906264Y564438D01*
X4906264Y624535D01*
X4899660Y621487D01*
X4891684Y615899D01*
X4884826Y608990D01*
X4879238Y601014D01*
X4875123Y592175D01*
X4873904Y587756D01*
X4871872Y583844D01*
X4868418Y581202D01*
X4864100Y580237D01*
X4859782Y581202D01*
X4856327Y583844D01*
X4854295Y587756D01*
X4853076Y592175D01*
X4848961Y601014D01*
X4843373Y608990D01*
X4842205Y610209D01*
X4839970Y613511D01*
X4839208Y617372D01*
X4839208Y1218692D01*
X4838395Y1226718D01*
X4836210Y1233932D01*
X4832654Y1240637D01*
X4827524Y1246835D01*
X4713935Y1360424D01*
X4707737Y1365554D01*
X4701032Y1369110D01*
X4693818Y1371295D01*
X4685792Y1372108D01*
X4651248Y1372108D01*
X4647539Y1372819D01*
X4644390Y1374800D01*
X4639716Y1379016D01*
X4636617Y1382166D01*
X4635144Y1386382D01*
X4635652Y1390853D01*
X4638040Y1394612D01*
X4702048Y1459738D01*
X6413804Y3171494D01*
X6417106Y3173730D01*
X6421018Y3174492D01*
X6671309Y3174492D01*
X6679234Y3175254D01*
X6686448Y3177438D01*
X6693153Y3180994D01*
X6699402Y3186074D01*
X6729475Y3215995D01*
X6732778Y3218180D01*
X6736638Y3218942D01*
X6855206Y3218942D01*
X6859066Y3218180D01*
X6862368Y3215944D01*
X6864603Y3212693D01*
X6865366Y3208782D01*
X6865366Y3205886D01*
X6867144Y3191611D01*
X6870750Y3177641D01*
X6876034Y3164230D01*
X6882993Y3151581D01*
X6891477Y3139948D01*
X6901332Y3129432D01*
X6912457Y3120237D01*
X6924598Y3112516D01*
X6937654Y3106369D01*
X6951370Y3101898D01*
X6965543Y3099206D01*
X6980224Y3098292D01*
X7091375Y3098292D01*
X7106056Y3099206D01*
X7120229Y3101898D01*
X7133945Y3106369D01*
X7147001Y3112516D01*
X7159142Y3120237D01*
X7170267Y3129432D01*
X7180122Y3139948D01*
X7188606Y3151581D01*
X7195566Y3164230D01*
X7200849Y3177641D01*
X7204456Y3191611D01*
X7206234Y3205886D01*
X7206234Y3220313D01*
X7204456Y3234588D01*
X7200849Y3248558D01*
X7195566Y3261969D01*
X7188606Y3274618D01*
X7180122Y3286251D01*
X7170267Y3296767D01*
X7159142Y3305962D01*
X7147001Y3313684D01*
X7133945Y3319830D01*
X7120229Y3324301D01*
X7106056Y3326993D01*
X7091375Y3327908D01*
X6980224Y3327908D01*
X6965543Y3326993D01*
X6951370Y3324301D01*
X6937654Y3319830D01*
X6924598Y3313684D01*
X6912457Y3305962D01*
X6903415Y3298494D01*
X6900367Y3296767D01*
X6896912Y3296158D01*
X6717030Y3296158D01*
X6709105Y3295396D01*
X6701891Y3293211D01*
X6695186Y3289655D01*
X6688937Y3284575D01*
X6658864Y3254654D01*
X6655562Y3252470D01*
X6651701Y3251708D01*
X6401308Y3251708D01*
X6393281Y3250895D01*
X6386068Y3248710D01*
X6379362Y3245154D01*
X6373164Y3240024D01*
X4647336Y1514246D01*
X4529074Y1393952D01*
X4525772Y1391716D01*
X4521809Y1390904D01*
X4443222Y1390904D01*
X4433366Y1390091D01*
X4424172Y1387754D01*
X4410506Y1381760D01*
X4406239Y1382014D01*
X4402480Y1383944D01*
X4399788Y1387297D01*
X4398772Y1391412D01*
X4382160Y1828190D01*
X4386884Y1871319D01*
X4387799Y1874570D01*
X4389729Y1877314D01*
X4427220Y1915566D01*
X4430674Y1917852D01*
X4434738Y1918614D01*
X4481474Y1917242D01*
X4489500Y1917750D01*
X4496816Y1919732D01*
X4503674Y1923186D01*
X4508550Y1926793D01*
X4518710Y1935530D01*
X4522419Y1937562D01*
X4526584Y1937918D01*
X4535170Y1936851D01*
X4545736Y1937308D01*
X4556150Y1939391D01*
X4566056Y1943150D01*
X4575251Y1948484D01*
X4583430Y1955190D01*
X4590491Y1963115D01*
X4596130Y1972056D01*
X4600295Y1981809D01*
X4602835Y1992122D01*
X4603699Y2002688D01*
X4602835Y2013254D01*
X4600295Y2023567D01*
X4596130Y2033320D01*
X4590491Y2042261D01*
X4583430Y2050186D01*
X4575251Y2056892D01*
X4566056Y2062225D01*
X4556150Y2065985D01*
X4545736Y2068068D01*
X4535170Y2068525D01*
X4524654Y2067255D01*
X4514443Y2064257D01*
X4504893Y2059736D01*
X4496155Y2053691D01*
X4488484Y2046376D01*
X4482134Y2037892D01*
X4477207Y2028494D01*
X4473854Y2018436D01*
X4472127Y2007971D01*
X4472127Y2005228D01*
X4471365Y2001266D01*
X4469079Y1997913D01*
X4465675Y1995728D01*
X4461713Y1995068D01*
X4383430Y1997354D01*
X4379722Y1998218D01*
X4376572Y2000351D01*
X4349699Y2027174D01*
X4343501Y2032304D01*
X4336796Y2035860D01*
X4329582Y2038045D01*
X4321556Y2038857D01*
X4228846Y2038857D01*
X4220819Y2038045D01*
X4213606Y2035860D01*
X4206900Y2032304D01*
X4200702Y2027174D01*
X4183430Y2009952D01*
X4180179Y2007768D01*
X4176268Y2007006D01*
X4172356Y2007768D01*
X4169105Y2009952D01*
X4166870Y2013254D01*
X4166108Y2017166D01*
X4166108Y2304135D01*
X4167073Y2308504D01*
X4169867Y2312009D01*
X4173118Y2314702D01*
X4180179Y2322626D01*
X4185818Y2331567D01*
X4189984Y2341321D01*
X4192524Y2351633D01*
X4193387Y2362200D01*
X4192524Y2372766D01*
X4189984Y2383078D01*
X4185818Y2392832D01*
X4180179Y2401773D01*
X4173118Y2409698D01*
X4164939Y2416403D01*
X4155744Y2421737D01*
X4145838Y2425496D01*
X4135424Y2427579D01*
X4124858Y2428036D01*
X4114342Y2426766D01*
X4104132Y2423769D01*
X4094581Y2419248D01*
X4085844Y2413203D01*
X4078173Y2405888D01*
X4071823Y2397404D01*
X4066895Y2388006D01*
X4063542Y2377948D01*
X4061815Y2367483D01*
X4061815Y2356916D01*
X4063542Y2346452D01*
X4066895Y2336393D01*
X4071823Y2326995D01*
X4078173Y2318512D01*
X4085793Y2311247D01*
X4088079Y2307894D01*
X4088892Y2303932D01*
X4088892Y714502D01*
X4088180Y710793D01*
X4086148Y707593D01*
X4073144Y698703D01*
X4065473Y691388D01*
X4059123Y682904D01*
X4054195Y673506D01*
X4050842Y663448D01*
X4049115Y652983D01*
X4049115Y642416D01*
X4050842Y631952D01*
X4054195Y621893D01*
X4059123Y612495D01*
X4065473Y604012D01*
X4073144Y596696D01*
X4081881Y590651D01*
X4091432Y586130D01*
X4101642Y583133D01*
X4112158Y581863D01*
X4122724Y582320D01*
X4133138Y584403D01*
X4143044Y588162D01*
X4149851Y592124D01*
X4153865Y593445D01*
X4158081Y592988D01*
X4161739Y590854D01*
X4164228Y587451D01*
X4165092Y583336D01*
X4165092Y71018D01*
X4164329Y67106D01*
X4162094Y63804D01*
X4002836Y-95504D01*
X3999534Y-97688D01*
X3995674Y-98450D01*
X3991813Y-97688D01*
X3988511Y-95554D01*
X3986276Y-92252D01*
X3983685Y-86156D01*
X3982872Y-82194D01*
X3983685Y-78181D01*
X3985971Y-74828D01*
X3999839Y-66903D01*
X4008018Y-60198D01*
X4015079Y-52273D01*
X4020718Y-43332D01*
X4024884Y-33578D01*
X4027424Y-23266D01*
X4028287Y-12700D01*
X4027424Y-2133D01*
X4024884Y8178D01*
X4020718Y17932D01*
X4015079Y26873D01*
X4008018Y34798D01*
X3999839Y41503D01*
X3990644Y46837D01*
X3980738Y50596D01*
X3970324Y52679D01*
X3959758Y53136D01*
X3949242Y51866D01*
X3939032Y48869D01*
X3929481Y44348D01*
X3920744Y38303D01*
X3913073Y30988D01*
X3910076Y27787D01*
X3907282Y26365D01*
X3904183Y25908D01*
X3825341Y25908D01*
X3821684Y26568D01*
X3818534Y28549D01*
X3816299Y31495D01*
X3815232Y35052D01*
X3814419Y43789D01*
X3812184Y51155D01*
X3809390Y56337D01*
X3808323Y59436D01*
X3808323Y62738D01*
X3809390Y65887D01*
X3812133Y71018D01*
X3814368Y78435D01*
X3815130Y86106D01*
X3814368Y93776D01*
X3812133Y101142D01*
X3809390Y106273D01*
X3808323Y109423D01*
X3808323Y112725D01*
X3809390Y115874D01*
X3812184Y121005D01*
X3813352Y124968D01*
X3815334Y128625D01*
X3818585Y131114D01*
X3822547Y132181D01*
X3826611Y131572D01*
X3830116Y129387D01*
X3832453Y125983D01*
X3834942Y111252D01*
X3838295Y101193D01*
X3843223Y91795D01*
X3849573Y83312D01*
X3857244Y75996D01*
X3865981Y69951D01*
X3875532Y65430D01*
X3885742Y62433D01*
X3896258Y61163D01*
X3906824Y61620D01*
X3917238Y63703D01*
X3927144Y67462D01*
X3936339Y72796D01*
X3944518Y79502D01*
X3951579Y87426D01*
X3957218Y96367D01*
X3961384Y106121D01*
X3963924Y116433D01*
X3964787Y127000D01*
X3963924Y137566D01*
X3961384Y147878D01*
X3957218Y157632D01*
X3951579Y166573D01*
X3944518Y174498D01*
X3936339Y181203D01*
X3927144Y186537D01*
X3917238Y190296D01*
X3906824Y192379D01*
X3896258Y192836D01*
X3890467Y192582D01*
X3887571Y193598D01*
X3885133Y195376D01*
X3867454Y213055D01*
X3861206Y218186D01*
X3854551Y221742D01*
X3847337Y223926D01*
X3839311Y224688D01*
X3815334Y224688D01*
X3811473Y225501D01*
X3808120Y227736D01*
X3805936Y231038D01*
X3805174Y234950D01*
X3805986Y238861D01*
X3808984Y245821D01*
X3811524Y256133D01*
X3812387Y266700D01*
X3811524Y277266D01*
X3807663Y292557D01*
X3808374Y296418D01*
X3810457Y299720D01*
X3813606Y301955D01*
X3828338Y305003D01*
X3838244Y308762D01*
X3847439Y314096D01*
X3855618Y320802D01*
X3862679Y328726D01*
X3868318Y337667D01*
X3872484Y347421D01*
X3875024Y357733D01*
X3875887Y368300D01*
X3875024Y378866D01*
X3872484Y389178D01*
X3868318Y398932D01*
X3862679Y407873D01*
X3855618Y415798D01*
X3851656Y419049D01*
X3849065Y422249D01*
X3847947Y426262D01*
X3848506Y430326D01*
X3850640Y433882D01*
X3854043Y436270D01*
X3858056Y437083D01*
X3868674Y437083D01*
X3875024Y437794D01*
X3879443Y439369D01*
X3883151Y439928D01*
X3886860Y439064D01*
X3889959Y436930D01*
X3909568Y417322D01*
X3912057Y413359D01*
X3914495Y405993D01*
X3919423Y396595D01*
X3925773Y388112D01*
X3933444Y380796D01*
X3942181Y374751D01*
X3951732Y370230D01*
X3961942Y367233D01*
X3972458Y365963D01*
X3983024Y366420D01*
X3993438Y368503D01*
X4003344Y372262D01*
X4012539Y377596D01*
X4020718Y384302D01*
X4027779Y392226D01*
X4033418Y401167D01*
X4037584Y410921D01*
X4040124Y421233D01*
X4040987Y431800D01*
X4040124Y442366D01*
X4037584Y452678D01*
X4033418Y462432D01*
X4027779Y471373D01*
X4020718Y479298D01*
X4012539Y486003D01*
X4003344Y491337D01*
X3993438Y495096D01*
X3983024Y497179D01*
X3972458Y497636D01*
X3961942Y496366D01*
X3950614Y493014D01*
X3947007Y492607D01*
X3943502Y493471D01*
X3940556Y495554D01*
X3901135Y534924D01*
X3898900Y536803D01*
X3896156Y540308D01*
X3895191Y544677D01*
X3895191Y552450D01*
X3894480Y558749D01*
X3892550Y564235D01*
X3889451Y569112D01*
X3885387Y573227D01*
X3880459Y576275D01*
X3877919Y577189D01*
X3874515Y579170D01*
X3872128Y582371D01*
X3871112Y586181D01*
X3871671Y590092D01*
X3873652Y593496D01*
X3875379Y595426D01*
X3881018Y604367D01*
X3885184Y614121D01*
X3887724Y624433D01*
X3888587Y635000D01*
X3887724Y645566D01*
X3885184Y655878D01*
X3881018Y665632D01*
X3875379Y674573D01*
X3868318Y682498D01*
X3865067Y685190D01*
X3862273Y688695D01*
X3861308Y693877D01*
X3861968Y697484D01*
X3863898Y700633D01*
X3866794Y702919D01*
X3870350Y703986D01*
X3875024Y704494D01*
X3880459Y706424D01*
X3885387Y709472D01*
X3889451Y713587D01*
X3892550Y718464D01*
X3894480Y723950D01*
X3895191Y730250D01*
X3895191Y819150D01*
X3894480Y825449D01*
X3892550Y830935D01*
X3889451Y835812D01*
X3885387Y839927D01*
X3880459Y842975D01*
X3875024Y844905D01*
X3868674Y845616D01*
X3789832Y845616D01*
X3783533Y844905D01*
X3778046Y842975D01*
X3773170Y839927D01*
X3769055Y835812D01*
X3767886Y833932D01*
X3765042Y830986D01*
X3761333Y829360D01*
X3757218Y829360D01*
X3753510Y830986D01*
X3750665Y833932D01*
X3749497Y835812D01*
X3745382Y839927D01*
X3740505Y842975D01*
X3735019Y844905D01*
X3728720Y845616D01*
X3649827Y845616D01*
X3643528Y844905D01*
X3638042Y842975D01*
X3633165Y839927D01*
X3629050Y835812D01*
X3626002Y830935D01*
X3624072Y825449D01*
X3623360Y819150D01*
X3623360Y730250D01*
X3624072Y723950D01*
X3626002Y718464D01*
X3629050Y713587D01*
X3633165Y709472D01*
X3638042Y706424D01*
X3640328Y705612D01*
X3643833Y703529D01*
X3646220Y700227D01*
X3647135Y696264D01*
X3646373Y692251D01*
X3644137Y688848D01*
X3611930Y656640D01*
X3608679Y654456D01*
X3604768Y653694D01*
X3600856Y654456D01*
X3597605Y656640D01*
X3595370Y659942D01*
X3594608Y663854D01*
X3594608Y885952D01*
X3595115Y889050D01*
X3596538Y891895D01*
X3631844Y940866D01*
X3634079Y943152D01*
X3636924Y944575D01*
X3640074Y945083D01*
X3677920Y945083D01*
X3684219Y945794D01*
X3689705Y947724D01*
X3694582Y950772D01*
X3698697Y954887D01*
X3699865Y956767D01*
X3702710Y959713D01*
X3706418Y961339D01*
X3710533Y961339D01*
X3714242Y959713D01*
X3717086Y956767D01*
X3718255Y954887D01*
X3722370Y950772D01*
X3727246Y947724D01*
X3732733Y945794D01*
X3739032Y945083D01*
X3817874Y945083D01*
X3824224Y945794D01*
X3829659Y947724D01*
X3834587Y950772D01*
X3838651Y954887D01*
X3841750Y959764D01*
X3843680Y965250D01*
X3844036Y968349D01*
X3845102Y971905D01*
X3847337Y974801D01*
X3850487Y976731D01*
X3854094Y977392D01*
X3866083Y977392D01*
X3869182Y976934D01*
X3871976Y975512D01*
X3874973Y972312D01*
X3882644Y964996D01*
X3891381Y958951D01*
X3900932Y954430D01*
X3911142Y951433D01*
X3921658Y950163D01*
X3932224Y950620D01*
X3942638Y952703D01*
X3952544Y956462D01*
X3961739Y961796D01*
X3969918Y968502D01*
X3976979Y976426D01*
X3982618Y985367D01*
X3986784Y995121D01*
X3989324Y1005433D01*
X3990187Y1016000D01*
X3989324Y1026566D01*
X3986784Y1036878D01*
X3982618Y1046632D01*
X3976979Y1055573D01*
X3969918Y1063498D01*
X3961739Y1070203D01*
X3952544Y1075537D01*
X3942638Y1079296D01*
X3932224Y1081379D01*
X3921658Y1081836D01*
X3911142Y1080566D01*
X3900932Y1077569D01*
X3891381Y1073048D01*
X3882644Y1067003D01*
X3874973Y1059688D01*
X3871976Y1056487D01*
X3869182Y1055065D01*
X3866083Y1054608D01*
X3854094Y1054608D01*
X3850487Y1055268D01*
X3847337Y1057198D01*
X3845102Y1060094D01*
X3844036Y1063650D01*
X3843680Y1066749D01*
X3841750Y1072235D01*
X3838651Y1077112D01*
X3834587Y1081227D01*
X3829659Y1084275D01*
X3824224Y1086205D01*
X3817874Y1086916D01*
X3739032Y1086916D01*
X3732733Y1086205D01*
X3727246Y1084275D01*
X3722370Y1081227D01*
X3718255Y1077112D01*
X3717086Y1075232D01*
X3714242Y1072286D01*
X3710533Y1070660D01*
X3706418Y1070660D01*
X3702710Y1072286D01*
X3699865Y1075232D01*
X3698697Y1077112D01*
X3694582Y1081227D01*
X3689705Y1084275D01*
X3684219Y1086205D01*
X3677920Y1086916D01*
X3599027Y1086916D01*
X3592728Y1086205D01*
X3587242Y1084275D01*
X3582365Y1081227D01*
X3578250Y1077112D01*
X3575202Y1072235D01*
X3573272Y1066749D01*
X3572560Y1060450D01*
X3572560Y993952D01*
X3572052Y990853D01*
X3570630Y988009D01*
X3549497Y958697D01*
X3546398Y955852D01*
X3542334Y954532D01*
X3538169Y954989D01*
X3534460Y957071D01*
X3531971Y960526D01*
X3531108Y964641D01*
X3531108Y1120394D01*
X3532073Y1124661D01*
X3534714Y1128166D01*
X3555593Y1145895D01*
X3558692Y1147673D01*
X3562197Y1148283D01*
X3614420Y1148283D01*
X3620719Y1148994D01*
X3626205Y1150924D01*
X3631082Y1153972D01*
X3635197Y1158087D01*
X3636365Y1159967D01*
X3639210Y1162913D01*
X3642918Y1164539D01*
X3647033Y1164539D01*
X3650742Y1162913D01*
X3653586Y1159967D01*
X3654755Y1158087D01*
X3658870Y1153972D01*
X3663746Y1150924D01*
X3669233Y1148994D01*
X3675532Y1148283D01*
X3754374Y1148283D01*
X3760724Y1148994D01*
X3766159Y1150924D01*
X3771087Y1153972D01*
X3775151Y1158087D01*
X3778250Y1162964D01*
X3780180Y1168450D01*
X3780891Y1174750D01*
X3780891Y1195832D01*
X3781653Y1199743D01*
X3783837Y1202994D01*
X3787140Y1205230D01*
X3791051Y1205992D01*
X3853383Y1205992D01*
X3856482Y1205534D01*
X3859276Y1204112D01*
X3862273Y1200912D01*
X3869944Y1193596D01*
X3878681Y1187551D01*
X3888232Y1183030D01*
X3898442Y1180033D01*
X3908958Y1178763D01*
X3919524Y1179220D01*
X3929938Y1181303D01*
X3939844Y1185062D01*
X3949039Y1190396D01*
X3957218Y1197102D01*
X3964279Y1205026D01*
X3969918Y1213967D01*
X3974084Y1223721D01*
X3976624Y1234033D01*
X3977487Y1244600D01*
X3976624Y1255166D01*
X3974084Y1265478D01*
X3969918Y1275232D01*
X3964279Y1284173D01*
X3957218Y1292098D01*
X3949039Y1298803D01*
X3939844Y1304137D01*
X3929938Y1307896D01*
X3919524Y1309979D01*
X3908958Y1310436D01*
X3898442Y1309166D01*
X3888232Y1306169D01*
X3878681Y1301648D01*
X3869944Y1295603D01*
X3862273Y1288288D01*
X3859276Y1285087D01*
X3856482Y1283665D01*
X3853383Y1283208D01*
X3775913Y1283208D01*
X3773119Y1283614D01*
X3770528Y1284782D01*
X3766159Y1287475D01*
X3760724Y1289405D01*
X3754374Y1290116D01*
X3675532Y1290116D01*
X3669233Y1289405D01*
X3663746Y1287475D01*
X3658870Y1284427D01*
X3654755Y1280312D01*
X3653586Y1278432D01*
X3650742Y1275486D01*
X3647033Y1273860D01*
X3642918Y1273860D01*
X3639210Y1275486D01*
X3636365Y1278432D01*
X3635197Y1280312D01*
X3631082Y1284427D01*
X3626205Y1287475D01*
X3620719Y1289405D01*
X3614420Y1290116D01*
X3535527Y1290116D01*
X3529228Y1289405D01*
X3523742Y1287475D01*
X3518865Y1284427D01*
X3514750Y1280312D01*
X3511702Y1275435D01*
X3509772Y1269949D01*
X3509060Y1263650D01*
X3509060Y1212342D01*
X3508146Y1208074D01*
X3505454Y1204620D01*
X3497021Y1197457D01*
X3493719Y1195578D01*
X3489909Y1195070D01*
X3486200Y1195984D01*
X3483101Y1198219D01*
X3481019Y1201470D01*
X3480308Y1205230D01*
X3480308Y1325981D01*
X3481070Y1329893D01*
X3483305Y1333195D01*
X3523996Y1373936D01*
X3527298Y1376121D01*
X3531209Y1376883D01*
X3550920Y1376883D01*
X3557219Y1377594D01*
X3562705Y1379524D01*
X3567582Y1382572D01*
X3571697Y1386687D01*
X3572865Y1388567D01*
X3575710Y1391513D01*
X3579418Y1393139D01*
X3583533Y1393139D01*
X3587242Y1391513D01*
X3590086Y1388567D01*
X3591255Y1386687D01*
X3595370Y1382572D01*
X3600246Y1379524D01*
X3605733Y1377594D01*
X3612032Y1376883D01*
X3690874Y1376883D01*
X3697224Y1377594D01*
X3702659Y1379524D01*
X3707587Y1382572D01*
X3711651Y1386687D01*
X3714750Y1391564D01*
X3716680Y1397050D01*
X3717391Y1403350D01*
X3717391Y1492250D01*
X3716680Y1498549D01*
X3714750Y1504035D01*
X3711651Y1508912D01*
X3707587Y1513027D01*
X3702659Y1516075D01*
X3696817Y1518158D01*
X3693261Y1520291D01*
X3690874Y1523644D01*
X3690010Y1527708D01*
X3690010Y1980742D01*
X3690772Y1984603D01*
X3693007Y1987905D01*
X3789984Y2084933D01*
X3792474Y2086762D01*
X3795369Y2087778D01*
X3801160Y2087524D01*
X3811727Y2087930D01*
X3822141Y2090064D01*
X3832047Y2093823D01*
X3841242Y2099106D01*
X3849420Y2105812D01*
X3856482Y2113737D01*
X3862120Y2122728D01*
X3866286Y2132482D01*
X3868826Y2142744D01*
X3869690Y2153310D01*
X3868826Y2163927D01*
X3866286Y2174189D01*
X3862120Y2183942D01*
X3856482Y2192934D01*
X3849420Y2200859D01*
X3841242Y2207564D01*
X3832047Y2212848D01*
X3822141Y2216607D01*
X3811727Y2218740D01*
X3801160Y2219147D01*
X3790645Y2217877D01*
X3780434Y2214930D01*
X3770884Y2210409D01*
X3762146Y2204364D01*
X3754475Y2196998D01*
X3748125Y2188565D01*
X3743198Y2179167D01*
X3739845Y2169109D01*
X3738168Y2158695D01*
X3738219Y2146655D01*
X3737508Y2142744D01*
X3735273Y2139391D01*
X3624478Y2028596D01*
X3619347Y2022348D01*
X3615791Y2015693D01*
X3613607Y2008479D01*
X3612794Y2000453D01*
X3612794Y1527657D01*
X3611930Y1523593D01*
X3609543Y1520240D01*
X3605987Y1518107D01*
X3600246Y1516075D01*
X3595370Y1513027D01*
X3591255Y1508912D01*
X3590086Y1507032D01*
X3587242Y1504086D01*
X3583533Y1502460D01*
X3579418Y1502460D01*
X3575710Y1504086D01*
X3572865Y1507032D01*
X3571697Y1508912D01*
X3567582Y1513027D01*
X3562705Y1516075D01*
X3557219Y1518005D01*
X3550920Y1518716D01*
X3472027Y1518716D01*
X3465728Y1518005D01*
X3460242Y1516075D01*
X3455365Y1513027D01*
X3451250Y1508912D01*
X3448202Y1504035D01*
X3446272Y1498549D01*
X3445560Y1492250D01*
X3445560Y1408887D01*
X3444798Y1404975D01*
X3442614Y1401673D01*
X3415690Y1374800D01*
X3412540Y1372666D01*
X3408832Y1371854D01*
X3405022Y1372463D01*
X3401771Y1374444D01*
X3399434Y1377442D01*
X3388258Y1399895D01*
X3387191Y1404467D01*
X3387191Y1492250D01*
X3386429Y1498549D01*
X3384550Y1504035D01*
X3381451Y1508912D01*
X3377387Y1513027D01*
X3372459Y1516075D01*
X3367024Y1518005D01*
X3360674Y1518716D01*
X3281832Y1518716D01*
X3275482Y1518005D01*
X3270046Y1516075D01*
X3265170Y1513027D01*
X3261055Y1508912D01*
X3259886Y1507032D01*
X3257042Y1504086D01*
X3253282Y1502460D01*
X3249218Y1502460D01*
X3245459Y1504086D01*
X3242665Y1507032D01*
X3241446Y1508912D01*
X3237382Y1513027D01*
X3232454Y1516075D01*
X3227019Y1518005D01*
X3220669Y1518716D01*
X3185210Y1518716D01*
X3181502Y1519377D01*
X3178352Y1521358D01*
X3176066Y1524355D01*
X3175050Y1527962D01*
X3174796Y1531112D01*
X3172663Y1538376D01*
X3169158Y1545082D01*
X3164128Y1551381D01*
X2193290Y2542794D01*
X2187092Y2547975D01*
X2180488Y2551582D01*
X2173274Y2553868D01*
X2164842Y2554732D01*
X1459992Y2554732D01*
X1451965Y2553919D01*
X1444752Y2551734D01*
X1438046Y2548178D01*
X1431848Y2543048D01*
X1203655Y2314905D01*
X1200353Y2312670D01*
X1196441Y2311908D01*
X1070051Y2311908D01*
X1066241Y2312670D01*
X1062990Y2314752D01*
X1060754Y2317953D01*
X1059891Y2321763D01*
X1060500Y2325573D01*
X1062532Y2328875D01*
X1064615Y2331161D01*
X1072743Y2342794D01*
X1079296Y2355392D01*
X1084224Y2368753D01*
X1087374Y2382621D01*
X1088745Y2396744D01*
X1088288Y2410968D01*
X1086002Y2424988D01*
X1081989Y2438603D01*
X1076198Y2451608D01*
X1068832Y2463749D01*
X1059992Y2474874D01*
X1049782Y2484729D01*
X1038402Y2493213D01*
X1026007Y2500223D01*
X1012850Y2505557D01*
X999083Y2509164D01*
X985012Y2510942D01*
X970787Y2510942D01*
X956716Y2509164D01*
X942949Y2505557D01*
X929792Y2500223D01*
X917397Y2493213D01*
X906018Y2484729D01*
X895807Y2474874D01*
X886968Y2463749D01*
X879602Y2451608D01*
X873861Y2438603D01*
X869797Y2424988D01*
X867511Y2410968D01*
X867054Y2396744D01*
X868426Y2382621D01*
X871575Y2368753D01*
X876503Y2355392D01*
X883056Y2342794D01*
X891184Y2331161D01*
X893267Y2328875D01*
X895299Y2325573D01*
X895908Y2321763D01*
X895045Y2317953D01*
X892810Y2314752D01*
X889558Y2312670D01*
X885748Y2311908D01*
X882650Y2311908D01*
X874623Y2311095D01*
X867410Y2308910D01*
X860704Y2305354D01*
X854506Y2300224D01*
X767130Y2212898D01*
X763879Y2210714D01*
X759968Y2209952D01*
X756056Y2210714D01*
X752805Y2212898D01*
X750570Y2216200D01*
X749808Y2220112D01*
X749808Y5894984D01*
X750570Y5898896D01*
X752754Y5902147D01*
X756056Y5904382D01*
X759917Y5905144D01*
X8701684Y5942990D01*
X8705596Y5942228D01*
X8708898Y5940044D01*
X8711133Y5936742D01*
X8711895Y5932881D01*
X8769146Y-3799789D01*
X8768384Y-3803700D01*
X8766200Y-3807002D01*
X8762898Y-3809237D01*
X8758986Y-3810000D01*
X7795768Y-3810000D01*
X7791856Y-3809237D01*
X7788605Y-3807002D01*
X7786370Y-3803751D01*
X7785608Y-3799840D01*
X7785608Y-2919476D01*
X7784795Y-2911449D01*
X7782610Y-2904236D01*
X7779054Y-2897530D01*
X7773924Y-2891332D01*
X7654290Y-2771698D01*
X7651953Y-2767990D01*
X7651343Y-2763672D01*
X7651851Y-2757830D01*
X7650988Y-2747264D01*
X7648448Y-2736951D01*
X7644282Y-2727198D01*
X7638643Y-2718257D01*
X7631582Y-2710332D01*
X7623403Y-2703626D01*
X7614208Y-2698292D01*
X7604302Y-2694533D01*
X7593888Y-2692450D01*
X7583322Y-2691993D01*
X7572806Y-2693263D01*
X7562596Y-2696260D01*
X7553045Y-2700782D01*
X7544308Y-2706827D01*
X7536637Y-2714142D01*
X7530287Y-2722626D01*
X7525359Y-2732024D01*
X7522006Y-2742082D01*
X7520279Y-2752547D01*
X7520279Y-2763113D01*
X7522006Y-2773578D01*
X7525359Y-2783636D01*
X7530287Y-2793034D01*
X7536637Y-2801518D01*
X7544308Y-2808833D01*
X7553045Y-2814878D01*
X7562596Y-2819400D01*
X7572806Y-2822397D01*
X7583322Y-2823667D01*
X7592110Y-2823311D01*
X7596225Y-2823972D01*
X7599680Y-2826258D01*
X7705394Y-2931972D01*
X7707630Y-2935274D01*
X7708392Y-2939186D01*
X7708392Y-3799840D01*
X7707630Y-3803751D01*
X7705394Y-3807002D01*
X7702143Y-3809237D01*
X7698231Y-3810000D01*
G37*

%LPC*%
G36*
X7692644Y-1751482D02*
G01*
X7707833Y-1750568D01*
X7722768Y-1747824D01*
X7737297Y-1743303D01*
X7751165Y-1737055D01*
X7764170Y-1729181D01*
X7776108Y-1719834D01*
X7786878Y-1709064D01*
X7796225Y-1697126D01*
X7804099Y-1684121D01*
X7810347Y-1670253D01*
X7814868Y-1655724D01*
X7817612Y-1640789D01*
X7818526Y-1625600D01*
X7817612Y-1610410D01*
X7814868Y-1595475D01*
X7810347Y-1580946D01*
X7804099Y-1567078D01*
X7796225Y-1554073D01*
X7786878Y-1542135D01*
X7776108Y-1531366D01*
X7764170Y-1522018D01*
X7751165Y-1514144D01*
X7737297Y-1507896D01*
X7722768Y-1503375D01*
X7707833Y-1500632D01*
X7692644Y-1499717D01*
X7677454Y-1500632D01*
X7662519Y-1503375D01*
X7647990Y-1507896D01*
X7634122Y-1514144D01*
X7621117Y-1522018D01*
X7609179Y-1531366D01*
X7598409Y-1542135D01*
X7589062Y-1554073D01*
X7581188Y-1567078D01*
X7574940Y-1580946D01*
X7570419Y-1595475D01*
X7567675Y-1610410D01*
X7566761Y-1625600D01*
X7567675Y-1640789D01*
X7570419Y-1655724D01*
X7574940Y-1670253D01*
X7581188Y-1684121D01*
X7589062Y-1697126D01*
X7598409Y-1709064D01*
X7609179Y-1719834D01*
X7621117Y-1729181D01*
X7634122Y-1737055D01*
X7647990Y-1743303D01*
X7662519Y-1747824D01*
X7677454Y-1750568D01*
G37*
G36*
X7191756Y-1751482D02*
G01*
X7206945Y-1750568D01*
X7221880Y-1747824D01*
X7236409Y-1743303D01*
X7250277Y-1737055D01*
X7263282Y-1729181D01*
X7275220Y-1719834D01*
X7285990Y-1709064D01*
X7295337Y-1697126D01*
X7303211Y-1684121D01*
X7309459Y-1670253D01*
X7313980Y-1655724D01*
X7316724Y-1640789D01*
X7317638Y-1625600D01*
X7316724Y-1610410D01*
X7313980Y-1595475D01*
X7309459Y-1580946D01*
X7303211Y-1567078D01*
X7295337Y-1554073D01*
X7285990Y-1542135D01*
X7275220Y-1531366D01*
X7263282Y-1522018D01*
X7250277Y-1514144D01*
X7236409Y-1507896D01*
X7221880Y-1503375D01*
X7206945Y-1500632D01*
X7191756Y-1499717D01*
X7176566Y-1500632D01*
X7161631Y-1503375D01*
X7147102Y-1507896D01*
X7133234Y-1514144D01*
X7120229Y-1522018D01*
X7108291Y-1531366D01*
X7097522Y-1542135D01*
X7088174Y-1554073D01*
X7080300Y-1567078D01*
X7078624Y-1570837D01*
X7076338Y-1573987D01*
X7073036Y-1576120D01*
X7069226Y-1576832D01*
X7065416Y-1576019D01*
X7062165Y-1573834D01*
X6656527Y-1168196D01*
X6654139Y-1164386D01*
X6653580Y-1159967D01*
X6655003Y-1155750D01*
X6662216Y-1148435D01*
X6665264Y-1143508D01*
X6667195Y-1138072D01*
X6667906Y-1131722D01*
X6667906Y-954887D01*
X6667195Y-948537D01*
X6665264Y-943102D01*
X6662216Y-938174D01*
X6658102Y-934110D01*
X6653225Y-931011D01*
X6647738Y-929081D01*
X6641439Y-928369D01*
X6312560Y-928369D01*
X6306261Y-929081D01*
X6300774Y-931011D01*
X6295898Y-934110D01*
X6291783Y-938174D01*
X6288735Y-943102D01*
X6286804Y-948537D01*
X6286093Y-954887D01*
X6286093Y-1131722D01*
X6286804Y-1138072D01*
X6288735Y-1143508D01*
X6291783Y-1148435D01*
X6295898Y-1152499D01*
X6300774Y-1155598D01*
X6306261Y-1157478D01*
X6312560Y-1158189D01*
X6533134Y-1158189D01*
X6536994Y-1159002D01*
X6540296Y-1161186D01*
X7031685Y-1652524D01*
X7037882Y-1657654D01*
X7044588Y-1661210D01*
X7051802Y-1663395D01*
X7059828Y-1664207D01*
X7064756Y-1664207D01*
X7068566Y-1664919D01*
X7071817Y-1667052D01*
X7074052Y-1670202D01*
X7080300Y-1684121D01*
X7088174Y-1697126D01*
X7097522Y-1709064D01*
X7108291Y-1719834D01*
X7120229Y-1729181D01*
X7133234Y-1737055D01*
X7147102Y-1743303D01*
X7161631Y-1747824D01*
X7176566Y-1750568D01*
G37*
G36*
X5456936Y-192735D02*
G01*
X5463540Y-189687D01*
X5471515Y-184099D01*
X5478373Y-177190D01*
X5483961Y-169214D01*
X5488076Y-160375D01*
X5490616Y-150977D01*
X5491530Y-140817D01*
X5491530Y-132638D01*
X5456936Y-132638D01*
G37*
G36*
X5456936Y-29921D02*
G01*
X5491530Y-29921D01*
X5491530Y-21742D01*
X5490616Y-11582D01*
X5488076Y-2184D01*
X5483961Y6654D01*
X5478373Y14630D01*
X5471515Y21539D01*
X5463540Y27127D01*
X5456936Y30175D01*
G37*
G36*
X5782564Y227329D02*
G01*
X5782564Y280466D01*
X5747969Y280466D01*
X5748883Y269087D01*
X5751423Y259689D01*
X5755538Y250850D01*
X5761126Y242874D01*
X5767984Y236016D01*
X5775960Y230428D01*
G37*
G36*
X5747969Y369163D02*
G01*
X5782564Y369163D01*
X5782564Y422249D01*
X5775960Y419201D01*
X5767984Y413613D01*
X5761126Y406704D01*
X5755538Y398729D01*
X5751423Y389890D01*
X5748883Y380492D01*
G37*
G36*
X7325258Y454863D02*
G01*
X7335824Y455320D01*
X7346238Y457403D01*
X7356144Y461162D01*
X7365339Y466496D01*
X7373518Y473201D01*
X7380579Y481126D01*
X7386218Y490067D01*
X7390384Y499821D01*
X7392924Y510133D01*
X7393787Y520700D01*
X7392924Y531266D01*
X7390384Y541578D01*
X7386218Y551332D01*
X7380579Y560273D01*
X7373518Y568198D01*
X7365339Y574903D01*
X7356144Y580237D01*
X7346238Y583996D01*
X7335824Y586079D01*
X7325258Y586536D01*
X7314742Y585266D01*
X7304531Y582269D01*
X7294981Y577748D01*
X7286244Y571703D01*
X7278573Y564388D01*
X7275575Y561187D01*
X7272781Y559765D01*
X7269683Y559308D01*
X7157618Y559308D01*
X7153706Y560070D01*
X7150404Y562305D01*
X7027976Y684733D01*
X7025589Y688441D01*
X7025030Y692759D01*
X7025487Y698500D01*
X7024624Y709066D01*
X7022084Y719378D01*
X7017918Y729132D01*
X7012279Y738073D01*
X7005218Y745998D01*
X6997039Y752703D01*
X6987844Y758037D01*
X6977938Y761796D01*
X6967524Y763879D01*
X6956958Y764336D01*
X6946442Y763066D01*
X6936231Y760069D01*
X6926681Y755548D01*
X6917944Y749503D01*
X6910273Y742188D01*
X6903923Y733704D01*
X6898995Y724306D01*
X6895642Y714248D01*
X6893915Y703783D01*
X6893915Y693216D01*
X6895642Y682752D01*
X6898995Y672693D01*
X6903923Y663295D01*
X6910273Y654812D01*
X6917944Y647496D01*
X6926681Y641451D01*
X6936231Y636930D01*
X6946442Y633933D01*
X6956958Y632663D01*
X6965848Y633018D01*
X6969963Y632358D01*
X6973417Y630072D01*
X7109764Y493776D01*
X7115962Y488645D01*
X7122668Y485089D01*
X7129881Y482904D01*
X7137908Y482092D01*
X7269683Y482092D01*
X7272781Y481634D01*
X7275575Y480212D01*
X7278573Y477012D01*
X7286244Y469696D01*
X7294981Y463651D01*
X7304531Y459130D01*
X7314742Y456133D01*
G37*
G36*
X5803087Y539089D02*
G01*
X5826150Y539089D01*
X5826150Y593648D01*
X5776569Y593648D01*
X5776569Y565556D01*
X5777280Y559257D01*
X5779211Y553770D01*
X5782310Y548894D01*
X5786374Y544779D01*
X5791301Y541731D01*
X5796737Y539800D01*
G37*
G36*
X5898845Y539089D02*
G01*
X5921908Y539089D01*
X5928258Y539800D01*
X5933694Y541731D01*
X5938621Y544779D01*
X5942685Y548894D01*
X5945784Y553770D01*
X5947714Y559257D01*
X5948426Y565556D01*
X5948426Y593648D01*
X5898845Y593648D01*
G37*
G36*
X5776569Y676351D02*
G01*
X5826150Y676351D01*
X5826150Y730910D01*
X5803087Y730910D01*
X5796737Y730199D01*
X5791301Y728268D01*
X5786374Y725220D01*
X5782310Y721106D01*
X5779211Y716229D01*
X5777280Y710742D01*
X5776569Y704443D01*
G37*
G36*
X5898845Y676351D02*
G01*
X5948426Y676351D01*
X5948426Y704443D01*
X5947714Y710742D01*
X5945784Y716229D01*
X5942685Y721106D01*
X5938621Y725220D01*
X5933694Y728268D01*
X5928258Y730199D01*
X5921908Y730910D01*
X5898845Y730910D01*
G37*
G36*
X5646216Y779983D02*
G01*
X5659323Y779983D01*
X5665622Y780694D01*
X5671108Y782624D01*
X5675985Y785672D01*
X5680100Y789787D01*
X5683199Y794664D01*
X5685078Y800150D01*
X5685790Y806450D01*
X5685790Y822045D01*
X5646216Y822045D01*
G37*
G36*
X5965088Y943406D02*
G01*
X5988151Y943406D01*
X5988151Y1011682D01*
X5938570Y1011682D01*
X5938570Y969873D01*
X5939282Y963523D01*
X5941212Y958087D01*
X5944311Y953211D01*
X5948375Y949096D01*
X5953302Y945997D01*
X5958738Y944118D01*
G37*
G36*
X5938570Y1121918D02*
G01*
X5988151Y1121918D01*
X5988151Y1190193D01*
X5965088Y1190193D01*
X5958738Y1189482D01*
X5953302Y1187602D01*
X5948375Y1184503D01*
X5944311Y1180388D01*
X5941212Y1175512D01*
X5939282Y1170076D01*
X5938570Y1163726D01*
G37*
G36*
X4988458Y1216863D02*
G01*
X4999024Y1217320D01*
X5009438Y1219403D01*
X5019344Y1223162D01*
X5028539Y1228496D01*
X5036718Y1235202D01*
X5043779Y1243126D01*
X5049418Y1252067D01*
X5053584Y1261821D01*
X5056124Y1272133D01*
X5056987Y1282700D01*
X5056124Y1293266D01*
X5053584Y1303578D01*
X5049418Y1313332D01*
X5043779Y1322273D01*
X5036718Y1330198D01*
X5033467Y1332890D01*
X5030673Y1336395D01*
X5029708Y1340764D01*
X5029708Y1554581D01*
X5030470Y1558493D01*
X5032705Y1561795D01*
X5153406Y1682496D01*
X5157216Y1684883D01*
X5161686Y1685391D01*
X5165902Y1683969D01*
X5169154Y1680819D01*
X5170678Y1676552D01*
X5170220Y1672082D01*
X5168442Y1666748D01*
X5166715Y1656283D01*
X5166715Y1645716D01*
X5168442Y1635251D01*
X5171795Y1625193D01*
X5176723Y1615795D01*
X5183073Y1607312D01*
X5190693Y1600047D01*
X5192979Y1596694D01*
X5193792Y1592732D01*
X5193792Y1582318D01*
X5193030Y1578406D01*
X5190794Y1575104D01*
X5170017Y1554327D01*
X5166563Y1552041D01*
X5162448Y1551381D01*
X5153558Y1551736D01*
X5143042Y1550466D01*
X5132832Y1547469D01*
X5123281Y1542948D01*
X5114544Y1536903D01*
X5106873Y1529588D01*
X5100523Y1521104D01*
X5095595Y1511706D01*
X5092242Y1501648D01*
X5090515Y1491183D01*
X5090515Y1480616D01*
X5092242Y1470152D01*
X5095595Y1460093D01*
X5100523Y1450695D01*
X5106873Y1442212D01*
X5114544Y1434896D01*
X5123281Y1428851D01*
X5132832Y1424330D01*
X5143042Y1421333D01*
X5153558Y1420063D01*
X5164124Y1420520D01*
X5174538Y1422603D01*
X5184444Y1426362D01*
X5193639Y1431696D01*
X5201818Y1438402D01*
X5208879Y1446326D01*
X5214518Y1455267D01*
X5218684Y1465021D01*
X5221224Y1475333D01*
X5222087Y1485900D01*
X5221630Y1491640D01*
X5222189Y1495958D01*
X5224576Y1499666D01*
X5259324Y1534464D01*
X5264454Y1540662D01*
X5268010Y1547368D01*
X5270195Y1554581D01*
X5271008Y1562608D01*
X5271008Y1592935D01*
X5271973Y1597304D01*
X5274767Y1600809D01*
X5278018Y1603502D01*
X5285079Y1611426D01*
X5290718Y1620367D01*
X5294884Y1630121D01*
X5297424Y1640433D01*
X5298287Y1651000D01*
X5297424Y1661566D01*
X5294884Y1671878D01*
X5290718Y1681632D01*
X5285079Y1690573D01*
X5278018Y1698498D01*
X5269839Y1705203D01*
X5260644Y1710537D01*
X5250738Y1714296D01*
X5240324Y1716379D01*
X5229758Y1716836D01*
X5219242Y1715566D01*
X5211013Y1713179D01*
X5206593Y1712874D01*
X5202478Y1714550D01*
X5199430Y1717751D01*
X5198059Y1721967D01*
X5198618Y1726387D01*
X5201005Y1730095D01*
X5320233Y1849323D01*
X5322671Y1851101D01*
X5325567Y1852117D01*
X5331358Y1851863D01*
X5341924Y1852320D01*
X5352338Y1854403D01*
X5362244Y1858162D01*
X5371439Y1863496D01*
X5379618Y1870202D01*
X5386679Y1878126D01*
X5392318Y1887067D01*
X5396484Y1896821D01*
X5399024Y1907133D01*
X5399887Y1917700D01*
X5399024Y1928266D01*
X5396484Y1938578D01*
X5392318Y1948332D01*
X5386679Y1957273D01*
X5379618Y1965198D01*
X5371439Y1971903D01*
X5362244Y1977237D01*
X5352338Y1980996D01*
X5341924Y1983079D01*
X5331358Y1983536D01*
X5320842Y1982266D01*
X5310632Y1979269D01*
X5301081Y1974748D01*
X5292344Y1968703D01*
X5284673Y1961388D01*
X5278323Y1952904D01*
X5273395Y1943506D01*
X5270042Y1933448D01*
X5268366Y1923034D01*
X5268417Y1911045D01*
X5267706Y1907082D01*
X5265470Y1903780D01*
X4964176Y1602435D01*
X4959045Y1596237D01*
X4955489Y1589532D01*
X4953304Y1582318D01*
X4952492Y1574292D01*
X4952492Y1340967D01*
X4951679Y1337005D01*
X4949393Y1333652D01*
X4941773Y1326388D01*
X4935423Y1317904D01*
X4930495Y1308506D01*
X4927142Y1298448D01*
X4925415Y1287983D01*
X4925415Y1277416D01*
X4927142Y1266952D01*
X4930495Y1256893D01*
X4935423Y1247495D01*
X4941773Y1239012D01*
X4949444Y1231696D01*
X4958181Y1225651D01*
X4967732Y1221130D01*
X4977942Y1218133D01*
G37*
G36*
X5529376Y1338783D02*
G01*
X5542483Y1338783D01*
X5542483Y1380845D01*
X5502910Y1380845D01*
X5502910Y1365250D01*
X5503621Y1358950D01*
X5505500Y1353464D01*
X5508599Y1348587D01*
X5512714Y1344472D01*
X5517591Y1341424D01*
X5523077Y1339494D01*
G37*
G36*
X5095951Y1355598D02*
G01*
X5167223Y1355598D01*
X5167223Y1390904D01*
X5149240Y1390904D01*
X5139334Y1390091D01*
X5130190Y1387754D01*
X5121503Y1383944D01*
X5113578Y1378762D01*
X5106568Y1372362D01*
X5100777Y1364894D01*
X5096256Y1356563D01*
G37*
G36*
X5292394Y1355598D02*
G01*
X5363667Y1355598D01*
X5363362Y1356563D01*
X5358841Y1364894D01*
X5352999Y1372362D01*
X5346039Y1378762D01*
X5338114Y1383944D01*
X5329428Y1387754D01*
X5320233Y1390091D01*
X5310378Y1390904D01*
X5292394Y1390904D01*
G37*
G36*
X5502910Y1438554D02*
G01*
X5542483Y1438554D01*
X5542483Y1480616D01*
X5529376Y1480616D01*
X5523077Y1479905D01*
X5517591Y1477975D01*
X5512714Y1474927D01*
X5508599Y1470812D01*
X5505500Y1465935D01*
X5503621Y1460449D01*
X5502910Y1454150D01*
G37*
G36*
X4594758Y1521663D02*
G01*
X4605324Y1522120D01*
X4615738Y1524203D01*
X4625644Y1527962D01*
X4634839Y1533296D01*
X4643018Y1540002D01*
X4650079Y1547926D01*
X4655718Y1556867D01*
X4659884Y1566621D01*
X4662424Y1576933D01*
X4663287Y1587500D01*
X4662424Y1598066D01*
X4661306Y1602587D01*
X4661052Y1606042D01*
X4662017Y1609344D01*
X4663998Y1612188D01*
X5297424Y2245664D01*
X5302554Y2251862D01*
X5306110Y2258568D01*
X5308295Y2265781D01*
X5309108Y2273808D01*
X5309108Y2761081D01*
X5309870Y2764993D01*
X5312105Y2768295D01*
X6731304Y4187494D01*
X6734606Y4189729D01*
X6738518Y4190492D01*
X6865112Y4190492D01*
X6869023Y4189679D01*
X6872325Y4187444D01*
X6874509Y4184091D01*
X6876034Y4180230D01*
X6882993Y4167581D01*
X6891477Y4155948D01*
X6901332Y4145432D01*
X6912457Y4136237D01*
X6924598Y4128515D01*
X6937654Y4122369D01*
X6951370Y4117898D01*
X6965543Y4115206D01*
X6980224Y4114292D01*
X7091375Y4114292D01*
X7106056Y4115206D01*
X7120229Y4117898D01*
X7133945Y4122369D01*
X7147001Y4128515D01*
X7159142Y4136237D01*
X7170267Y4145432D01*
X7180122Y4155948D01*
X7188606Y4167581D01*
X7195566Y4180230D01*
X7200849Y4193641D01*
X7204456Y4207611D01*
X7206234Y4221886D01*
X7206234Y4236313D01*
X7204456Y4250588D01*
X7200849Y4264558D01*
X7195566Y4277969D01*
X7188606Y4290618D01*
X7180122Y4302252D01*
X7170267Y4312767D01*
X7159142Y4321962D01*
X7147001Y4329684D01*
X7133945Y4335830D01*
X7120229Y4340301D01*
X7106056Y4342993D01*
X7091375Y4343908D01*
X6980224Y4343908D01*
X6965543Y4342993D01*
X6951370Y4340301D01*
X6937654Y4335830D01*
X6924598Y4329684D01*
X6912457Y4321962D01*
X6901332Y4312767D01*
X6891477Y4302252D01*
X6882993Y4290618D01*
X6876034Y4277969D01*
X6874509Y4274108D01*
X6872325Y4270756D01*
X6869023Y4268520D01*
X6865112Y4267708D01*
X6718808Y4267708D01*
X6710781Y4266895D01*
X6703568Y4264710D01*
X6696862Y4261154D01*
X6690664Y4256024D01*
X5243576Y2808935D01*
X5238445Y2802737D01*
X5234889Y2796032D01*
X5232704Y2788818D01*
X5231892Y2780792D01*
X5231892Y2293518D01*
X5231130Y2289606D01*
X5228894Y2286304D01*
X4598568Y1655978D01*
X4595825Y1653997D01*
X4592624Y1653082D01*
X4584242Y1652066D01*
X4574032Y1649069D01*
X4564481Y1644548D01*
X4555744Y1638503D01*
X4548073Y1631188D01*
X4541723Y1622704D01*
X4536795Y1613306D01*
X4533442Y1603248D01*
X4531715Y1592783D01*
X4531715Y1582216D01*
X4533442Y1571752D01*
X4536795Y1561693D01*
X4541723Y1552295D01*
X4548073Y1543812D01*
X4555744Y1536496D01*
X4564481Y1530451D01*
X4574032Y1525930D01*
X4584242Y1522933D01*
G37*
G36*
X7719669Y1650390D02*
G01*
X7731302Y1656994D01*
X7742681Y1665478D01*
X7752892Y1675333D01*
X7761731Y1686458D01*
X7769098Y1698599D01*
X7770215Y1701038D01*
X7719669Y1701038D01*
G37*
G36*
X7621930Y1650390D02*
G01*
X7621930Y1701038D01*
X7571384Y1701038D01*
X7572502Y1698599D01*
X7579868Y1686458D01*
X7588707Y1675333D01*
X7598918Y1665478D01*
X7610297Y1656994D01*
G37*
G36*
X5643321Y1767281D02*
G01*
X5661406Y1768652D01*
X5679186Y1771904D01*
X5696610Y1776984D01*
X5713374Y1783791D01*
X5729325Y1792325D01*
X5744362Y1802434D01*
X5758281Y1814017D01*
X5770930Y1826971D01*
X5782157Y1841195D01*
X5791860Y1856486D01*
X5799988Y1872640D01*
X5806338Y1889607D01*
X5810961Y1907133D01*
X5813755Y1925015D01*
X5814669Y1943100D01*
X5813755Y1961184D01*
X5810961Y1979066D01*
X5806338Y1996592D01*
X5799988Y2013559D01*
X5791860Y2029714D01*
X5782157Y2045004D01*
X5770930Y2059228D01*
X5758281Y2072182D01*
X5744362Y2083765D01*
X5729325Y2093874D01*
X5713374Y2102408D01*
X5696610Y2109216D01*
X5679186Y2114296D01*
X5661406Y2117547D01*
X5643321Y2118918D01*
X5625236Y2118461D01*
X5607253Y2116124D01*
X5589625Y2112010D01*
X5572556Y2106015D01*
X5556148Y2098344D01*
X5540603Y2089048D01*
X5526125Y2078177D01*
X5512816Y2065883D01*
X5500878Y2052269D01*
X5490362Y2037486D01*
X5481472Y2021738D01*
X5474208Y2005126D01*
X5468721Y1987905D01*
X5465013Y1970176D01*
X5463133Y1952142D01*
X5463133Y1934057D01*
X5465013Y1916023D01*
X5468721Y1898294D01*
X5474208Y1881073D01*
X5481472Y1864461D01*
X5490362Y1848713D01*
X5500878Y1833930D01*
X5512816Y1820316D01*
X5526125Y1808022D01*
X5540603Y1797151D01*
X5556148Y1787855D01*
X5572556Y1780184D01*
X5589625Y1774189D01*
X5607253Y1770075D01*
X5625236Y1767738D01*
G37*
G36*
X7571486Y1798777D02*
G01*
X7621930Y1798777D01*
X7621930Y1849221D01*
X7616393Y1846529D01*
X7604455Y1838756D01*
X7593634Y1829562D01*
X7584084Y1819046D01*
X7575956Y1807413D01*
G37*
G36*
X7719669Y1798777D02*
G01*
X7770114Y1798777D01*
X7765643Y1807413D01*
X7757515Y1819046D01*
X7747965Y1829562D01*
X7737144Y1838756D01*
X7725206Y1846529D01*
X7719669Y1849221D01*
G37*
G36*
X7663688Y1889252D02*
G01*
X7677912Y1889252D01*
X7691983Y1891080D01*
X7705750Y1894687D01*
X7718907Y1900021D01*
X7731302Y1906981D01*
X7742681Y1915464D01*
X7752892Y1925370D01*
X7761731Y1936445D01*
X7769098Y1948637D01*
X7774889Y1961591D01*
X7778902Y1975205D01*
X7781188Y1989277D01*
X7781645Y2003450D01*
X7780274Y2017623D01*
X7777124Y2031441D01*
X7772196Y2044801D01*
X7765643Y2057400D01*
X7757515Y2069033D01*
X7747965Y2079548D01*
X7737144Y2088794D01*
X7725206Y2096516D01*
X7712405Y2102662D01*
X7698943Y2107184D01*
X7684973Y2109876D01*
X7670800Y2110790D01*
X7656626Y2109876D01*
X7642656Y2107184D01*
X7629194Y2102662D01*
X7616393Y2096516D01*
X7604455Y2088794D01*
X7593634Y2079548D01*
X7584084Y2069033D01*
X7575956Y2057400D01*
X7569403Y2044801D01*
X7564475Y2031441D01*
X7561325Y2017623D01*
X7559954Y2003450D01*
X7560411Y1989277D01*
X7562697Y1975205D01*
X7566761Y1961591D01*
X7572502Y1948637D01*
X7579868Y1936445D01*
X7588707Y1925370D01*
X7598918Y1915464D01*
X7610297Y1906981D01*
X7622692Y1900021D01*
X7635849Y1894687D01*
X7649616Y1891080D01*
G37*
G36*
X7663688Y2139238D02*
G01*
X7677912Y2139238D01*
X7691983Y2141067D01*
X7705750Y2144674D01*
X7718907Y2150008D01*
X7731302Y2156968D01*
X7742681Y2165451D01*
X7752892Y2175357D01*
X7761731Y2186482D01*
X7769098Y2198624D01*
X7774889Y2211578D01*
X7778902Y2225243D01*
X7781188Y2239264D01*
X7781645Y2253437D01*
X7780274Y2267610D01*
X7777124Y2281428D01*
X7772196Y2294788D01*
X7765643Y2307386D01*
X7757515Y2319020D01*
X7747965Y2329535D01*
X7737144Y2338781D01*
X7725206Y2346502D01*
X7712405Y2352700D01*
X7698943Y2357170D01*
X7684973Y2359863D01*
X7670800Y2360777D01*
X7656626Y2359863D01*
X7642656Y2357170D01*
X7629194Y2352700D01*
X7616393Y2346502D01*
X7604455Y2338781D01*
X7593634Y2329535D01*
X7584084Y2319020D01*
X7575956Y2307386D01*
X7569403Y2294788D01*
X7564475Y2281428D01*
X7561325Y2267610D01*
X7559954Y2253437D01*
X7560411Y2239264D01*
X7562697Y2225243D01*
X7566761Y2211578D01*
X7572502Y2198624D01*
X7579868Y2186482D01*
X7588707Y2175357D01*
X7598918Y2165451D01*
X7610297Y2156968D01*
X7622692Y2150008D01*
X7635849Y2144674D01*
X7649616Y2141067D01*
G37*
G36*
X7663688Y2389225D02*
G01*
X7677912Y2389225D01*
X7691983Y2391054D01*
X7705750Y2394661D01*
X7718907Y2399995D01*
X7731302Y2406954D01*
X7742681Y2415489D01*
X7752892Y2425344D01*
X7761731Y2436469D01*
X7769098Y2448610D01*
X7774889Y2461615D01*
X7778902Y2475230D01*
X7781188Y2489250D01*
X7781645Y2503474D01*
X7780274Y2517597D01*
X7777124Y2531465D01*
X7772196Y2544775D01*
X7765643Y2557373D01*
X7757515Y2569057D01*
X7747965Y2579573D01*
X7737144Y2588768D01*
X7725206Y2596540D01*
X7712405Y2602687D01*
X7698943Y2607157D01*
X7684973Y2609850D01*
X7670800Y2610764D01*
X7656626Y2609850D01*
X7642656Y2607157D01*
X7629194Y2602687D01*
X7616393Y2596540D01*
X7604455Y2588768D01*
X7593634Y2579573D01*
X7584084Y2569057D01*
X7575956Y2557373D01*
X7569403Y2544775D01*
X7564475Y2531465D01*
X7561325Y2517597D01*
X7559954Y2503474D01*
X7560411Y2489250D01*
X7562697Y2475230D01*
X7566761Y2461615D01*
X7572502Y2448610D01*
X7579868Y2436469D01*
X7588707Y2425344D01*
X7598918Y2415489D01*
X7610297Y2406954D01*
X7622692Y2399995D01*
X7635849Y2394661D01*
X7649616Y2391054D01*
G37*
G36*
X1026769Y2554986D02*
G01*
X1032306Y2557678D01*
X1044244Y2565450D01*
X1055065Y2574645D01*
X1064615Y2585161D01*
X1072743Y2596794D01*
X1077214Y2605430D01*
X1026769Y2605430D01*
G37*
G36*
X929030Y2554986D02*
G01*
X929030Y2605430D01*
X878586Y2605430D01*
X883056Y2596794D01*
X891184Y2585161D01*
X900734Y2574645D01*
X911555Y2565450D01*
X923493Y2557678D01*
G37*
G36*
X6980224Y2590292D02*
G01*
X7091375Y2590292D01*
X7106056Y2591206D01*
X7120229Y2593898D01*
X7133945Y2598369D01*
X7147001Y2604516D01*
X7159142Y2612237D01*
X7170267Y2621432D01*
X7180122Y2631948D01*
X7188606Y2643581D01*
X7195566Y2656230D01*
X7200849Y2669641D01*
X7204456Y2683611D01*
X7206234Y2697886D01*
X7206234Y2712313D01*
X7204456Y2726588D01*
X7200849Y2740558D01*
X7195566Y2753969D01*
X7188606Y2766618D01*
X7180122Y2778252D01*
X7170267Y2788767D01*
X7159142Y2797962D01*
X7147001Y2805684D01*
X7133945Y2811830D01*
X7120229Y2816301D01*
X7106056Y2818993D01*
X7091375Y2819908D01*
X6980224Y2819908D01*
X6965543Y2818993D01*
X6951370Y2816301D01*
X6937654Y2811830D01*
X6924598Y2805684D01*
X6912457Y2797962D01*
X6901332Y2788767D01*
X6891477Y2778252D01*
X6882993Y2766618D01*
X6876034Y2753969D01*
X6870750Y2740558D01*
X6867144Y2726588D01*
X6865366Y2712313D01*
X6865366Y2697886D01*
X6867144Y2683611D01*
X6870750Y2669641D01*
X6876034Y2656230D01*
X6882993Y2643581D01*
X6891477Y2631948D01*
X6901332Y2621432D01*
X6912457Y2612237D01*
X6924598Y2604516D01*
X6937654Y2598369D01*
X6951370Y2593898D01*
X6965543Y2591206D01*
G37*
G36*
X7663688Y2639263D02*
G01*
X7677912Y2639263D01*
X7691983Y2641041D01*
X7705750Y2644648D01*
X7718907Y2649982D01*
X7731302Y2656992D01*
X7742681Y2665476D01*
X7752892Y2675331D01*
X7761731Y2686456D01*
X7769098Y2698597D01*
X7774889Y2711602D01*
X7778902Y2725216D01*
X7781188Y2739237D01*
X7781645Y2753461D01*
X7780274Y2767584D01*
X7777124Y2781452D01*
X7772196Y2794762D01*
X7765643Y2807360D01*
X7757515Y2819044D01*
X7747965Y2829560D01*
X7737144Y2838754D01*
X7725206Y2846527D01*
X7712405Y2852674D01*
X7698943Y2857144D01*
X7684973Y2859887D01*
X7670800Y2860802D01*
X7656626Y2859887D01*
X7642656Y2857144D01*
X7629194Y2852674D01*
X7616393Y2846527D01*
X7604455Y2838754D01*
X7593634Y2829560D01*
X7584084Y2819044D01*
X7575956Y2807360D01*
X7569403Y2794762D01*
X7564475Y2781452D01*
X7561325Y2767584D01*
X7559954Y2753461D01*
X7560411Y2739237D01*
X7562697Y2725216D01*
X7566761Y2711602D01*
X7572502Y2698597D01*
X7579868Y2686456D01*
X7588707Y2675331D01*
X7598918Y2665476D01*
X7610297Y2656992D01*
X7622692Y2649982D01*
X7635849Y2644648D01*
X7649616Y2641041D01*
G37*
G36*
X1026769Y2703169D02*
G01*
X1077315Y2703169D01*
X1076198Y2705608D01*
X1068832Y2717749D01*
X1059992Y2728874D01*
X1049782Y2738729D01*
X1038402Y2747213D01*
X1026769Y2753766D01*
G37*
G36*
X878484Y2703169D02*
G01*
X929030Y2703169D01*
X929030Y2753766D01*
X917397Y2747213D01*
X906018Y2738729D01*
X895807Y2728874D01*
X886968Y2717749D01*
X879602Y2705608D01*
G37*
G36*
X5737758Y2753563D02*
G01*
X5748324Y2754020D01*
X5758738Y2756103D01*
X5768644Y2759862D01*
X5777839Y2765196D01*
X5786018Y2771902D01*
X5793079Y2779826D01*
X5798718Y2788767D01*
X5802884Y2798521D01*
X5805424Y2808833D01*
X5806287Y2819400D01*
X5805830Y2825140D01*
X5806389Y2829458D01*
X5808776Y2833166D01*
X6401104Y3425494D01*
X6404406Y3427729D01*
X6408318Y3428492D01*
X6865112Y3428492D01*
X6869023Y3427679D01*
X6872325Y3425444D01*
X6874509Y3422091D01*
X6876034Y3418230D01*
X6882993Y3405581D01*
X6891477Y3393948D01*
X6901332Y3383432D01*
X6912457Y3374237D01*
X6924598Y3366515D01*
X6937654Y3360369D01*
X6951370Y3355898D01*
X6965543Y3353206D01*
X6980224Y3352292D01*
X7091375Y3352292D01*
X7106056Y3353206D01*
X7120229Y3355898D01*
X7133945Y3360369D01*
X7147001Y3366515D01*
X7159142Y3374237D01*
X7170267Y3383432D01*
X7180122Y3393948D01*
X7188606Y3405581D01*
X7195566Y3418230D01*
X7200849Y3431641D01*
X7204456Y3445611D01*
X7206234Y3459886D01*
X7206234Y3474313D01*
X7204456Y3488588D01*
X7200849Y3502558D01*
X7195566Y3515969D01*
X7188606Y3528618D01*
X7180122Y3540251D01*
X7170267Y3550767D01*
X7159142Y3559962D01*
X7147001Y3567684D01*
X7133945Y3573830D01*
X7120229Y3578301D01*
X7106056Y3580993D01*
X7091375Y3581908D01*
X6980224Y3581908D01*
X6965543Y3580993D01*
X6951370Y3578301D01*
X6937654Y3573830D01*
X6924598Y3567684D01*
X6912457Y3559962D01*
X6901332Y3550767D01*
X6891477Y3540251D01*
X6882993Y3528618D01*
X6876034Y3515969D01*
X6874509Y3512108D01*
X6872325Y3508756D01*
X6869023Y3506520D01*
X6865112Y3505708D01*
X6388608Y3505708D01*
X6380581Y3504895D01*
X6373368Y3502710D01*
X6366662Y3499154D01*
X6360464Y3494024D01*
X5754217Y2887827D01*
X5750763Y2885541D01*
X5746648Y2884881D01*
X5737758Y2885236D01*
X5727242Y2883966D01*
X5717032Y2880969D01*
X5707481Y2876448D01*
X5698744Y2870403D01*
X5691073Y2863088D01*
X5684723Y2854604D01*
X5679795Y2845206D01*
X5676442Y2835148D01*
X5674715Y2824683D01*
X5674715Y2814116D01*
X5676442Y2803652D01*
X5679795Y2793593D01*
X5684723Y2784195D01*
X5691073Y2775712D01*
X5698744Y2768396D01*
X5707481Y2762351D01*
X5717032Y2757830D01*
X5727242Y2754833D01*
G37*
G36*
X977900Y2797403D02*
G01*
X992073Y2798318D01*
X1006043Y2801061D01*
X1019505Y2805531D01*
X1032306Y2811678D01*
X1044244Y2819450D01*
X1055065Y2828645D01*
X1064615Y2839161D01*
X1072743Y2850794D01*
X1079296Y2863392D01*
X1084224Y2876753D01*
X1087374Y2890621D01*
X1088745Y2904744D01*
X1088288Y2918968D01*
X1086002Y2932988D01*
X1081989Y2946603D01*
X1076198Y2959608D01*
X1068832Y2971749D01*
X1059992Y2982874D01*
X1049782Y2992729D01*
X1038402Y3001213D01*
X1026007Y3008223D01*
X1012850Y3013557D01*
X999083Y3017164D01*
X985012Y3018942D01*
X970787Y3018942D01*
X956716Y3017164D01*
X942949Y3013557D01*
X929792Y3008223D01*
X917397Y3001213D01*
X906018Y2992729D01*
X895807Y2982874D01*
X886968Y2971749D01*
X879602Y2959608D01*
X873861Y2946603D01*
X869797Y2932988D01*
X867511Y2918968D01*
X867054Y2904744D01*
X868426Y2890621D01*
X871575Y2876753D01*
X876503Y2863392D01*
X883056Y2850794D01*
X891184Y2839161D01*
X900734Y2828645D01*
X911555Y2819450D01*
X923493Y2811678D01*
X936294Y2805531D01*
X949756Y2801061D01*
X963726Y2798318D01*
G37*
G36*
X6980224Y2844292D02*
G01*
X7091375Y2844292D01*
X7106056Y2845206D01*
X7120229Y2847898D01*
X7133945Y2852369D01*
X7147001Y2858516D01*
X7159142Y2866237D01*
X7170267Y2875432D01*
X7180122Y2885948D01*
X7188606Y2897581D01*
X7195566Y2910230D01*
X7200849Y2923641D01*
X7204456Y2937611D01*
X7206234Y2951886D01*
X7206234Y2966313D01*
X7204456Y2980588D01*
X7200849Y2994558D01*
X7195566Y3007969D01*
X7188606Y3020618D01*
X7180122Y3032252D01*
X7170267Y3042767D01*
X7159142Y3051962D01*
X7147001Y3059684D01*
X7133945Y3065830D01*
X7120229Y3070301D01*
X7106056Y3072993D01*
X7091375Y3073908D01*
X6980224Y3073908D01*
X6965543Y3072993D01*
X6951370Y3070301D01*
X6937654Y3065830D01*
X6924598Y3059684D01*
X6912457Y3051962D01*
X6901332Y3042767D01*
X6891477Y3032252D01*
X6882993Y3020618D01*
X6876034Y3007969D01*
X6870750Y2994558D01*
X6867144Y2980588D01*
X6865366Y2966313D01*
X6865366Y2951886D01*
X6867144Y2937611D01*
X6870750Y2923641D01*
X6876034Y2910230D01*
X6882993Y2897581D01*
X6891477Y2885948D01*
X6901332Y2875432D01*
X6912457Y2866237D01*
X6924598Y2858516D01*
X6937654Y2852369D01*
X6951370Y2847898D01*
X6965543Y2845206D01*
G37*
G36*
X7586370Y2888996D02*
G01*
X7755229Y2888996D01*
X7761528Y2889707D01*
X7767015Y2891637D01*
X7771892Y2894685D01*
X7776006Y2898800D01*
X7779105Y2903677D01*
X7780985Y2909163D01*
X7781696Y2915462D01*
X7781696Y3084322D01*
X7780985Y3090672D01*
X7779105Y3096107D01*
X7776006Y3101035D01*
X7771892Y3105099D01*
X7767015Y3108198D01*
X7761528Y3110077D01*
X7755229Y3110788D01*
X7586370Y3110788D01*
X7580071Y3110077D01*
X7574584Y3108198D01*
X7569708Y3105099D01*
X7565593Y3101035D01*
X7562494Y3096107D01*
X7560614Y3090672D01*
X7559903Y3084322D01*
X7559903Y2915462D01*
X7560614Y2909163D01*
X7562494Y2903677D01*
X7565593Y2898800D01*
X7569708Y2894685D01*
X7574584Y2891637D01*
X7580071Y2889707D01*
G37*
G36*
X6980224Y3606292D02*
G01*
X7091375Y3606292D01*
X7106056Y3607206D01*
X7120229Y3609898D01*
X7133945Y3614369D01*
X7147001Y3620515D01*
X7159142Y3628237D01*
X7170267Y3637432D01*
X7180122Y3647948D01*
X7188606Y3659581D01*
X7195566Y3672230D01*
X7200849Y3685641D01*
X7204456Y3699611D01*
X7206234Y3713886D01*
X7206234Y3728313D01*
X7204456Y3742588D01*
X7200849Y3756558D01*
X7195566Y3769969D01*
X7188606Y3782618D01*
X7180122Y3794251D01*
X7170267Y3804767D01*
X7159142Y3813962D01*
X7147001Y3821684D01*
X7133945Y3827830D01*
X7120229Y3832301D01*
X7106056Y3834993D01*
X7091375Y3835908D01*
X6980224Y3835908D01*
X6965543Y3834993D01*
X6951370Y3832301D01*
X6937654Y3827830D01*
X6924598Y3821684D01*
X6912457Y3813962D01*
X6901332Y3804767D01*
X6891477Y3794251D01*
X6882993Y3782618D01*
X6876034Y3769969D01*
X6870750Y3756558D01*
X6867144Y3742588D01*
X6865366Y3728313D01*
X6865366Y3713886D01*
X6867144Y3699611D01*
X6870750Y3685641D01*
X6876034Y3672230D01*
X6882993Y3659581D01*
X6891477Y3647948D01*
X6901332Y3637432D01*
X6912457Y3628237D01*
X6924598Y3620515D01*
X6937654Y3614369D01*
X6951370Y3609898D01*
X6965543Y3607206D01*
G37*
G36*
X6957059Y3862832D02*
G01*
X6957059Y3924300D01*
X6877100Y3924300D01*
X6882993Y3913581D01*
X6891477Y3901948D01*
X6901332Y3891432D01*
X6912457Y3882237D01*
X6924598Y3874515D01*
X6937654Y3868369D01*
X6951370Y3863898D01*
G37*
G36*
X7114540Y3862832D02*
G01*
X7120229Y3863898D01*
X7133945Y3868369D01*
X7147001Y3874515D01*
X7159142Y3882237D01*
X7170267Y3891432D01*
X7180122Y3901948D01*
X7188606Y3913581D01*
X7194499Y3924300D01*
X7114540Y3924300D01*
G37*
G36*
X7114540Y4025900D02*
G01*
X7194499Y4025900D01*
X7188606Y4036618D01*
X7180122Y4048251D01*
X7170267Y4058767D01*
X7159142Y4067962D01*
X7147001Y4075684D01*
X7133945Y4081830D01*
X7120229Y4086301D01*
X7114540Y4087368D01*
G37*
G36*
X6877100Y4025900D02*
G01*
X6957059Y4025900D01*
X6957059Y4087368D01*
X6951370Y4086301D01*
X6937654Y4081830D01*
X6924598Y4075684D01*
X6912457Y4067962D01*
X6901332Y4058767D01*
X6891477Y4048251D01*
X6882993Y4036618D01*
G37*
G36*
X6980224Y4368292D02*
G01*
X7091375Y4368292D01*
X7106056Y4369206D01*
X7120229Y4371898D01*
X7133945Y4376369D01*
X7147001Y4382516D01*
X7159142Y4390237D01*
X7170267Y4399432D01*
X7180122Y4409948D01*
X7188606Y4421581D01*
X7195566Y4434230D01*
X7200849Y4447641D01*
X7204456Y4461611D01*
X7206234Y4475886D01*
X7206234Y4490313D01*
X7204456Y4504588D01*
X7200849Y4518558D01*
X7195566Y4531969D01*
X7188606Y4544618D01*
X7180122Y4556252D01*
X7170267Y4566767D01*
X7159142Y4575962D01*
X7147001Y4583684D01*
X7133945Y4589830D01*
X7120229Y4594301D01*
X7106056Y4596993D01*
X7091375Y4597908D01*
X6980224Y4597908D01*
X6965543Y4596993D01*
X6951370Y4594301D01*
X6937654Y4589830D01*
X6924598Y4583684D01*
X6912457Y4575962D01*
X6901332Y4566767D01*
X6891477Y4556252D01*
X6882993Y4544618D01*
X6876034Y4531969D01*
X6870750Y4518558D01*
X6867144Y4504588D01*
X6865366Y4490313D01*
X6865366Y4475886D01*
X6867144Y4461611D01*
X6870750Y4447641D01*
X6876034Y4434230D01*
X6882993Y4421581D01*
X6891477Y4409948D01*
X6901332Y4399432D01*
X6912457Y4390237D01*
X6924598Y4382516D01*
X6937654Y4376369D01*
X6951370Y4371898D01*
X6965543Y4369206D01*
G37*
G36*
X1960321Y4688281D02*
G01*
X1978406Y4689652D01*
X1996186Y4692904D01*
X2013610Y4697984D01*
X2030374Y4704791D01*
X2046325Y4713325D01*
X2061362Y4723434D01*
X2075281Y4735017D01*
X2087930Y4747971D01*
X2099157Y4762195D01*
X2108860Y4777486D01*
X2116988Y4793640D01*
X2123338Y4810607D01*
X2127961Y4828133D01*
X2130755Y4846015D01*
X2131669Y4864100D01*
X2130755Y4882184D01*
X2127961Y4900066D01*
X2123338Y4917592D01*
X2116988Y4934559D01*
X2108860Y4950714D01*
X2099157Y4966004D01*
X2087930Y4980228D01*
X2075281Y4993182D01*
X2061362Y5004765D01*
X2046325Y5014874D01*
X2030374Y5023408D01*
X2013610Y5030216D01*
X1996186Y5035296D01*
X1978406Y5038547D01*
X1960321Y5039918D01*
X1942236Y5039461D01*
X1924253Y5037124D01*
X1906625Y5033010D01*
X1889556Y5027015D01*
X1873148Y5019344D01*
X1857603Y5010048D01*
X1843125Y4999177D01*
X1829816Y4986883D01*
X1817878Y4973269D01*
X1807362Y4958486D01*
X1798472Y4942738D01*
X1791207Y4926126D01*
X1785721Y4908905D01*
X1782013Y4891176D01*
X1780133Y4873142D01*
X1780133Y4855057D01*
X1782013Y4837023D01*
X1785721Y4819294D01*
X1791207Y4802073D01*
X1798472Y4785461D01*
X1807362Y4769713D01*
X1817878Y4754930D01*
X1829816Y4741316D01*
X1843125Y4729022D01*
X1857603Y4718151D01*
X1873148Y4708855D01*
X1889556Y4701184D01*
X1906625Y4695190D01*
X1924253Y4691075D01*
X1942236Y4688738D01*
G37*
G36*
X5643321Y5069281D02*
G01*
X5661406Y5070652D01*
X5679186Y5073904D01*
X5696610Y5078984D01*
X5713374Y5085791D01*
X5729325Y5094325D01*
X5744362Y5104434D01*
X5758281Y5116017D01*
X5770930Y5128971D01*
X5782157Y5143195D01*
X5791860Y5158486D01*
X5799988Y5174640D01*
X5806338Y5191607D01*
X5810961Y5209133D01*
X5813755Y5227015D01*
X5814669Y5245100D01*
X5813755Y5263184D01*
X5810961Y5281066D01*
X5806338Y5298592D01*
X5799988Y5315559D01*
X5791860Y5331714D01*
X5782157Y5347004D01*
X5770930Y5361228D01*
X5758281Y5374182D01*
X5744362Y5385765D01*
X5729325Y5395874D01*
X5713374Y5404408D01*
X5696610Y5411216D01*
X5679186Y5416296D01*
X5661406Y5419547D01*
X5643321Y5420918D01*
X5625236Y5420461D01*
X5607253Y5418124D01*
X5589625Y5414010D01*
X5572556Y5408015D01*
X5556148Y5400344D01*
X5540603Y5391048D01*
X5526125Y5380177D01*
X5512816Y5367883D01*
X5500878Y5354269D01*
X5490362Y5339486D01*
X5481472Y5323738D01*
X5474208Y5307126D01*
X5468721Y5289905D01*
X5465013Y5272176D01*
X5463133Y5254142D01*
X5463133Y5236057D01*
X5465013Y5218023D01*
X5468721Y5200294D01*
X5474208Y5183073D01*
X5481472Y5166461D01*
X5490362Y5150713D01*
X5500878Y5135930D01*
X5512816Y5122316D01*
X5526125Y5110022D01*
X5540603Y5099151D01*
X5556148Y5089855D01*
X5572556Y5082184D01*
X5589625Y5076190D01*
X5607253Y5072075D01*
X5625236Y5069738D01*
G37*
G36*
X8496300Y5549392D02*
G01*
X8511692Y5550357D01*
X8526830Y5553100D01*
X8541512Y5557672D01*
X8555532Y5564022D01*
X8568740Y5571998D01*
X8580831Y5581497D01*
X8591702Y5592368D01*
X8601202Y5604459D01*
X8609177Y5617667D01*
X8615527Y5631688D01*
X8620099Y5646369D01*
X8622842Y5661507D01*
X8623808Y5676900D01*
X8622842Y5692292D01*
X8620099Y5707430D01*
X8615527Y5722112D01*
X8609177Y5736132D01*
X8601202Y5749340D01*
X8591702Y5761431D01*
X8580831Y5772302D01*
X8568740Y5781802D01*
X8555532Y5789777D01*
X8541512Y5796127D01*
X8526830Y5800699D01*
X8511692Y5803442D01*
X8496300Y5804408D01*
X8480907Y5803442D01*
X8465769Y5800699D01*
X8451088Y5796127D01*
X8437067Y5789777D01*
X8423859Y5781802D01*
X8411768Y5772302D01*
X8400897Y5761431D01*
X8391398Y5749340D01*
X8383422Y5736132D01*
X8377072Y5722112D01*
X8372500Y5707430D01*
X8369757Y5692292D01*
X8368792Y5676900D01*
X8369757Y5661507D01*
X8372500Y5646369D01*
X8377072Y5631688D01*
X8383422Y5617667D01*
X8391398Y5604459D01*
X8400897Y5592368D01*
X8411768Y5581497D01*
X8423859Y5571998D01*
X8437067Y5564022D01*
X8451088Y5557672D01*
X8465769Y5553100D01*
X8480907Y5550357D01*
G37*
G36*
X952500Y5574792D02*
G01*
X967892Y5575757D01*
X983030Y5578500D01*
X997712Y5583072D01*
X1011732Y5589422D01*
X1024940Y5597398D01*
X1037031Y5606897D01*
X1047902Y5617768D01*
X1057402Y5629859D01*
X1065377Y5643067D01*
X1071727Y5657088D01*
X1076299Y5671769D01*
X1079042Y5686907D01*
X1080008Y5702300D01*
X1079042Y5717692D01*
X1076299Y5732830D01*
X1071727Y5747512D01*
X1065377Y5761532D01*
X1057402Y5774740D01*
X1047902Y5786831D01*
X1037031Y5797702D01*
X1024940Y5807202D01*
X1011732Y5815177D01*
X997712Y5821527D01*
X983030Y5826099D01*
X967892Y5828842D01*
X952500Y5829808D01*
X937107Y5828842D01*
X921969Y5826099D01*
X907287Y5821527D01*
X893267Y5815177D01*
X880059Y5807202D01*
X867968Y5797702D01*
X857097Y5786831D01*
X847598Y5774740D01*
X839622Y5761532D01*
X833272Y5747512D01*
X828700Y5732830D01*
X825957Y5717692D01*
X824992Y5702300D01*
X825957Y5686907D01*
X828700Y5671769D01*
X833272Y5657088D01*
X839622Y5643067D01*
X847598Y5629859D01*
X857097Y5617768D01*
X867968Y5606897D01*
X880059Y5597398D01*
X893267Y5589422D01*
X907287Y5583072D01*
X921969Y5578500D01*
X937107Y5575757D01*
G37*

%LPD*%
G36*
X4620768Y-3810000D02*
G01*
X4616856Y-3809237D01*
X4613605Y-3807002D01*
X4611370Y-3803751D01*
X4610608Y-3799840D01*
X4610608Y-1581353D01*
X4611370Y-1577492D01*
X4613605Y-1574190D01*
X4616856Y-1572006D01*
X4620768Y-1571193D01*
X4641951Y-1571193D01*
X4641951Y-1502918D01*
X4620768Y-1502918D01*
X4616856Y-1502105D01*
X4613605Y-1499920D01*
X4611370Y-1496618D01*
X4610608Y-1492758D01*
X4610608Y-1402842D01*
X4611370Y-1398981D01*
X4613605Y-1395679D01*
X4616856Y-1393494D01*
X4620768Y-1392682D01*
X4641951Y-1392682D01*
X4641951Y-1324406D01*
X4620768Y-1324406D01*
X4616856Y-1323594D01*
X4613605Y-1321409D01*
X4611370Y-1318107D01*
X4610608Y-1314246D01*
X4610608Y-1179322D01*
X4611370Y-1175410D01*
X4613605Y-1172159D01*
X4616856Y-1169924D01*
X4620768Y-1169162D01*
X4628540Y-1169162D01*
X4636566Y-1168349D01*
X4643780Y-1166164D01*
X4650486Y-1162608D01*
X4656683Y-1157478D01*
X4799025Y-1015187D01*
X4802327Y-1013002D01*
X4806188Y-1012190D01*
X4857750Y-1012190D01*
X4864049Y-1011478D01*
X4869535Y-1009599D01*
X4870805Y-1008786D01*
X4874818Y-1007313D01*
X4879086Y-1007668D01*
X4882896Y-1009751D01*
X4885436Y-1013206D01*
X4886350Y-1017371D01*
X4886350Y-1292047D01*
X4887214Y-1315872D01*
X4886502Y-1320088D01*
X4884064Y-1323644D01*
X4880406Y-1325829D01*
X4877104Y-1326997D01*
X4872177Y-1330096D01*
X4868113Y-1334211D01*
X4865014Y-1339088D01*
X4863084Y-1344523D01*
X4862372Y-1350873D01*
X4862372Y-1544726D01*
X4863084Y-1551076D01*
X4865014Y-1556512D01*
X4868113Y-1561388D01*
X4872177Y-1565503D01*
X4877104Y-1568602D01*
X4882540Y-1570482D01*
X4888382Y-1571142D01*
X4891887Y-1572209D01*
X4894834Y-1574495D01*
X4896713Y-1577644D01*
X4897374Y-1581251D01*
X4897374Y-1684223D01*
X4896612Y-1688134D01*
X4894427Y-1691436D01*
X4891125Y-1693621D01*
X4887214Y-1694383D01*
X4881981Y-1694383D01*
X4875631Y-1695094D01*
X4870196Y-1697024D01*
X4865268Y-1700072D01*
X4861204Y-1704187D01*
X4859985Y-1706067D01*
X4857191Y-1709013D01*
X4853432Y-1710639D01*
X4849368Y-1710639D01*
X4845608Y-1709013D01*
X4842814Y-1706067D01*
X4841595Y-1704187D01*
X4837531Y-1700072D01*
X4832604Y-1697024D01*
X4827168Y-1695094D01*
X4820818Y-1694383D01*
X4807762Y-1694383D01*
X4807762Y-1736445D01*
X4845304Y-1736445D01*
X4849215Y-1737207D01*
X4852517Y-1739442D01*
X4854702Y-1742744D01*
X4855464Y-1746605D01*
X4855464Y-1783994D01*
X4854702Y-1787855D01*
X4852517Y-1791157D01*
X4849215Y-1793392D01*
X4845304Y-1794154D01*
X4807762Y-1794154D01*
X4807762Y-1836216D01*
X4820818Y-1836216D01*
X4827168Y-1835505D01*
X4832604Y-1833575D01*
X4837531Y-1830527D01*
X4841595Y-1826412D01*
X4842814Y-1824532D01*
X4845608Y-1821586D01*
X4849368Y-1819960D01*
X4853432Y-1819960D01*
X4857191Y-1821586D01*
X4859985Y-1824532D01*
X4861204Y-1826412D01*
X4868265Y-1833067D01*
X4869942Y-1836064D01*
X4870500Y-1839417D01*
X4870500Y-1907082D01*
X4869942Y-1910435D01*
X4868265Y-1913432D01*
X4865268Y-1915972D01*
X4861204Y-1920087D01*
X4859985Y-1921967D01*
X4857191Y-1924913D01*
X4853432Y-1926539D01*
X4849368Y-1926539D01*
X4845608Y-1924913D01*
X4842814Y-1921967D01*
X4841595Y-1920087D01*
X4837531Y-1915972D01*
X4832604Y-1912924D01*
X4827168Y-1910994D01*
X4820818Y-1910283D01*
X4807762Y-1910283D01*
X4807762Y-1952345D01*
X4845304Y-1952345D01*
X4849215Y-1953107D01*
X4852517Y-1955342D01*
X4854702Y-1958644D01*
X4855464Y-1962505D01*
X4855464Y-1999894D01*
X4854702Y-2003755D01*
X4852517Y-2007057D01*
X4849215Y-2009292D01*
X4845304Y-2010054D01*
X4807762Y-2010054D01*
X4807762Y-2052116D01*
X4820818Y-2052116D01*
X4827168Y-2051405D01*
X4832604Y-2049475D01*
X4837531Y-2046427D01*
X4841595Y-2042312D01*
X4842814Y-2040432D01*
X4845608Y-2037486D01*
X4849368Y-2035860D01*
X4853432Y-2035860D01*
X4857191Y-2037486D01*
X4859985Y-2040432D01*
X4861204Y-2042312D01*
X4865268Y-2046427D01*
X4870196Y-2049475D01*
X4875631Y-2051405D01*
X4881981Y-2052116D01*
X4910683Y-2052116D01*
X4914442Y-2052828D01*
X4917694Y-2054910D01*
X4947462Y-2083257D01*
X4949748Y-2086559D01*
X4950612Y-2090470D01*
X4949850Y-2094433D01*
X4947666Y-2097735D01*
X4944364Y-2100021D01*
X4940452Y-2100783D01*
X4881981Y-2100783D01*
X4875631Y-2101494D01*
X4870196Y-2103424D01*
X4865268Y-2106472D01*
X4861204Y-2110587D01*
X4859985Y-2112467D01*
X4857191Y-2115413D01*
X4853432Y-2117039D01*
X4849368Y-2117039D01*
X4845608Y-2115413D01*
X4842814Y-2112467D01*
X4841595Y-2110587D01*
X4837531Y-2106472D01*
X4832604Y-2103424D01*
X4827168Y-2101494D01*
X4820818Y-2100783D01*
X4807762Y-2100783D01*
X4807762Y-2142845D01*
X4845354Y-2142845D01*
X4849215Y-2143607D01*
X4852517Y-2145842D01*
X4854702Y-2149144D01*
X4855514Y-2153005D01*
X4855514Y-2190394D01*
X4854702Y-2194255D01*
X4852517Y-2197557D01*
X4849215Y-2199792D01*
X4845354Y-2200554D01*
X4807762Y-2200554D01*
X4807762Y-2242616D01*
X4820818Y-2242616D01*
X4827168Y-2241905D01*
X4832604Y-2239975D01*
X4837531Y-2236927D01*
X4841595Y-2232812D01*
X4842814Y-2230932D01*
X4845608Y-2227986D01*
X4849368Y-2226360D01*
X4853432Y-2226360D01*
X4857191Y-2227986D01*
X4859985Y-2230932D01*
X4861204Y-2232812D01*
X4865268Y-2236927D01*
X4870196Y-2239975D01*
X4875631Y-2241905D01*
X4881981Y-2242616D01*
X4891532Y-2242616D01*
X4895443Y-2243378D01*
X4898694Y-2245563D01*
X4900930Y-2248865D01*
X4901692Y-2252776D01*
X4901692Y-2278532D01*
X4900879Y-2282494D01*
X4898593Y-2285847D01*
X4890973Y-2293112D01*
X4884623Y-2301595D01*
X4879695Y-2310993D01*
X4876342Y-2321052D01*
X4874615Y-2331516D01*
X4874615Y-2342083D01*
X4876342Y-2352548D01*
X4879695Y-2362606D01*
X4884623Y-2372004D01*
X4890973Y-2380488D01*
X4898644Y-2387803D01*
X4907381Y-2393848D01*
X4916932Y-2398369D01*
X4927142Y-2401366D01*
X4937658Y-2402636D01*
X4948224Y-2402179D01*
X4958638Y-2400096D01*
X4968544Y-2396337D01*
X4977739Y-2391003D01*
X4982108Y-2387447D01*
X4985461Y-2385618D01*
X4989220Y-2385161D01*
X4992878Y-2386126D01*
X4995976Y-2388362D01*
X4997958Y-2391562D01*
X4998669Y-2395321D01*
X4998669Y-3799840D01*
X4997907Y-3803751D01*
X4995722Y-3807002D01*
X4992420Y-3809237D01*
X4988509Y-3810000D01*
G37*

%LPC*%
G36*
X4741976Y-2242616D02*
G01*
X4755083Y-2242616D01*
X4755083Y-2200554D01*
X4715510Y-2200554D01*
X4715510Y-2216150D01*
X4716221Y-2222449D01*
X4718100Y-2227935D01*
X4721199Y-2232812D01*
X4725314Y-2236927D01*
X4730191Y-2239975D01*
X4735677Y-2241905D01*
G37*
G36*
X4715510Y-2142845D02*
G01*
X4755083Y-2142845D01*
X4755083Y-2100783D01*
X4741976Y-2100783D01*
X4735677Y-2101494D01*
X4730191Y-2103424D01*
X4725314Y-2106472D01*
X4721199Y-2110587D01*
X4718100Y-2115464D01*
X4716221Y-2120950D01*
X4715510Y-2127250D01*
G37*
G36*
X4741976Y-2052116D02*
G01*
X4755083Y-2052116D01*
X4755083Y-2010054D01*
X4715510Y-2010054D01*
X4715510Y-2025650D01*
X4716221Y-2031949D01*
X4718100Y-2037435D01*
X4721199Y-2042312D01*
X4725314Y-2046427D01*
X4730191Y-2049475D01*
X4735677Y-2051405D01*
G37*
G36*
X4715510Y-1952345D02*
G01*
X4755083Y-1952345D01*
X4755083Y-1910283D01*
X4741976Y-1910283D01*
X4735677Y-1910994D01*
X4730191Y-1912924D01*
X4725314Y-1915972D01*
X4721199Y-1920087D01*
X4718100Y-1924964D01*
X4716221Y-1930450D01*
X4715510Y-1936750D01*
G37*
G36*
X4741976Y-1836216D02*
G01*
X4755083Y-1836216D01*
X4755083Y-1794154D01*
X4715510Y-1794154D01*
X4715510Y-1809750D01*
X4716221Y-1816049D01*
X4718100Y-1821535D01*
X4721199Y-1826412D01*
X4725314Y-1830527D01*
X4730191Y-1833575D01*
X4735677Y-1835505D01*
G37*
G36*
X4715510Y-1736445D02*
G01*
X4755083Y-1736445D01*
X4755083Y-1694383D01*
X4741976Y-1694383D01*
X4735677Y-1695094D01*
X4730191Y-1697024D01*
X4725314Y-1700072D01*
X4721199Y-1704187D01*
X4718100Y-1709064D01*
X4716221Y-1714550D01*
X4715510Y-1720850D01*
G37*
G36*
X4714646Y-1571193D02*
G01*
X4737709Y-1571193D01*
X4744059Y-1570482D01*
X4749495Y-1568602D01*
X4754422Y-1565503D01*
X4758486Y-1561388D01*
X4761585Y-1556512D01*
X4763516Y-1551076D01*
X4764227Y-1544726D01*
X4764227Y-1502918D01*
X4714646Y-1502918D01*
G37*
G36*
X4714646Y-1392682D02*
G01*
X4764227Y-1392682D01*
X4764227Y-1350873D01*
X4763516Y-1344523D01*
X4761585Y-1339088D01*
X4758486Y-1334211D01*
X4754422Y-1330096D01*
X4749495Y-1326997D01*
X4744059Y-1325118D01*
X4737709Y-1324406D01*
X4714646Y-1324406D01*
G37*

%LPD*%
D10*
X3517900Y-279400D02*
G01*
X3581400Y-342900D01*
X3581400Y-393700D01*
X3771900Y-584200D01*
X3771900Y-850900D01*
X3714290Y-363908D02*
G01*
X3771900Y-457200D01*
X3771900Y-457200D01*
D11*
X4445000Y1079500D02*
G01*
X4343400Y977900D01*
X4343400Y762000D01*
D10*
X3714241Y-213868D02*
G01*
X3939031Y-213868D01*
X4203700Y50800D01*
X4203700Y829055D01*
X4175506Y857250D01*
X4175506Y1947418D01*
X4228338Y2000250D01*
X4322063Y2000250D01*
X4362958Y1959355D01*
X4203700Y-2209800D02*
G01*
X4406900Y-2006600D01*
X4406900Y-876300D01*
X6489700Y-5054600D02*
G01*
X5372100Y-3937000D01*
X5372100Y-2641600D01*
X5342785Y-9817100D02*
G01*
X5368185Y-9842500D01*
X5778500Y-9842500D01*
X6096000Y-6642100D02*
G01*
X6184900Y-6553200D01*
X6184900Y-5321300D01*
X5118100Y317500D02*
G01*
X4965700Y317500D01*
X4800600Y482600D01*
X4800600Y513079D01*
X3714241Y-13970D02*
G01*
X3796022Y-13970D01*
X3797294Y-12700D01*
X3962400Y-12700D01*
X5156200Y1485900D02*
G01*
X5232400Y1562100D01*
X5232400Y1600200D01*
X5232400Y1651000D01*
X5181600Y513079D02*
G01*
X5181600Y673100D01*
X5118100Y736600D01*
X4410732Y1953915D02*
G01*
X4350336Y1892300D01*
X4343400Y1828800D01*
X4362958Y1317244D01*
X4473702Y1206500D01*
X4523740Y1206500D01*
X4362958Y1959355D02*
G01*
X4483100Y1955800D01*
X4483100Y1955800D01*
X4537709Y2002789D01*
X4523740Y1333500D02*
G01*
X4686300Y1333500D01*
X4800600Y1219200D01*
X4800600Y513079D01*
X5334000Y1917700D02*
G01*
X4991100Y1574800D01*
X4991100Y1282700D01*
D12*
X5229809Y1333500D02*
G01*
X5156809Y1333500D01*
X4940300Y1117600D01*
X4927600Y513079D01*
D10*
X3214370Y336042D02*
G01*
X3214370Y636270D01*
X3302000Y762000D01*
X3308604Y1219200D01*
X3164331Y335279D02*
G01*
X3162300Y647700D01*
X3225800Y736600D01*
X3225800Y889000D01*
X3219704Y911860D01*
X2636514Y-2647950D02*
G01*
X2636514Y-2641600D01*
X2463800Y-2641600D01*
X2636520Y-3092450D02*
G01*
X2642870Y-3086100D01*
X2754045Y-3086100D01*
X2857500Y-2982645D01*
X2857500Y-2857500D01*
X7962900Y-2933700D02*
G01*
X8191500Y-2705100D01*
X8191500Y1054100D01*
X7670800Y1574800D01*
X6654800Y1574800D01*
X6294500Y1214501D01*
X6294500Y1066800D01*
X4203700Y-4152900D02*
G01*
X4318000Y-4038600D01*
X4318000Y-3683000D01*
X4318000Y-3162300D01*
X7073900Y-5943600D02*
G01*
X7429500Y-5588000D01*
X7429500Y-5092700D01*
X3205479Y-3409950D02*
G01*
X3491229Y-3695700D01*
X3492500Y-3695700D01*
X3714241Y-163829D02*
G01*
X3874770Y-163829D01*
X3924300Y-114300D01*
X4435858Y817623D02*
G01*
X4435858Y635254D01*
X4470400Y600712D01*
X4470400Y76200D01*
X5229809Y1079500D02*
G01*
X5092700Y1079500D01*
X5029200Y1016000D01*
D13*
X5429097Y1117600D02*
G01*
X5340197Y1206500D01*
X5229806Y1206500D01*
D10*
X5569102Y1117600D02*
G01*
X5569102Y1111097D01*
X5740400Y939800D01*
X7035800Y3467100D02*
G01*
X6388100Y3467100D01*
X5740400Y2819400D01*
X4597400Y1587500D02*
G01*
X4597400Y1600200D01*
X5270500Y2273300D01*
X5270500Y2781300D01*
X6718300Y4229100D01*
X7035800Y4229100D01*
X4724400Y812800D02*
G01*
X4724400Y1168400D01*
X4711700Y1181100D01*
X7035800Y3213100D02*
G01*
X6991350Y3257550D01*
X6716522Y3257550D01*
X6671818Y3213100D01*
X6400800Y3213100D01*
X4674615Y1486915D01*
X4523790Y1333500D01*
X1549400Y-876300D02*
G01*
X1117600Y-1308100D01*
X1117600Y-3200400D01*
X1562100Y-5207000D02*
G01*
X1587500Y-5232400D01*
X1870811Y-5232400D01*
X2952589Y774700D02*
G01*
X2863689Y863600D01*
X2768600Y863600D01*
X3205485Y-3346450D02*
G01*
X3295650Y-3346450D01*
X3543300Y-3594100D01*
X3571925Y-3622725D01*
X3571925Y-4572000D01*
X3571925Y-4651425D01*
X4178300Y-5257800D01*
X3205485Y-2965450D02*
G01*
X3282950Y-2965450D01*
X3340100Y-3022600D01*
X3708400Y-3022600D01*
X2311400Y-2794000D02*
G01*
X2286000Y-2794000D01*
X1397000Y-3683000D01*
D13*
X2286000Y-1854200D02*
G01*
X2171700Y-1968500D01*
D10*
X1168400Y1117600D02*
G01*
X1143000Y1117600D01*
X977900Y1282700D01*
X2636520Y-3028950D02*
G01*
X2553741Y-3028950D01*
X2458796Y-3123895D01*
X2458796Y-5169052D01*
X2720924Y-5431180D01*
X2720924Y-8143824D01*
X3581400Y-9004300D01*
X2834614Y-5392877D02*
G01*
X2834614Y-6733514D01*
X3581400Y-7480300D01*
X2636520Y-3155950D02*
G01*
X2780766Y-3155950D01*
X3797300Y-8255000D02*
G01*
X3759200Y-8293100D01*
X3695316Y-8293100D01*
X3615588Y-8293100D02*
G01*
X3695318Y-8293100D01*
X3778399Y1016000D02*
G01*
X3924300Y1016000D01*
X3168497Y1219200D02*
G01*
X3168497Y1109014D01*
X1908914Y-8255000D02*
G01*
X1905000Y-8251085D01*
X1905000Y-8115300D01*
X6184900Y-223189D02*
G01*
X6057900Y-223189D01*
X5992799Y-377570D02*
G01*
X6004179Y-377570D01*
X3321202Y-1282700D02*
G01*
X3339896Y-1282700D01*
X7191756Y-1625600D02*
G01*
X7059320Y-1625600D01*
X6477000Y-1043279D01*
X5444388Y-6769100D02*
G01*
X5524118Y-6769100D01*
X1908911Y-9817100D02*
G01*
X1829180Y-9817100D01*
X2560675Y-2711450D02*
G01*
X2636520Y-2711450D01*
X3114293Y-513892D02*
G01*
X3114293Y-615340D01*
X3049066Y-680567D01*
X3027299Y-680567D01*
X3027299Y-812800D02*
G01*
X3027299Y-680567D01*
X3581400Y-5930900D02*
G01*
X2507767Y-4857267D01*
X2507767Y-3257171D01*
X2545481Y-3219450D01*
X2636514Y-3219450D01*
X3219602Y990600D02*
G01*
X3219602Y910869D01*
X5229806Y952500D02*
G01*
X5159623Y952500D01*
X5232400Y879723D01*
X5232400Y800100D01*
X3200781Y-9887965D02*
G01*
X3200781Y-10147680D01*
X3581400Y-10528300D01*
X2636520Y-2965450D02*
G01*
X2754629Y-2965450D01*
X2780334Y-2939745D01*
X7073900Y-7467600D02*
G01*
X6648678Y-7042378D01*
X6648678Y-6968312D01*
X3651402Y1447800D02*
G01*
X3651402Y2000940D01*
X3803799Y2153338D01*
X3511702Y-1485900D02*
G01*
X3586429Y-1485900D01*
X3615715Y-1456613D02*
G01*
X3586429Y-1485900D01*
X6451600Y1193800D02*
G01*
X6451600Y161434D01*
X6300068Y9903D01*
X5803900Y-223189D02*
G01*
X5803900Y-152679D01*
X5966485Y9905D01*
X6300063Y9905D01*
X6300063Y9905D02*
G01*
X6400012Y-90043D01*
X5930900Y324789D02*
G01*
X5930900Y288137D01*
X5644057Y1295D01*
X5644057Y-2102256D01*
X7073900Y-8978900D02*
G01*
X7112000Y-8940800D01*
X7112000Y-8115300D01*
X7124700Y-8115300D01*
X7200900Y-9652000D02*
G01*
X7200900Y-9821006D01*
X7222393Y-9842500D01*
X977900Y2146300D02*
G01*
X1863242Y2146300D01*
X2490825Y1518716D01*
X2551584Y1518716D01*
X2706847Y1363446D01*
X2706847Y1202692D01*
D14*
X5930900Y-223192D02*
G01*
X5930900Y-159636D01*
X6015532Y-75003D01*
X6227267Y-75003D01*
X6287815Y-135557D01*
X6287815Y-393136D01*
X6477000Y-582320D01*
D10*
X3517900Y-977900D02*
G01*
X3330168Y-977900D01*
X3297300Y-945032D01*
X3297300Y-812800D02*
G01*
X3297300Y-945032D01*
X6044260Y580517D02*
G01*
X6044260Y664768D01*
X6119393Y739902D01*
X6119393Y1179677D01*
X5889370Y1409700D01*
X5708802Y1409700D01*
D12*
X3314293Y-513892D02*
G01*
X3314293Y-638302D01*
X3030600Y-1702790D02*
G01*
X3030600Y-1689100D01*
X7035800Y3975100D02*
G01*
X7537983Y3472916D01*
X7537983Y1882698D01*
X7670800Y1749882D01*
D13*
X2053513Y-6794500D02*
G01*
X2150516Y-6794500D01*
X2078913Y-8255000D02*
G01*
X2175916Y-8255000D01*
X2078913Y-9817100D02*
G01*
X2175916Y-9817100D01*
X5172786Y-9817100D02*
G01*
X5075783Y-9817100D01*
X7026986Y-8293100D02*
G01*
X6929983Y-8293100D01*
X7052386Y-9842500D02*
G01*
X6955383Y-9842500D01*
X2175916Y-9817100D02*
G01*
X2524125Y-9468891D01*
X3470986Y-9817100D02*
G01*
X3470986Y-9775850D01*
X2520289Y-6794500D02*
G01*
X2150516Y-6794500D01*
X5308600Y513079D02*
G01*
X5308600Y679602D01*
X5479897Y850900D01*
X4277258Y1922551D02*
G01*
X4277258Y1238097D01*
X4435856Y1079500D01*
X4523790Y1079500D01*
X5308600Y513079D02*
G01*
X5308600Y481964D01*
X4142130Y-6694804D02*
G01*
X3659581Y-6694804D01*
X3547186Y-6807200D01*
X2163216Y-5207000D02*
G01*
X2319731Y-5050485D01*
X2319731Y-3261639D01*
D10*
X3810000Y-1079500D02*
G01*
X3467100Y-698500D01*
X3464308Y-513890D01*
D13*
X3248609Y-513892D02*
G01*
X3248609Y-347040D01*
X3293745Y-301904D01*
X3293745Y-180568D01*
X3268624Y-155447D01*
D10*
X2971800Y1079500D02*
G01*
X3060700Y990600D01*
X3079597Y990600D01*
D13*
X5308600Y481837D02*
G01*
X5308600Y431800D01*
X5422900Y317500D01*
X5422900Y139700D01*
D10*
X3289300Y177800D02*
G01*
X3340100Y177800D01*
X3414268Y251968D01*
X3414268Y336042D01*
X2489200Y-2783842D02*
G01*
X2406650Y-2711450D01*
X2374900Y-2679700D01*
X2374900Y-1744598D01*
X2294000Y-1663700D01*
X3714241Y-113792D02*
G01*
X3618991Y-113792D01*
X3543300Y-38100D01*
X3543300Y25400D01*
X6959600Y698500D02*
G01*
X7137400Y520700D01*
X7327900Y520700D01*
X5664200Y-8229600D02*
G01*
X5994400Y-8229600D01*
X6286500Y-8521700D01*
X6286500Y-9512300D01*
X5295900Y-10502900D01*
X5803900Y-8509000D02*
G01*
X5334000Y-8978900D01*
X5295900Y-8978900D01*
X7632700Y-10020300D02*
G01*
X7162800Y-10490200D01*
X7073900Y-10490200D01*
X3339896Y-1282700D02*
G01*
X3467100Y-1282700D01*
X3517900Y-1231900D01*
X3200400Y-1288897D02*
G01*
X3321304Y-1282700D01*
D12*
X3314191Y-638302D02*
G01*
X3254247Y-638302D01*
X3162300Y-730250D01*
X3162300Y-1117600D01*
X3149600Y-1130300D01*
X3035300Y-1130300D01*
X2717800Y-812800D01*
X3200400Y-1428902D02*
G01*
X3257397Y-1485900D01*
X3371697Y-1485900D01*
D10*
X3332784Y-4875758D02*
G01*
X3086734Y-4629708D01*
X3086734Y-2805582D01*
X3117367Y-2774950D01*
X3205479Y-2774950D01*
X3205485Y-2901950D02*
G01*
X3702050Y-2901950D01*
X3708400Y-2908300D01*
X3492500Y-3238500D02*
G01*
X3473450Y-3219450D01*
X3205479Y-3219450D01*
X5473700Y-349097D02*
G01*
X5308600Y-183997D01*
X5308600Y-81279D01*
X5194300Y-959002D02*
G01*
X5181600Y-971702D01*
X5181600Y-4484979D01*
X5201790Y-4484979D01*
X5194300Y-818997D02*
G01*
X5181600Y-806297D01*
X5181600Y-81279D01*
D12*
X5283200Y-1231900D02*
G01*
X5384800Y-1130300D01*
X5384800Y-959002D01*
D10*
X5486400Y-647700D02*
G01*
X5384800Y-749300D01*
X5384800Y-818995D01*
D12*
X5435600Y-81279D02*
G01*
X5435600Y-55879D01*
X5326634Y53086D01*
X5277611Y53086D01*
X5245100Y20573D01*
X5245100Y-482600D01*
X5283200Y-520700D01*
X5283200Y-863600D01*
X5378602Y-959002D01*
X5384800Y-959002D01*
D10*
X5041900Y-349097D02*
G01*
X5054600Y-336397D01*
X5054600Y-75084D01*
X4813300Y-946302D02*
G01*
X4629048Y-1130554D01*
X4572000Y-1130554D01*
X4572000Y-4584700D01*
X4559300Y-4597400D01*
X4800600Y-81279D02*
G01*
X4800600Y-304800D01*
X4756302Y-349097D01*
X4724400Y-349097D01*
X4508500Y-539607D02*
G01*
X4597400Y-450707D01*
X4597400Y-241300D01*
X4673600Y-165100D01*
X4673600Y-81279D01*
X4373092Y-444500D02*
G01*
X4279900Y-539607D01*
X4521200Y-292100D01*
X4521200Y-106679D01*
X4546600Y-81279D01*
X3999229Y-4525518D02*
G01*
X3999229Y-2045970D01*
X4203700Y-1841500D01*
X4203700Y-800100D01*
X4279900Y-679612D01*
X4724400Y-489204D02*
G01*
X4724400Y-685800D01*
X4483100Y-927100D01*
X4483100Y-4681473D01*
X5110225Y-5308600D01*
X5279390Y-5308600D01*
X5368290Y-5219700D01*
X1943100Y-5930900D02*
G01*
X1955800Y-5918200D01*
X1955800Y-3503168D01*
X2557018Y-2901950D01*
X2636520Y-2901950D01*
D13*
X3470986Y-9775850D02*
G01*
X2831084Y-9775850D01*
X2524125Y-9468891D01*
X2524252Y-9468865D02*
G01*
X2578100Y-9398000D01*
X2578100Y-8657081D01*
X2176018Y-8255000D01*
X2520188Y-6794500D02*
G01*
X2520289Y-6794500D01*
X2590800Y-6728460D01*
X2590800Y-5634481D01*
X2163318Y-5207000D01*
X2176018Y-8255000D02*
G01*
X2590800Y-7840218D01*
X2590800Y-7757413D01*
X2590800Y-6908800D01*
X2520188Y-6794500D01*
D10*
X3205479Y-3282950D02*
G01*
X3321050Y-3282950D01*
X3619500Y-3581400D01*
X3619500Y-4559300D01*
X4546600Y-5486400D01*
X4546600Y-6134100D01*
X4813300Y-6400800D01*
X4813300Y-6819900D01*
D13*
X3496309Y-5232400D02*
G01*
X3636009Y-5092700D01*
X3746500Y-5092700D01*
X4241800Y-5588000D01*
X4241800Y-6629400D01*
X4142231Y-6694678D01*
X4142231Y-6694678D02*
G01*
X4229100Y-6781545D01*
X4229100Y-7618221D01*
X4297679Y-7693660D01*
X3822700Y-8140700D02*
G01*
X3818127Y-8140700D01*
X3937000Y-8140700D01*
X4216400Y-7861300D01*
X4284979Y-7696200D01*
X3445509Y-8293100D02*
G01*
X3597909Y-8140700D01*
X3818127Y-8140700D01*
X3890518Y-8140700D01*
D10*
X3640993Y-9817100D02*
G01*
X3653693Y-9804400D01*
X3848100Y-9804400D01*
D13*
X5274309Y-6769100D02*
G01*
X5029200Y-6769100D01*
X4622800Y-7175500D01*
X4622800Y-7594600D01*
X4526729Y-7690670D01*
X4520742Y-7690670D01*
X4279900Y-7696200D02*
G01*
X4526729Y-7690670D01*
X6362697Y-5374995D02*
G01*
X6659730Y-5219700D01*
X6963486Y-5219700D01*
X6477000Y-6769100D02*
G01*
X7063054Y-6769100D01*
X6477000Y-6769100D02*
G01*
X6362700Y-6677405D01*
X6362700Y-5374894D01*
X6491731Y-8293100D02*
G01*
X6375400Y-8409431D01*
X6375400Y-9347200D01*
X6870700Y-9842500D01*
X6955281Y-9842500D01*
D10*
X1054100Y-3975100D02*
G01*
X1003300Y-4025900D01*
X1003300Y-9601200D01*
X1943100Y-10541000D01*
X1943100Y-9017000D02*
G01*
X1193800Y-8267700D01*
X1193800Y-4078223D01*
X2560574Y-2711450D01*
X1943100Y-7467600D02*
G01*
X1257300Y-6781800D01*
X1257300Y-4118147D01*
X2536997Y-2838450D01*
X2636514Y-2838450D01*
X1883514Y-6794500D02*
G01*
X1879600Y-6790585D01*
X1879600Y-6629400D01*
X5295900Y-5930900D02*
G01*
X3759200Y-4394200D01*
X3759200Y-3213100D01*
X3638550Y-3092450D01*
X3205479Y-3092450D01*
X3911600Y-6845300D02*
G01*
X3796791Y-6845300D01*
X3717188Y-6807200D01*
X3666393Y-5232400D02*
G01*
X3564793Y-5334000D01*
X3238500Y-5334000D01*
X2984500Y-5080000D01*
X2984500Y-2667000D01*
X2971800Y-2654300D01*
X2946400Y-2654300D01*
D13*
X5198186Y-5219700D02*
G01*
X5198186Y-5066870D01*
X5232400Y-5029200D01*
D10*
X5295900Y-7454900D02*
G01*
X5354320Y-7396479D01*
X5354320Y-6683502D01*
X5321300Y-6642100D01*
X5130800Y-6642100D01*
X4610100Y-6121400D01*
X4610100Y-5401563D01*
X3683000Y-4474463D01*
X3683000Y-3238500D01*
X3600450Y-3155950D01*
X3205479Y-3155950D01*
X5523991Y-6769100D02*
G01*
X5588000Y-6769100D01*
X5969000Y-6388100D01*
X5969000Y-5486400D01*
X5842000Y-5359400D01*
X5080000Y-5359400D01*
X4108195Y-4387595D01*
X4108195Y-2033778D01*
X4267200Y-1879600D01*
X4267200Y-876300D01*
X4476495Y-679704D01*
X4508500Y-679704D01*
X5419090Y-8305800D02*
G01*
X5419090Y-8340089D01*
X5448300Y-8369300D01*
X5562600Y-8369300D01*
X5600700Y-8331200D01*
X7247793Y-6769100D02*
G01*
X7277100Y-6739793D01*
X7277100Y-6540500D01*
X5473700Y-489204D02*
G01*
X5569204Y-584454D01*
X5569204Y-3422904D01*
X7133590Y-4987289D01*
X7133590Y-5219700D01*
D12*
X5568797Y1409700D02*
G01*
X5492597Y1333500D01*
X5229809Y1333500D01*
X5619899Y850900D02*
G01*
X5715000Y850900D01*
X5862497Y703402D01*
X5862497Y635000D01*
D10*
X3264408Y336042D02*
G01*
X3264408Y622807D01*
X3390900Y749300D01*
X3390900Y1308100D01*
X3321192Y1447800D01*
X3314191Y336042D02*
G01*
X3314700Y558800D01*
X3441700Y685800D01*
X3441700Y1346200D01*
X3511407Y1415907D01*
X3511407Y1447800D01*
X3574907Y1219200D02*
G01*
X3533251Y1177544D01*
X3492500Y1143000D01*
X3492500Y660400D01*
X3364229Y532129D01*
X3364229Y336042D01*
X3092658Y774700D02*
G01*
X3114293Y753064D01*
X3114293Y336092D01*
X2489200Y800100D02*
G01*
X2489200Y723900D01*
X3251200Y-38100D01*
X3276600Y-38100D01*
X3364229Y-125729D01*
X3364229Y-513842D01*
X3414268Y336042D02*
G01*
X3414268Y505968D01*
X3556000Y647700D01*
X3556000Y901700D01*
X3638407Y1016000D01*
X3638407Y1016000D01*
X3829212Y774700D02*
G01*
X3822700Y768187D01*
X3822700Y635000D01*
X3464306Y336092D02*
G01*
X3464306Y454405D01*
X3689207Y679307D01*
X3689207Y774700D01*
X3987800Y444500D02*
G01*
X3937000Y444500D01*
X3873500Y508000D01*
X3829304Y508000D01*
X3514293Y336092D02*
G01*
X3514293Y437108D01*
X3585184Y508000D01*
X3689207Y508000D01*
X3014218Y336042D02*
G01*
X3014218Y414781D01*
X2743200Y685800D01*
X2679700Y685800D01*
X2552700Y347979D02*
G01*
X2552700Y342900D01*
X2759509Y136090D01*
X2789323Y136090D01*
X2552700Y414020D02*
G01*
X2540000Y426720D01*
X2540000Y520700D01*
X2044700Y1016000D01*
X1955800Y1016000D01*
X1866900Y1092200D01*
X1866900Y1244600D01*
X1735838Y1375661D01*
X1735838Y1413761D01*
X1485900Y1397000D02*
G01*
X1460500Y1371600D01*
X1460500Y1282700D01*
X1549400Y1282700D01*
X1612900Y1219200D01*
X1612900Y1066800D01*
X1697230Y982469D01*
X1916912Y982469D01*
X1934182Y965200D01*
X1981200Y965200D01*
X2463800Y482600D01*
X2463800Y414020D01*
X2864358Y-13970D02*
G01*
X2642870Y-13970D01*
X2298700Y330200D01*
X2298700Y347979D01*
X2864358Y-64007D02*
G01*
X2621788Y-64007D01*
X2209800Y347979D01*
X2864358Y-113792D02*
G01*
X2582672Y-113792D01*
X2120900Y347979D01*
X2864358Y-163829D02*
G01*
X2540000Y-165100D01*
X2476500Y-114300D01*
X2032000Y321818D01*
X2032000Y347979D01*
X2864358Y-263903D02*
G01*
X2232408Y-263903D01*
X977900Y990605D01*
X977900Y1028700D01*
D12*
X2024001Y-1663700D02*
G01*
X2049523Y-1638175D01*
X2049523Y-1534157D01*
X2427734Y-1155700D01*
X2700400Y-1155700D01*
X2852800Y-1308100D01*
D10*
X2636520Y-2584450D02*
G01*
X2636520Y-1945411D01*
X2760599Y-1821332D01*
X2760599Y-1689100D01*
D12*
X3205485Y-2584450D02*
G01*
X3111500Y-2400300D01*
X3111500Y-2192401D01*
X3001899Y-2082800D01*
X3030600Y-1689100D02*
G01*
X3001899Y-1717802D01*
X3001899Y-2082800D01*
X2024125Y-1663700D02*
G01*
X1917700Y-1816100D01*
X1917700Y-2070100D01*
X2016759Y-2151126D01*
X2146300Y-2151126D01*
D10*
X2146300Y-2641600D02*
G01*
X2146300Y-2421001D01*
D12*
X2679700Y-1066800D02*
G01*
X2672481Y-1074018D01*
X2672481Y-1155700D01*
D10*
X2864358Y36068D02*
G01*
X2681731Y36068D01*
X2387600Y330200D01*
X2387600Y347979D01*
X2463800Y347979D02*
G01*
X2463800Y330200D01*
X2707640Y86360D01*
X2864358Y86360D01*
X2864309Y186103D02*
G01*
X2802023Y186103D01*
X2641600Y346527D01*
X2641600Y347979D01*
D12*
X3314191Y-638299D02*
G01*
X3350519Y-640079D01*
X3695700Y-1033779D01*
X3708400Y-1638300D01*
X3665600Y-1778000D01*
X3650386Y-1972284D02*
G01*
X3665600Y-1957070D01*
X3665600Y-1778000D01*
X3200400Y-1428902D02*
G01*
X3030600Y-1598701D01*
X3030600Y-1689100D01*
X3030474Y-1689100D02*
G01*
X3030474Y-1615439D01*
X2852674Y-1437386D01*
X2852674Y-1308100D01*
X4781397Y-2171700D02*
G01*
X4781397Y-1981202D01*
X4781400Y-1981200D01*
X4781400Y-1981200D02*
G01*
X4781400Y-1765302D01*
X4781397Y-1765300D01*
X4781397Y-1765300D02*
G01*
X4678301Y-1662203D01*
X4678301Y-1447800D01*
X4678299Y-1447800D02*
G01*
X4678299Y-1285697D01*
D10*
X4921399Y-2171700D02*
G01*
X4940300Y-2190600D01*
X4940300Y-2336800D01*
D11*
X4921402Y-1981200D02*
G01*
X4921402Y-1765300D01*
X4921402Y-1765300D02*
G01*
X4948300Y-1738401D01*
X4948300Y-1447800D01*
D13*
X4942255Y-700836D02*
G01*
X4942255Y-1292225D01*
X4948300Y-1447800D01*
D10*
X5105400Y-1308100D02*
G01*
X5041900Y-1244600D01*
X5041900Y-489102D01*
D14*
X6477000Y-582320D02*
G01*
X6149591Y-909728D01*
X6149591Y-1038857D01*
X6059934Y-1127757D01*
X5880100Y-1130300D01*
X5780026Y-977900D01*
X5780100Y-977900D02*
G01*
X5780100Y-723900D01*
X5780100Y-469900D02*
G01*
X5780100Y-469900D01*
X5780100Y-723900D01*
D10*
X5980099Y-977900D02*
G01*
X5980099Y-723900D01*
X5980099Y-723900D02*
G01*
X5980099Y-469900D01*
D12*
X5803900Y324865D02*
G01*
X5803900Y474471D01*
X5862574Y533145D01*
X5862574Y635000D01*
D10*
X6057900Y324865D02*
G01*
X6057900Y385571D01*
X6202425Y530097D01*
X6202425Y635000D01*
X6324600Y660400D02*
G01*
X6299200Y635000D01*
X6202502Y635000D01*
D12*
X5862497Y635000D02*
G01*
X6024501Y797003D01*
X6024501Y1066800D01*
X6024625Y1066800D02*
G01*
X5821425Y1270000D01*
X5638800Y1270000D01*
X5568695Y1340104D01*
X5568695Y1409700D01*
D13*
X5429097Y1117600D02*
G01*
X5429097Y901702D01*
X5479900Y850900D01*
D12*
X5229809Y1333500D02*
G01*
X5359400Y1463085D01*
X5359400Y1765300D01*
D13*
X4523790Y1079500D02*
G01*
X4523790Y952500D01*
X4523790Y952500D02*
G01*
X4546600Y886993D01*
X4546600Y513079D01*
D10*
X3714912Y1219200D02*
G01*
X3740312Y1244600D01*
X3911600Y1244600D01*
X2636520Y-2774950D02*
G01*
X2722118Y-2774950D01*
X2870200Y-2626868D01*
X2870200Y-1587500D01*
X2590800Y-1308100D01*
X2582925Y-1308100D01*
D13*
X4216400Y-9475668D02*
G01*
X4287265Y-9557512D01*
X4816093Y-9557512D01*
X5075681Y-9817100D01*
X4216400Y-9486900D02*
G01*
X4038600Y-9677400D01*
X3569461Y-9677400D01*
X3470909Y-9775952D01*
X4216400Y-9475668D02*
G01*
X4216400Y-9474200D01*
X4216400Y-8481821D01*
X3875277Y-8140700D01*
X6477000Y-6769100D02*
G01*
X6362700Y-6870700D01*
X6362700Y-8013700D01*
X6934200Y-8280400D02*
G01*
X6491731Y-8293100D01*
X6362700Y-8011160D01*
X5248909Y-8305800D02*
G01*
X5151881Y-8208771D01*
X6362700Y-8011160D02*
G01*
X6248400Y-8115300D01*
X6248400Y-8115300D01*
X5196077Y-8117839D01*
X5151881Y-8208771D01*
X4526788Y-7690612D02*
G01*
X4558791Y-7746492D01*
X5008879Y-8196579D01*
X5151881Y-8208771D01*
X6362697Y-5374995D02*
G01*
X6136690Y-5032654D01*
X5232400Y-5029200D01*
X4921402Y-1981200D02*
G01*
X5054600Y-2108200D01*
X5054600Y-4880355D01*
X5232400Y-5029200D01*
X2040813Y-5232400D02*
G01*
X2137816Y-5232400D01*
X2163216Y-5207000D01*
X2978632Y-2477566D02*
G01*
X2978632Y-2551760D01*
X3074822Y-2647950D01*
D10*
X3205485Y-2711450D02*
G01*
X3346450Y-2711450D01*
X3352800Y-2705100D01*
X3271898Y-2082800D02*
G01*
X3340100Y-2151001D01*
X3340100Y-2476500D01*
X3205479Y-2838450D02*
G01*
X3384550Y-2838450D01*
X3429000Y-2794000D01*
X3429000Y-1778000D01*
X3395725Y-1778000D01*
X3568700Y-2578100D02*
G01*
X3606800Y-2616200D01*
X3606800Y-2760218D01*
X3594100Y-2819400D01*
X5980175Y-469900D02*
G01*
X5980175Y-395223D01*
X6057900Y-317500D01*
X6057900Y-223265D01*
X6184900Y324865D02*
G01*
X6184900Y295655D01*
X5738875Y-150368D01*
X5738875Y-299212D01*
X5790945Y-351281D01*
X5951981Y-351281D01*
X5978143Y-377444D01*
X5992875Y-377444D01*
X2209800Y414020D02*
G01*
X2187193Y467105D01*
X1828800Y825500D01*
X1524000Y825500D01*
X1282700Y1066800D01*
X1282700Y1498600D01*
X1397000Y1612900D01*
X1739900Y1612900D01*
X1866900Y1485900D01*
X1866900Y1346200D01*
X1993900Y1219200D01*
X1993900Y1143000D01*
X1739900Y1143000D02*
G01*
X1739900Y1218945D01*
X1612900Y1345945D01*
X1612900Y1485900D01*
X1574800Y1524000D01*
X1438402Y1524000D01*
X1360678Y1446276D01*
X1360678Y1065021D01*
X1549400Y876300D01*
X1879600Y876300D01*
X2298700Y457200D01*
X2298700Y414020D01*
X2247900Y1397000D02*
G01*
X2374900Y1270000D01*
X2374900Y766063D01*
X2641600Y499363D01*
X2641600Y414020D01*
X7196988Y-8293100D02*
G01*
X7378700Y-8293100D01*
X7747000Y-7924800D01*
X7747000Y-2918968D01*
X7585963Y-2757931D01*
X1549400Y647700D02*
G01*
X1600200Y596900D01*
X1828800Y596900D01*
X2032000Y414020D01*
D12*
X5435600Y-81279D02*
G01*
X5619902Y103022D01*
X5619902Y850900D01*
D10*
X2120900Y414020D02*
G01*
X2120900Y444500D01*
X1790700Y774700D01*
X1498600Y774700D01*
X1219200Y1054100D01*
X1219200Y1536700D01*
X1346200Y1663700D01*
X1897126Y1663700D01*
X2120900Y1439926D01*
X2120900Y1270000D01*
X2247900Y1143000D01*
X2387600Y414020D02*
G01*
X2387600Y444500D01*
X1905000Y927100D01*
X1676400Y927100D01*
X1485900Y1117600D01*
X1485900Y1143000D01*
X977900Y1790700D02*
G01*
X2040638Y1790700D01*
X2374900Y1456438D01*
X2374900Y1337307D01*
X2449327Y1262887D01*
X2602743Y1262887D01*
X2631950Y1233680D01*
X2631950Y1171699D01*
X2667000Y1130300D01*
X2667000Y850900D01*
X3064258Y453641D01*
X3064258Y336042D01*
X3181095Y1447800D02*
G01*
X3136900Y1491995D01*
X3136900Y1524000D01*
X2165350Y2516123D01*
X1459484Y2516123D01*
X1216660Y2273300D01*
X882142Y2273300D01*
X776478Y2167636D01*
X776478Y-3353307D01*
X1130300Y-3707129D01*
X1130300Y-9118345D01*
X1829054Y-9817100D01*
D14*
X6477000Y-584200D02*
G01*
X6502400Y-609600D01*
X6794500Y-609600D01*
D10*
X3564308Y336090D02*
G01*
X3596518Y368300D01*
X3810000Y368300D01*
X4114800Y647700D02*
G01*
X4127500Y660400D01*
X4127500Y2362200D01*
X4813300Y-806297D02*
G01*
X4813300Y-556511D01*
X4927600Y-442211D01*
X4927600Y-81279D01*
X3064306Y-513892D02*
G01*
X3064306Y-598017D01*
X3033953Y-628370D01*
X2749804Y-628370D01*
X2738475Y-639698D01*
X2501900Y-639698D01*
D13*
X5308600Y481837D02*
G01*
X5168900Y203200D01*
X5060950Y203200D01*
X4635500Y203200D01*
X4546600Y368300D01*
X4546600Y513079D01*
D10*
X2864358Y-213868D02*
G01*
X2296668Y-213868D01*
X1168400Y914400D01*
X1168400Y1117600D01*
X2636520Y-3409950D02*
G01*
X2636520Y-3695700D01*
X2171700Y-3695700D02*
G01*
X2171700Y-3568700D01*
X2095500Y-3492500D01*
X1714500Y-1600200D02*
G01*
X1714500Y-876300D01*
X2276906Y-313893D01*
X2864307Y-313893D01*
X2451100Y-2311400D02*
G01*
X2451100Y-1485900D01*
X2336800Y-1371600D01*
X2636514Y-3282950D02*
G01*
X2787650Y-3282950D01*
X2882900Y-3187700D01*
X2209800Y-889000D02*
G01*
X2209800Y-571500D01*
X2417394Y-363905D01*
X2864307Y-363905D01*
X3714292Y-313893D02*
G01*
X3819093Y-313893D01*
X3848100Y-342900D01*
X3848100Y-927100D01*
X3810000Y-965200D01*
X3911600Y-4368800D02*
G01*
X3911600Y-317500D01*
X4267200Y38100D01*
X4267200Y812800D01*
X4250430Y888237D01*
X5016500Y749300D02*
G01*
X5016500Y551179D01*
X5054600Y513079D01*
X3898900Y127000D02*
G01*
X3839794Y186105D01*
X3714292Y186105D01*
X2501900Y-909573D02*
G01*
X2700274Y-909573D01*
X3079495Y-1288795D01*
X3200400Y-1288795D01*
X3714241Y-263905D02*
G01*
X3631945Y-263905D01*
X3517900Y-149860D01*
X3517900Y-88900D01*
X3454400Y-25400D01*
X3454400Y57657D01*
X3663441Y266700D01*
X3746500Y266700D01*
X3464306Y-513842D02*
G01*
X3464306Y-403605D01*
X3429000Y-368300D01*
X3429000Y-76200D01*
X3162300Y190500D01*
X4368800Y-330200D02*
G01*
X4356100Y-317500D01*
X4356100Y647700D01*
D15*
G01*
X5479897Y850900D03*
G01*
X5619902Y850900D03*
G01*
X4921402Y-1981200D03*
G01*
X4781397Y-1981200D03*
G01*
X4921402Y-1765300D03*
G01*
X4781397Y-1765300D03*
G01*
X3511702Y-1485900D03*
G01*
X3371697Y-1485900D03*
D16*
G01*
X3200400Y-1288897D03*
G01*
X3200400Y-1428902D03*
D15*
G01*
X5708802Y1409700D03*
G01*
X5568797Y1409700D03*
D17*
G01*
X4678299Y-1447800D03*
G01*
X4948300Y-1447800D03*
G01*
X3665600Y-1778000D03*
G01*
X3395599Y-1778000D03*
G01*
X3001899Y-2082800D03*
G01*
X3271900Y-2082800D03*
D18*
G01*
X2146300Y-2150998D03*
G01*
X2146300Y-2421001D03*
D17*
G01*
X2852800Y-1308100D03*
G01*
X2582799Y-1308100D03*
G01*
X3030600Y-1689100D03*
G01*
X2760599Y-1689100D03*
G01*
X6024499Y1066800D03*
G01*
X6294500Y1066800D03*
D15*
G01*
X4781397Y-2171700D03*
G01*
X4921402Y-2171700D03*
D20*
G01*
X6202502Y635000D03*
G01*
X5862497Y635000D03*
D21*
G01*
X6477000Y-582320D03*
G01*
X6477000Y-1043279D03*
D22*
G01*
X5435600Y513079D03*
G01*
X5308600Y513079D03*
G01*
X5181600Y513079D03*
G01*
X5054600Y513079D03*
G01*
X4927600Y513079D03*
G01*
X4800600Y513079D03*
G01*
X4673600Y513079D03*
G01*
X4546600Y513079D03*
G01*
X5435600Y-81279D03*
G01*
X5308600Y-81279D03*
G01*
X5181600Y-81279D03*
G01*
X5054600Y-81279D03*
G01*
X4927600Y-81279D03*
G01*
X4800600Y-81279D03*
G01*
X4673600Y-81279D03*
G01*
X4546600Y-81279D03*
D23*
G01*
X7133488Y-5219700D03*
G01*
X6963486Y-5219700D03*
G01*
X7247788Y-6769100D03*
G01*
X7077786Y-6769100D03*
G01*
X7196988Y-8293100D03*
G01*
X7026986Y-8293100D03*
G01*
X7222388Y-9842500D03*
G01*
X7052386Y-9842500D03*
G01*
X5342788Y-9817100D03*
G01*
X5172786Y-9817100D03*
G01*
X5418988Y-8305800D03*
G01*
X5248986Y-8305800D03*
G01*
X5444388Y-6769100D03*
G01*
X5274386Y-6769100D03*
G01*
X5368188Y-5219700D03*
G01*
X5198186Y-5219700D03*
G01*
X1908911Y-9817100D03*
G01*
X2078913Y-9817100D03*
G01*
X1908911Y-8255000D03*
G01*
X2078913Y-8255000D03*
G01*
X1883511Y-6794500D03*
G01*
X2053513Y-6794500D03*
G01*
X1870811Y-5232400D03*
G01*
X2040813Y-5232400D03*
G01*
X3640988Y-9817100D03*
G01*
X3470986Y-9817100D03*
G01*
X3615588Y-8293100D03*
G01*
X3445586Y-8293100D03*
G01*
X3717188Y-6807200D03*
G01*
X3547186Y-6807200D03*
G01*
X3666388Y-5232400D03*
G01*
X3496386Y-5232400D03*
D17*
G01*
X2023999Y-1663700D03*
G01*
X2294000Y-1663700D03*
D18*
G01*
X2501900Y-909701D03*
G01*
X2501900Y-639698D03*
D17*
G01*
X3297300Y-812800D03*
G01*
X3027299Y-812800D03*
D16*
G01*
X5384800Y-818997D03*
G01*
X5384800Y-959002D03*
D15*
G01*
X5569102Y1117600D03*
G01*
X5429097Y1117600D03*
D16*
G01*
X5473700Y-489102D03*
G01*
X5473700Y-349097D03*
G01*
X5194300Y-959002D03*
G01*
X5194300Y-818997D03*
G01*
X5041900Y-489102D03*
G01*
X5041900Y-349097D03*
G01*
X4813300Y-946302D03*
G01*
X4813300Y-806297D03*
D24*
G01*
X5980099Y-469900D03*
G01*
X5780100Y-469900D03*
G01*
X5980099Y-723900D03*
G01*
X5780100Y-723900D03*
G01*
X5980099Y-977900D03*
G01*
X5780100Y-977900D03*
D25*
G01*
X2032000Y347979D03*
D26*
G01*
X2032000Y414019D03*
D25*
G01*
X2120900Y347979D03*
D26*
G01*
X2120900Y414019D03*
D25*
G01*
X2209800Y347979D03*
D26*
G01*
X2209800Y414019D03*
D25*
G01*
X2298700Y347979D03*
D26*
G01*
X2298700Y414019D03*
D25*
G01*
X2387600Y347979D03*
D26*
G01*
X2387600Y414019D03*
D25*
G01*
X2463800Y347979D03*
D26*
G01*
X2463800Y414019D03*
D25*
G01*
X2552700Y347979D03*
D26*
G01*
X2552700Y414019D03*
D25*
G01*
X2641600Y347979D03*
D26*
G01*
X2641600Y414019D03*
D27*
G01*
X1943100Y-5930900D03*
G01*
X3581400Y-5930900D03*
G01*
X5295900Y-5930900D03*
G01*
X7073900Y-5943600D03*
G01*
X1943100Y-7467600D03*
G01*
X3581400Y-7480300D03*
G01*
X5295900Y-7454900D03*
G01*
X7073900Y-7467600D03*
G01*
X1943100Y-9017000D03*
G01*
X3581400Y-9004300D03*
G01*
X5295900Y-8978900D03*
G01*
X7073900Y-8978900D03*
G01*
X1943100Y-10541000D03*
G01*
X3581400Y-10528300D03*
G01*
X5295900Y-10502900D03*
G01*
X7073900Y-10490200D03*
D28*
G01*
X3014294Y-513892D03*
G01*
X3064306Y-513892D03*
G01*
X3114293Y-513892D03*
G01*
X3164306Y-513892D03*
G01*
X3214293Y-513892D03*
G01*
X3264306Y-513892D03*
G01*
X3314293Y-513892D03*
G01*
X3364306Y-513892D03*
G01*
X3414293Y-513892D03*
G01*
X3464306Y-513892D03*
G01*
X3514293Y-513892D03*
G01*
X3564305Y-513892D03*
D29*
G01*
X3714292Y-363905D03*
G01*
X3714292Y-313893D03*
G01*
X3714292Y-263905D03*
G01*
X3714292Y-213893D03*
G01*
X3714292Y-163906D03*
G01*
X3714292Y-113893D03*
G01*
X3714292Y-63906D03*
G01*
X3714292Y-13893D03*
G01*
X3714292Y36093D03*
G01*
X3714292Y86105D03*
G01*
X3714292Y136093D03*
G01*
X3714292Y186105D03*
D28*
G01*
X3564305Y336092D03*
G01*
X3514293Y336092D03*
G01*
X3464306Y336092D03*
G01*
X3414293Y336092D03*
G01*
X3364306Y336092D03*
G01*
X3314293Y336092D03*
G01*
X3264306Y336092D03*
G01*
X3214293Y336092D03*
G01*
X3164306Y336092D03*
G01*
X3114293Y336092D03*
G01*
X3064306Y336092D03*
G01*
X3014294Y336092D03*
D29*
G01*
X2864307Y186105D03*
G01*
X2864307Y136093D03*
G01*
X2864307Y86105D03*
G01*
X2864307Y36093D03*
G01*
X2864307Y-13893D03*
G01*
X2864307Y-63906D03*
G01*
X2864307Y-113893D03*
G01*
X2864307Y-163906D03*
G01*
X2864307Y-213893D03*
G01*
X2864307Y-263905D03*
G01*
X2864307Y-313893D03*
G01*
X2864307Y-363905D03*
D30*
G01*
X2636520Y-2584450D03*
G01*
X2636520Y-2647950D03*
G01*
X2636520Y-2711450D03*
G01*
X2636520Y-2774950D03*
G01*
X2636520Y-2838450D03*
G01*
X2636520Y-2901950D03*
G01*
X2636520Y-2965450D03*
G01*
X2636520Y-3028950D03*
G01*
X2636520Y-3092450D03*
G01*
X2636520Y-3155950D03*
G01*
X2636520Y-3219450D03*
G01*
X2636520Y-3282950D03*
G01*
X2636520Y-3346450D03*
G01*
X2636520Y-3409950D03*
G01*
X3205479Y-3409950D03*
G01*
X3205479Y-3346450D03*
G01*
X3205479Y-3282950D03*
G01*
X3205479Y-3219450D03*
G01*
X3205479Y-3155950D03*
G01*
X3205479Y-3092450D03*
G01*
X3205479Y-3028950D03*
G01*
X3205479Y-2965450D03*
G01*
X3205479Y-2901950D03*
G01*
X3205479Y-2838450D03*
G01*
X3205479Y-2774950D03*
G01*
X3205479Y-2711450D03*
G01*
X3205479Y-2647950D03*
G01*
X3205479Y-2584450D03*
D31*
G01*
X5803900Y-223189D03*
G01*
X5930900Y-223189D03*
G01*
X6057900Y-223189D03*
G01*
X6184900Y-223189D03*
G01*
X5803900Y324789D03*
G01*
X5930900Y324789D03*
G01*
X6057900Y324789D03*
G01*
X6184900Y324789D03*
D32*
G01*
X5229809Y952500D03*
G01*
X5229809Y1079500D03*
G01*
X5229809Y1206500D03*
G01*
X5229809Y1333500D03*
G01*
X4523790Y952500D03*
G01*
X4523790Y1079500D03*
G01*
X4523790Y1206500D03*
G01*
X4523790Y1333500D03*
D16*
G01*
X4724476Y-489102D03*
G01*
X4724476Y-349097D03*
G01*
X4508576Y-679602D03*
G01*
X4508576Y-539597D03*
G01*
X4279976Y-679602D03*
G01*
X4279976Y-539597D03*
D15*
G01*
X2952673Y774700D03*
G01*
X3092678Y774700D03*
G01*
X3079673Y990600D03*
G01*
X3219678Y990600D03*
G01*
X3168573Y1219200D03*
G01*
X3308578Y1219200D03*
G01*
X3181273Y1447800D03*
G01*
X3321278Y1447800D03*
G01*
X3651478Y1447800D03*
G01*
X3511473Y1447800D03*
G01*
X3714978Y1219200D03*
G01*
X3574973Y1219200D03*
G01*
X3778478Y1016000D03*
G01*
X3638473Y1016000D03*
G01*
X3829278Y774700D03*
G01*
X3689273Y774700D03*
G01*
X3829278Y508000D03*
G01*
X3689273Y508000D03*
G36*
X3162300Y-508000D02*
G01*
X3276600Y-508000D01*
X3276600Y-533400D01*
X3162300Y-533400D01*
G37*
G36*
X3073400Y-2628900D02*
G01*
X3200400Y-2628900D01*
X3200400Y-2667000D01*
X3073400Y-2667000D01*
G37*
D33*
G01*
X977900Y1028700D03*
D34*
G01*
X977900Y1282700D03*
G01*
X977900Y1536700D03*
G01*
X977900Y1790700D03*
D33*
G01*
X977900Y2146300D03*
D34*
G01*
X977900Y2400300D03*
G01*
X977900Y2654300D03*
G01*
X977900Y2908300D03*
D35*
G01*
X2501900Y1143000D03*
D34*
G01*
X2501900Y1397000D03*
G01*
X2247900Y1143000D03*
G01*
X2247900Y1397000D03*
G01*
X1993900Y1143000D03*
G01*
X1993900Y1397000D03*
G01*
X1739900Y1143000D03*
G01*
X1739900Y1397000D03*
G01*
X1485900Y1143000D03*
G01*
X1485900Y1397000D03*
D36*
G01*
X7191756Y-1625600D03*
G01*
X7692643Y-1625600D03*
D37*
G01*
X7670800Y2999905D03*
D34*
G01*
X7670800Y2749880D03*
G01*
X7670800Y2499893D03*
G01*
X7670800Y2249881D03*
G01*
X7670800Y1999894D03*
G01*
X7670800Y1749882D03*
D38*
G01*
X3517900Y-977900D03*
G01*
X3517900Y-1231900D03*
D39*
G01*
X7035800Y2705100D03*
G01*
X7035800Y2959100D03*
G01*
X7035800Y3213100D03*
G01*
X7035800Y3467100D03*
G01*
X7035800Y3721100D03*
G01*
X7035800Y3975100D03*
G01*
X7035800Y4229100D03*
G01*
X7035800Y4483100D03*
D40*
G01*
X2978632Y-2477566D03*
G01*
X2319731Y-3261639D03*
G01*
X4942255Y-700836D03*
G01*
X5422900Y139700D03*
G01*
X3268624Y-155447D03*
G01*
X4343400Y762000D03*
G01*
X4277258Y1922551D03*
G01*
X3650386Y-1972284D03*
G01*
X5359400Y1765300D03*
G01*
X4678299Y-1285697D03*
G01*
X6044260Y580517D03*
G01*
X3162300Y190500D03*
G01*
X2706852Y1202689D03*
G01*
X3810000Y-1079500D03*
G01*
X5105400Y-1308100D03*
G01*
X7585963Y-2757830D03*
G01*
X7200900Y-9652000D03*
G01*
X4559300Y-4597400D03*
G01*
X7429500Y-5092700D03*
G01*
X3352800Y-2705100D03*
G01*
X3708400Y-2908300D03*
G01*
X7124700Y-8115300D03*
G01*
X3810000Y-965200D03*
G01*
X5644057Y-2102256D03*
G01*
X1549400Y647700D03*
G01*
X3822700Y635000D03*
G01*
X3848100Y-9804400D03*
G01*
X6451600Y1193800D03*
G01*
X5486400Y-647700D03*
G01*
X6400012Y-90043D03*
G01*
X3615715Y-1456613D03*
G01*
X7277100Y-6540500D03*
G01*
X5201793Y-4484979D03*
G01*
X3999179Y-4525416D03*
G01*
X5600700Y-8331200D03*
G01*
X2971800Y1079500D03*
G01*
X1879600Y-6629400D03*
G01*
X2946400Y-2654300D03*
G01*
X3803802Y2153335D03*
G01*
X3332784Y-4875758D03*
G01*
X6648678Y-6968312D03*
G01*
X3200781Y-9887965D03*
G01*
X2780334Y-2939745D03*
G01*
X3746500Y266700D03*
G01*
X5232400Y800100D03*
G01*
X4537811Y2002688D03*
G01*
X3289300Y177800D03*
G01*
X2679700Y685800D03*
G01*
X5016500Y749300D03*
G01*
X3168497Y1109014D03*
G01*
X1905000Y-8115300D03*
G01*
X3797300Y-8255000D03*
G01*
X3911600Y-4368800D03*
G01*
X4250436Y888237D03*
G01*
X3924300Y1016000D03*
G01*
X3911600Y-6845300D03*
G01*
X4470400Y76200D03*
G01*
X4435856Y817626D03*
G01*
X3911600Y1244600D03*
G01*
X2834614Y-5392877D03*
G01*
X2780766Y-3155950D03*
G01*
X3771900Y-457200D03*
G01*
X4127500Y2362200D03*
G01*
X2882900Y-3187700D03*
G01*
X2451100Y-2311400D03*
G01*
X2336800Y-1371600D03*
G01*
X2209800Y-889000D03*
G01*
X2171700Y-1968500D03*
G01*
X2286000Y-1854200D03*
G01*
X2463800Y-2641600D03*
G01*
X2311400Y-2794000D03*
G01*
X1397000Y-3683000D03*
G01*
X1054100Y-3975100D03*
G01*
X3708400Y-3022600D03*
G01*
X4813300Y-6819900D03*
G01*
X4178300Y-5257800D03*
G01*
X5664200Y-8229600D03*
G01*
X3810000Y368300D03*
G01*
X4114800Y647700D03*
G01*
X2768600Y863600D03*
G01*
X1549400Y-876300D03*
G01*
X1117600Y-3200400D03*
G01*
X1562100Y-5207000D03*
G01*
X3962400Y-12700D03*
G01*
X4724400Y812800D03*
G01*
X4711700Y1181100D03*
G01*
X4597400Y1587500D03*
G01*
X5740400Y2819400D03*
G01*
X5334000Y1917700D03*
G01*
X5740400Y939800D03*
G01*
X5029200Y1016000D03*
G01*
X3924300Y-114300D03*
G01*
X3543300Y25400D03*
G01*
X3517900Y-279400D03*
G01*
X3771900Y-850900D03*
G01*
X5118100Y317500D03*
G01*
X3492500Y-3695700D03*
G01*
X4203700Y-4152900D03*
G01*
X4318000Y-3162300D03*
G01*
X7962900Y-2933700D03*
G01*
X6324600Y660400D03*
G01*
X2857500Y-2857500D03*
G01*
X2146300Y-2641600D03*
G01*
X2489200Y800100D03*
G01*
X4991100Y1282700D03*
G01*
X5118100Y736600D03*
G01*
X5156200Y1485900D03*
G01*
X5232400Y1651000D03*
G01*
X5778500Y-9842500D03*
G01*
X6096000Y-6642100D03*
G01*
X6184900Y-5321300D03*
G01*
X6489700Y-5054600D03*
G01*
X5372100Y-2641600D03*
G01*
X4203700Y-2209800D03*
G01*
X4406900Y-876300D03*
G01*
X4368800Y-330200D03*
G01*
X4356100Y647700D03*
G01*
X3975100Y431800D03*
G01*
X5283200Y-1231900D03*
G01*
X6959600Y698500D03*
G01*
X7327900Y520700D03*
G01*
X7632700Y-10020300D03*
G01*
X5803900Y-8509000D03*
G01*
X2679700Y-1066800D03*
G01*
X2717800Y-812800D03*
G01*
X3340100Y-2476500D03*
G01*
X3568700Y-2578100D03*
G01*
X3594100Y-2819400D03*
G01*
X3492500Y-3238500D03*
G01*
X4940300Y-2336800D03*
G01*
X6794500Y-609600D03*
G01*
X2636520Y-3695700D03*
G01*
X2171700Y-3695700D03*
G01*
X2095500Y-3492500D03*
G01*
X1714500Y-1600200D03*
G01*
X3898900Y127000D03*
M02*
