M48
METRIC,LZ,000.000
;FILE_FORMAT=3:3
;TYPE=PLATED
;Layer: PTH_Through_Via
;EasyEDA v6.5.54, 2026-03-25 16:45:29
;ca3c6d9d75d44d9f837d8ccaf28c5f28,dab029622f68425ca1211968fdfe3d34,10
;Gerber Generator version 0.2
;Holesize 1 = 0.400 mm
T01C0.400
%
G05
G90
T01
X029786Y-024776
X023197Y-032616
X049423Y-007008
X054229Y001397
X032686Y-001554
X043434Y007620
X042773Y019226
X036504Y-019723
X053594Y017653
X046783Y-012857
X060443Y005805
X031623Y001905
X027069Y012027
X038100Y-010795
X051054Y-013081
X075860Y-027578
X072009Y-096520
X045593Y-045974
X074295Y-050927
X033528Y-027051
X037084Y-029083
X071247Y-081153
X038100Y-009652
X056441Y-021023
X015494Y006477
X038227Y006350
X038481Y-098044
X064516Y011938
X054864Y-006477
X064000Y-000900
X036157Y-014566
X072771Y-065405
X052018Y-044850
X039992Y-045254
X056007Y-083312
X029718Y010795
X018796Y-066294
X029464Y-026543
X038038Y021533
X033328Y-048758
X066487Y-069683
X032008Y-098880
X027803Y-029397
X037465Y002667
X052324Y008001
X045378Y020027
X032893Y001778
X026797Y006858
X050165Y007493
X031685Y011090
X019050Y-081153
X037973Y-082550
X039116Y-043688
X042504Y008882
X039243Y010160
X039116Y-068453
X044704Y000762
X044359Y008176
X039116Y012446
X028346Y-053929
X027808Y-031560
X037719Y-004572
X041275Y023622
X028829Y-031877
X024511Y-023114
X023368Y-013716
X022098Y-008890
X021717Y-019685
X022860Y-018542
X024638Y-026416
X023114Y-027940
X013970Y-036830
X010541Y-039751
X037084Y-030226
X048133Y-068199
X041783Y-052578
X056642Y-082296
X038100Y003683
X041148Y006477
X027686Y008636
X015494Y-008763
X011176Y-032004
X015621Y-052070
X039624Y-000127
X047244Y008128
X047117Y011811
X045974Y015875
X057404Y028194
X053340Y019177
X057404Y009398
X050292Y010160
X039243Y-001143
X035433Y000254
X035179Y-002794
X037719Y-008509
X051181Y003175
X034925Y-036957
X042037Y-041529
X043180Y-031623
X079629Y-029337
X063246Y006604
X028575Y-028575
X021463Y-026416
X024892Y008001
X049911Y012827
X051181Y007366
X051562Y014859
X052324Y016510
X057785Y-098425
X060960Y-066421
X061849Y-053213
X064897Y-050546
X053721Y-026416
X042037Y-022098
X044069Y-008763
X043688Y-003302
X043561Y006477
X039751Y004318
X052832Y-012319
X069596Y006985
X073279Y005207
X076327Y-100203
X058039Y-085090
X026797Y-010668
X027178Y-008128
X033401Y-024765
X035687Y-025781
X035941Y-028194
X034925Y-032385
X049403Y-023368
X067945Y-006096
X026365Y-036957
X021717Y-036957
X020955Y-034925
X017145Y-016002
X038989Y001270
M30
